<svg width="18" height="18" viewBox="0 0 18 18" fill="none" xmlns="http://www.w3.org/2000/svg">
<path d="M14.1112 6.65469C13.9184 4.01919 11.7007 1.92969 9.00069 1.92969C6.30069 1.92969 4.08294 4.01919 3.89019 6.65469C2.76519 6.91194 1.92969 7.87644 1.92969 9.00144C1.92969 10.1264 2.76519 11.0909 3.89019 11.3474C4.08294 13.9837 6.30069 16.0724 9.00069 16.0724H10.9297V14.7869H9.00069C6.87969 14.7869 5.14344 13.0514 5.14344 10.9297V7.07319C5.14344 4.95219 6.87969 3.21669 9.00069 3.21669C11.1224 3.21669 12.8579 4.95219 12.8579 7.07319V10.7699C12.8585 10.9402 12.9264 11.1034 13.0468 11.2238C13.1673 11.3442 13.3304 11.4121 13.5007 11.4127C14.9152 11.4127 16.0724 10.3199 16.0724 9.00219C16.0724 7.87719 15.2369 6.91269 14.1119 6.65544L14.1112 6.65469ZM3.21519 9.00144C3.21519 8.58369 3.47244 8.22969 3.85794 8.03694V9.96594C3.47244 9.77244 3.21519 9.41919 3.21519 9.00144ZM14.1434 9.96594V8.03694C14.5297 8.22969 14.7869 8.58369 14.7869 9.00144C14.7869 9.41919 14.5297 9.77244 14.1434 9.96594Z" fill="white" style="fill:white;fill-opacity:1;"/>
</svg>
