<svg width="18" height="18" viewBox="0 0 18 18" fill="none" xmlns="http://www.w3.org/2000/svg">
<path fill-rule="evenodd" clip-rule="evenodd" d="M8.99966 1.28711C4.75691 1.28711 1.28516 4.75811 1.28516 9.00086C1.28516 13.2444 4.75766 16.7154 8.99966 16.7154C13.2424 16.7154 16.7142 13.2444 16.7142 9.00086C16.7142 4.75811 13.2424 1.28711 8.99966 1.28711ZM8.99966 15.4299C5.46416 15.4299 2.57141 12.5371 2.57141 9.00086C2.57141 5.46536 5.46416 2.57336 8.99966 2.57336C12.5359 2.57336 15.4287 5.46536 15.4287 9.00086C15.4287 12.5371 12.5359 15.4299 8.99966 15.4299ZM8.99966 13.5031C9.12853 13.5067 9.25682 13.4844 9.37693 13.4376C9.49705 13.3908 9.60655 13.3203 9.69898 13.2304C9.7914 13.1406 9.86487 13.0331 9.91504 12.9143C9.9652 12.7955 9.99105 12.6679 9.99105 12.539C9.99105 12.4101 9.9652 12.2824 9.91504 12.1637C9.86487 12.0449 9.7914 11.9374 9.69898 11.8475C9.60655 11.7577 9.49705 11.6872 9.37693 11.6404C9.25682 11.5935 9.12853 11.5713 8.99966 11.5749C8.74861 11.5819 8.51019 11.6865 8.3351 11.8666C8.16001 12.0466 8.06205 12.2878 8.06205 12.539C8.06205 12.7901 8.16001 13.0314 8.3351 13.2114C8.51019 13.3915 8.74861 13.4961 8.99966 13.5031ZM6.52466 7.71686C6.52466 6.23786 7.55366 5.14511 8.99966 5.14511C10.4464 5.14511 11.4747 6.17411 11.4747 7.62011C11.4747 8.42411 10.8964 9.03461 10.3819 9.54911C10.0287 9.90236 9.64241 10.2886 9.64241 10.5774H8.35691C8.35691 9.77411 8.93591 9.16361 9.44966 8.64911C9.80366 8.29511 10.1892 7.90961 10.1892 7.62011C10.1892 6.88136 9.73916 6.43136 8.99966 6.43136C8.29241 6.43136 7.81091 6.94511 7.81091 7.71686H6.52466Z" fill="white" style="fill:white;fill-opacity:1;"/>
</svg>
