<svg width="18" height="18" viewBox="0 0 18 18" fill="none" xmlns="http://www.w3.org/2000/svg">
<path d="M17.2281 9.9659L9.38533 2.1224C9.32726 2.0615 9.25744 2.01302 9.18009 1.97989C9.10274 1.94677 9.01947 1.92969 8.93533 1.92969C8.85118 1.92969 8.76791 1.94677 8.69056 1.97989C8.61321 2.01302 8.54339 2.0615 8.48533 2.1224L0.642578 9.9659L1.54258 10.8659L3.14983 9.25865V15.4297C3.15042 15.5999 3.21833 15.7631 3.33874 15.8835C3.45915 16.0039 3.62229 16.0718 3.79258 16.0724H14.0788C14.2491 16.0718 14.4123 16.0039 14.5327 15.8835C14.6531 15.7631 14.721 15.5999 14.7216 15.4297V9.25865L16.3281 10.8659L17.2281 9.9659ZM13.4353 14.7869H4.43533V7.97315L8.93533 3.47315L13.4353 7.97315V14.7869Z" fill="#090A08" style="fill:#090A08;fill:color(display-p3 0.0353 0.0392 0.0314);fill-opacity:1;"/>
</svg>
