<svg width="18" height="18" viewBox="0 0 18 18" fill="none" xmlns="http://www.w3.org/2000/svg">
<path d="M3.09375 2.53125V13.6406C3.09375 13.8271 3.01967 14.0059 2.88781 14.1378C2.75595 14.2697 2.57711 14.3438 2.39062 14.3438C2.20414 14.3438 2.0253 14.2697 1.89344 14.1378C1.76158 14.0059 1.6875 13.8271 1.6875 13.6406V5.34375H0.5625V13.6406C0.563049 14.1253 0.755831 14.59 1.09855 14.9327C1.44127 15.2754 1.90594 15.4682 2.39062 15.4688H15.6094C16.0941 15.4682 16.5587 15.2754 16.9014 14.9327C17.2442 14.59 17.437 14.1253 17.4375 13.6406V2.53125H3.09375ZM16.3125 13.6406C16.3123 13.827 16.2381 14.0058 16.1063 14.1376C15.9745 14.2694 15.7958 14.3435 15.6094 14.3438H4.07812C4.17121 14.121 4.21901 13.882 4.21875 13.6406V3.65625H16.3125V13.6406Z" fill="white" style="fill:white;fill-opacity:1;"/>
<path d="M10.4062 4.78125H5.34375V10.4062H10.4062V4.78125ZM9.28125 9.28125H6.46875V5.90625H9.28125V9.28125Z" fill="white" style="fill:white;fill-opacity:1;"/>
<path d="M15.1875 4.78125H11.5312V5.90625H15.1875V4.78125Z" fill="white" style="fill:white;fill-opacity:1;"/>
<path d="M15.1875 7.03125H11.5312V8.15625H15.1875V7.03125Z" fill="white" style="fill:white;fill-opacity:1;"/>
<path d="M15.1875 9.28125H11.5312V10.4062H15.1875V9.28125Z" fill="white" style="fill:white;fill-opacity:1;"/>
</svg>
