<svg width="18" height="18" viewBox="0 0 18 18" fill="none" xmlns="http://www.w3.org/2000/svg">
<path d="M12.8895 9.225C13.3801 8.86711 13.7787 8.39785 14.0525 7.85582C14.3264 7.3138 14.4676 6.7145 14.4645 6.10725C14.4645 3.9855 12.7275 2.25 10.6073 2.25C9.93022 2.25145 9.26535 2.43023 8.67887 2.76854C8.09239 3.10685 7.60476 3.59288 7.26453 4.17825C5.20728 4.24275 3.53553 5.94675 3.53553 8.0355C3.53553 9.32175 4.14678 10.4468 5.11053 11.1532C4.25008 11.5734 3.5254 12.2274 3.01949 13.0404C2.51357 13.8534 2.2469 14.7925 2.25003 15.75H3.53553C3.53553 14.2395 4.43553 12.9218 5.68953 12.2782C6.17178 12.0533 6.68553 11.8927 7.26453 11.8927H7.39278C9.51453 11.8927 11.25 13.6283 11.25 15.75H12.5355C12.5355 13.725 11.3783 11.9895 9.67503 11.1532C10.101 10.8281 10.461 10.4247 10.7355 9.9645C12.7928 10.0283 14.4645 11.7323 14.4645 13.8218H15.75C15.75 11.7968 14.5928 10.0605 12.8895 9.225ZM6.68553 10.5105C5.62503 10.1895 4.82253 9.225 4.82253 8.0355C4.82253 6.8145 5.65803 5.81775 6.78303 5.52825C6.97578 5.49675 7.16853 5.4645 7.39353 5.4645C7.65078 5.4645 7.87578 5.49675 8.10078 5.5605C9.19353 5.88225 9.96528 6.84675 9.96528 8.0355C9.96528 8.22825 9.93303 8.3895 9.90078 8.58225C9.64353 9.7395 8.61528 10.6073 7.39353 10.6073C7.13628 10.6073 6.91128 10.575 6.68628 10.5105H6.68553ZM11.2178 8.6145C11.25 8.42175 11.25 8.22825 11.25 8.0355C11.25 6.3645 10.1895 4.95 8.67828 4.40325C8.91824 4.12809 9.21487 3.90807 9.54782 3.7583C9.88078 3.60852 10.2422 3.53251 10.6073 3.5355C11.2886 3.53768 11.9414 3.80935 12.4231 4.2912C12.9048 4.77304 13.1763 5.42592 13.1783 6.10725C13.1783 7.32825 12.3428 8.325 11.2178 8.6145Z" fill="white" style="fill:white;fill-opacity:1;"/>
</svg>
