<svg width="10" height="16" viewBox="0 0 10 16" fill="none" xmlns="http://www.w3.org/2000/svg">
<path fill-rule="evenodd" clip-rule="evenodd" d="M1.99971 0C1.46935 0 0.960719 0.210683 0.585701 0.585701C0.210683 0.960719 0 1.46935 0 1.99971V14.0003C0 14.2629 0.0517241 14.5229 0.152219 14.7655C0.252714 15.0082 0.400011 15.2286 0.585701 15.4143C0.771391 15.6 0.991837 15.7473 1.23445 15.8478C1.47707 15.9483 1.7371 16 1.99971 16H7.33382C7.59642 16 7.85646 15.9483 8.09907 15.8478C8.34169 15.7473 8.56214 15.6 8.74783 15.4143C8.93352 15.2286 9.08081 15.0082 9.18131 14.7655C9.2818 14.5229 9.33353 14.2629 9.33353 14.0003V1.99971C9.33353 1.46935 9.12284 0.960719 8.74783 0.585701C8.37281 0.210683 7.86417 0 7.33382 0H1.99893H1.99971ZM1.33314 1.99971C1.33314 1.63181 1.63181 1.33314 1.99971 1.33314H3.42307C3.36448 1.43447 3.3336 1.54944 3.33354 1.6665C3.33349 1.78355 3.36426 1.89855 3.42275 1.99994C3.48125 2.10132 3.56542 2.18552 3.66678 2.24405C3.76815 2.30259 3.88314 2.3334 4.00019 2.33338H5.33333C5.45045 2.33353 5.56554 2.30282 5.66702 2.24434C5.76849 2.18587 5.85277 2.10168 5.91136 2.00028C5.96995 1.89887 6.00078 1.78381 6.00076 1.66669C6.00074 1.54957 5.96986 1.43453 5.91123 1.33314H7.33382C7.70171 1.33314 8.00039 1.63181 8.00039 1.99971V14.0003C8.00039 14.1771 7.93016 14.3466 7.80515 14.4716C7.68015 14.5966 7.5106 14.6669 7.33382 14.6669H1.99893C1.82214 14.6669 1.6526 14.5966 1.52759 14.4716C1.40259 14.3466 1.33236 14.1771 1.33236 14.0003V1.99971H1.33314Z" fill="white" style="fill:white;fill-opacity:1;"/>
</svg>
