<svg width="14" height="16" viewBox="0 0 14 16" fill="none" xmlns="http://www.w3.org/2000/svg">
<path fill-rule="evenodd" clip-rule="evenodd" d="M10.4358 8.00051L9.54494 7.10964L11.8352 4.81861H0V3.54615H11.8352L9.54568 1.25513L10.4366 0.364258L13.8092 3.73695C13.8695 3.79442 13.9175 3.86354 13.9503 3.9401C13.9831 4.01667 14 4.09909 14 4.18238C14 4.26567 13.9831 4.3481 13.9503 4.42466C13.9175 4.50123 13.8695 4.57034 13.8092 4.62782L10.4358 8.00051ZM3.56348 7.99976L4.45435 8.89064L2.16333 11.1817H13.9993V12.4541H2.16333L4.45435 14.7451L3.56348 15.636L0.190795 12.2633C0.130512 12.2058 0.0825221 12.1367 0.0497328 12.0602C0.0169435 11.9836 3.6993e-05 11.9012 3.6993e-05 11.8179C3.6993e-05 11.7346 0.0169435 11.6522 0.0497328 11.5756C0.0825221 11.499 0.130512 11.4299 0.190795 11.3725L3.56348 7.99976Z" fill="white" style="fill:white;fill-opacity:1;"/>
</svg>
