<svg width="170" height="63" viewBox="0 0 170 63" fill="none" xmlns="http://www.w3.org/2000/svg">
<g filter="url(#filter0_b_793_25379)">
<path fill-rule="evenodd" clip-rule="evenodd" d="M318.423 -6.53524L314.916 -6.41274L308.24 53.8566L311.748 53.7341L318.423 -6.53524ZM313.454 -6.3617L309.946 -6.2392L303.27 54.0301L306.778 53.9076L313.454 -6.3617ZM308.485 -6.18816L304.977 -6.06567L298.301 54.2037L301.809 54.0812L308.485 -6.18816ZM303.515 -6.01463L300.007 -5.89213L293.332 54.3772L296.839 54.2547L303.515 -6.01463ZM298.546 -5.84109L295.038 -5.71859L288.362 54.5508L291.87 54.4283L298.546 -5.84109ZM293.576 -5.66755L290.068 -5.54506L283.393 54.7243L286.901 54.6018L293.576 -5.66755ZM288.607 -5.49402L285.099 -5.37152L278.423 54.8978L281.931 54.7753L288.607 -5.49402ZM283.637 -5.32048L280.129 -5.19798L273.454 55.0714L276.962 54.9489L283.637 -5.32048ZM278.668 -5.14694L275.16 -5.02445L268.484 55.2449L271.992 55.1224L278.668 -5.14694ZM273.698 -4.97341L270.191 -4.85091L263.515 55.4184L267.023 55.2959L273.698 -4.97341ZM268.729 -4.79987L265.221 -4.67737L258.545 55.592L262.053 55.4695L268.729 -4.79987ZM263.759 -4.62633L260.252 -4.50383L253.576 55.7655L257.084 55.643L263.759 -4.62633ZM258.79 -4.45279L255.282 -4.3303L248.607 55.939L252.114 55.8166L258.79 -4.45279ZM253.821 -4.27926L250.313 -4.15676L243.637 56.1126L247.145 55.9901L253.821 -4.27926ZM248.851 -4.10572L245.343 -3.98322L238.668 56.2861L242.175 56.1636L248.851 -4.10572ZM243.882 -3.93218L240.374 -3.80969L233.698 56.4597L237.206 56.3372L243.882 -3.93218ZM238.912 -3.75865L235.404 -3.63615L228.729 56.6332L232.237 56.5107L238.912 -3.75865ZM233.943 -3.58511L230.435 -3.46261L223.759 56.8067L227.267 56.6842L233.943 -3.58511ZM228.973 -3.41157L225.465 -3.28908L218.79 56.9803L222.298 56.8578L228.973 -3.41157ZM224.004 -3.23804L220.496 -3.11554L213.82 57.1538L217.328 57.0313L224.004 -3.23804ZM219.034 -3.0645L215.527 -2.942L208.851 57.3273L212.359 57.2049L219.034 -3.0645ZM214.065 -2.89096L210.557 -2.76846L203.881 57.5009L207.389 57.3784L214.065 -2.89096ZM209.096 -2.71742L205.588 -2.59493L198.912 57.6744L202.42 57.5519L209.096 -2.71742ZM204.126 -2.54389L200.618 -2.42139L193.943 57.848L197.45 57.7255L204.126 -2.54389ZM199.157 -2.37035L195.649 -2.24785L188.973 58.0215L192.481 57.899L199.157 -2.37035ZM194.187 -2.19681L190.679 -2.07432L184.004 58.195L187.512 58.0725L194.187 -2.19681ZM189.218 -2.02328L185.71 -1.90078L179.034 58.3686L182.542 58.2461L189.218 -2.02328ZM184.248 -1.84974L180.74 -1.72724L174.065 58.5421L177.573 58.4196L184.248 -1.84974ZM179.279 -1.6762L175.771 -1.55371L169.095 58.7156L172.603 58.5931L179.279 -1.6762ZM174.309 -1.50267L170.802 -1.38017L164.126 58.8892L167.634 58.7667L174.309 -1.50267ZM169.34 -1.32913L165.832 -1.20663L159.156 59.0627L162.664 58.9402L169.34 -1.32913ZM164.398 -1.15633L160.89 -1.03384L154.215 59.2355L157.722 59.113L164.398 -1.15633ZM159.429 -0.982795L155.921 -0.860298L149.245 59.4091L152.753 59.2866L159.429 -0.982795ZM154.459 -0.809258L150.951 -0.686761L144.276 59.5826L147.783 59.4601L154.459 -0.809258ZM149.49 -0.635721L145.982 -0.513224L139.306 59.7561L142.814 59.6336L149.49 -0.635721ZM144.52 -0.462183L141.012 -0.339687L134.337 59.9297L137.845 59.8072L144.52 -0.462183ZM139.551 -0.288647L136.043 -0.16615L129.367 60.1032L132.875 59.9807L139.551 -0.288647ZM134.581 -0.11511L131.073 0.00738713L124.398 60.2767L127.906 60.1542L134.581 -0.11511ZM129.612 0.0584274L126.104 0.180924L119.428 60.4503L122.936 60.3278L129.612 0.0584274ZM124.642 0.231964L121.135 0.354461L114.459 60.6238L117.967 60.5013L124.642 0.231964ZM119.673 0.405501L116.165 0.527998L109.489 60.7973L112.997 60.6748L119.673 0.405501ZM114.704 0.579038L111.196 0.701535L104.52 60.9709L108.028 60.8484L114.704 0.579038ZM109.734 0.752575L106.226 0.875072L99.5506 61.1444L103.058 61.0219L109.734 0.752575ZM104.765 0.926112L101.257 1.04861L94.5811 61.318L98.089 61.1955L104.765 0.926112ZM99.7952 1.09965L96.2873 1.22215L89.6117 61.4915L93.1195 61.369L99.7952 1.09965ZM94.8257 1.27319L91.3179 1.39568L84.6422 61.665L88.1501 61.5425L94.8257 1.27319ZM89.8563 1.44672L86.3484 1.56922L79.6728 61.8386L83.1806 61.7161L89.8563 1.44672ZM84.8868 1.62026L81.379 1.74276L74.7033 62.0121L78.2112 61.8896L84.8868 1.62026ZM79.9174 1.7938L76.4096 1.91629L69.7339 62.1856L73.2417 62.0631L79.9174 1.7938ZM74.948 1.96733L71.4401 2.08983L64.7644 62.3592L68.2723 62.2367L74.948 1.96733ZM69.9785 2.14087L66.4707 2.26337L59.795 62.5327L63.3028 62.4102L69.9785 2.14087ZM65.0091 2.31441L61.5012 2.4369L54.8255 62.7063L58.3334 62.5838L65.0091 2.31441ZM60.0396 2.48794L56.5318 2.61044L49.8561 62.8798L53.3639 62.7573L60.0396 2.48794ZM55.0702 2.66148L51.5623 2.78398L44.8866 63.0533L48.3945 62.9308L55.0702 2.66148ZM50.1007 2.83502L46.5929 2.95752L39.9172 63.2269L43.425 63.1044L50.1007 2.83502ZM45.1312 3.00856L41.6234 3.13105L34.9477 63.4004L38.4556 63.2779L45.1312 3.00856ZM40.1618 3.18209L36.654 3.30459L29.9783 63.5739L33.4861 63.4514L40.1618 3.18209ZM35.1924 3.35563L31.6845 3.47813L25.0089 63.7475L28.5167 63.625L35.1924 3.35563ZM30.2229 3.52917L26.715 3.65166L20.0394 63.921L23.5473 63.7985L30.2229 3.52917ZM25.2534 3.7027L21.7456 3.8252L15.0699 64.0945L18.5778 63.9721L25.2534 3.7027ZM20.284 3.87624L16.7762 3.99874L10.1005 64.2681L13.6083 64.1456L20.284 3.87624ZM15.3146 4.04978L11.8067 4.17227L5.13105 64.4416L8.63889 64.3191L15.3146 4.04978ZM6.86674 4.34507L10.3746 4.22257L3.69895 64.4919L0.191082 64.6144L6.86674 4.34507ZM1.8973 4.51861L5.40514 4.39611L-1.27052 64.6655L-4.77836 64.788L1.8973 4.51861ZM-3.07214 4.69214L0.435698 4.56965L-6.23996 64.839L-9.7478 64.9615L-3.07214 4.69214ZM-8.04159 4.86568L-4.53375 4.74319L-11.2094 65.0125L-14.7172 65.135L-8.04159 4.86568ZM-13.011 5.03922L-9.50319 4.91672L-16.1789 65.1861L-19.6867 65.3086L-13.011 5.03922ZM-17.9805 5.21276L-14.4726 5.09026L-21.1483 65.3596L-24.6562 65.4821L-17.9805 5.21276ZM-22.9499 5.38629L-19.4421 5.2638L-26.1178 65.5331L-29.6256 65.6556L-22.9499 5.38629ZM-27.9194 5.55983L-24.4116 5.43733L-31.0872 65.7067L-34.5951 65.8292L-27.9194 5.55983ZM-32.8888 5.73337L-29.381 5.61087L-36.0567 65.8802L-39.5645 66.0027L-32.8888 5.73337ZM-37.8583 5.9069L-34.3504 5.78441L-41.0261 66.0538L-44.5339 66.1763L-37.8583 5.9069ZM-42.8278 6.08044L-39.3199 5.95794L-45.9955 66.2273L-49.5034 66.3498L-42.8278 6.08044ZM-47.7972 6.25398L-44.2893 6.13148L-50.965 66.4008L-54.4729 66.5233L-47.7972 6.25398ZM-52.7666 6.42751L-49.2588 6.30502L-55.9345 66.5744L-59.4423 66.6969L-52.7666 6.42751ZM-57.7361 6.60105L-54.2282 6.47856L-60.9039 66.7479L-64.4117 66.8704L-57.7361 6.60105ZM-62.7055 6.77459L-59.1977 6.65209L-65.8733 66.9214L-69.3812 67.0439L-62.7055 6.77459ZM-67.675 6.94813L-64.1671 6.82563L-70.8428 67.095L-74.3506 67.2175L-67.675 6.94813ZM-72.6444 7.12166L-69.1366 6.99917L-75.8122 67.2685L-79.3201 67.391L-72.6444 7.12166ZM-77.6139 7.2952L-74.106 7.1727L-80.7817 67.4421L-84.2895 67.5645L-77.6139 7.2952ZM-82.5833 7.46874L-79.0755 7.34624L-85.7512 67.6156L-89.259 67.7381L-82.5833 7.46874ZM-87.5528 7.64227L-84.0449 7.51978L-90.7206 67.7891L-94.2284 67.9116L-87.5528 7.64227ZM-92.5222 7.81581L-89.0144 7.69331L-95.69 67.9627L-99.1979 68.0852L-92.5222 7.81581ZM-97.4917 7.98935L-93.9838 7.86685L-100.659 68.1362L-104.167 68.2587L-97.4917 7.98935ZM-102.461 8.16288L-98.9533 8.04039L-105.629 68.3097L-109.137 68.4322L-102.461 8.16288ZM-107.431 8.33642L-103.923 8.21393L-110.598 68.4833L-114.106 68.6058L-107.431 8.33642ZM-112.4 8.50996L-108.892 8.38746L-115.568 68.6568L-119.076 68.7793L-112.4 8.50996ZM-117.369 8.6835L-113.862 8.561L-120.537 68.8303L-124.045 68.9528L-117.369 8.6835ZM-122.339 8.85703L-118.831 8.73454L-125.507 69.0039L-129.015 69.1264L-122.339 8.85703ZM-127.308 9.03057L-123.801 8.90807L-130.476 69.1774L-133.984 69.2999L-127.308 9.03057ZM-132.278 9.20411L-128.77 9.08161L-135.446 69.351L-138.953 69.4735L-132.278 9.20411ZM-137.247 9.37764L-133.739 9.25515L-140.415 69.5245L-143.923 69.647L-137.247 9.37764ZM-142.217 9.55118L-138.709 9.42868L-145.385 69.698L-148.892 69.8205L-142.217 9.55118Z" fill="#222222" fill-opacity="0.08" style="fill:#222222;fill:color(display-p3 0.1333 0.1333 0.1333);fill-opacity:0.08;"/>
</g>
<defs>
<filter id="filter0_b_793_25379" x="-158.893" y="-16.5352" width="487.316" height="96.3555" filterUnits="userSpaceOnUse" color-interpolation-filters="sRGB">
<feFlood flood-opacity="0" result="BackgroundImageFix"/>
<feGaussianBlur in="BackgroundImageFix" stdDeviation="5"/>
<feComposite in2="SourceAlpha" operator="in" result="effect1_backgroundBlur_793_25379"/>
<feBlend mode="normal" in="SourceGraphic" in2="effect1_backgroundBlur_793_25379" result="shape"/>
</filter>
</defs>
</svg>
