<svg width="170" height="56" viewBox="0 0 170 56" fill="none" xmlns="http://www.w3.org/2000/svg">
<g filter="url(#filter0_b_793_25512)">
<path fill-rule="evenodd" clip-rule="evenodd" d="M479 -1.83601L475.49 -1.83601L466.715 58.1637L470.225 58.1637L479 -1.83601ZM474.028 -1.83601L470.518 -1.83601L461.743 58.1637L465.253 58.1637L474.028 -1.83601ZM469.055 -1.83601L465.545 -1.83601L456.77 58.1636L460.28 58.1637L469.055 -1.83601ZM464.083 -1.83601L460.573 -1.83601L451.798 58.1636L455.308 58.1636L464.083 -1.83601ZM459.11 -1.83601L455.6 -1.83601L446.825 58.1636L450.335 58.1636L459.11 -1.83601ZM454.138 -1.83601L450.628 -1.83601L441.853 58.1636L445.363 58.1636L454.138 -1.83601ZM449.165 -1.83601L445.655 -1.83601L436.88 58.1636L440.39 58.1636L449.165 -1.83601ZM444.193 -1.83601L440.683 -1.83601L431.908 58.1636L435.418 58.1636L444.193 -1.83601ZM439.22 -1.83601L435.71 -1.83601L426.935 58.1636L430.445 58.1636L439.22 -1.83601ZM434.248 -1.83601L430.738 -1.83601L421.963 58.1637L425.473 58.1636L434.248 -1.83601ZM429.275 -1.83601L425.765 -1.83601L416.99 58.1637L420.5 58.1637L429.275 -1.83601ZM424.303 -1.83601L420.793 -1.83601L412.018 58.1637L415.528 58.1637L424.303 -1.83601ZM419.33 -1.83601L415.82 -1.83601L407.045 58.1637L410.555 58.1637L419.33 -1.83601ZM414.358 -1.83601L410.848 -1.83601L402.073 58.1637L405.583 58.1637L414.358 -1.83601ZM409.385 -1.83601L405.875 -1.83601L397.1 58.1637L400.61 58.1637L409.385 -1.83601ZM404.413 -1.83601L400.903 -1.83601L392.128 58.1637L395.638 58.1637L404.413 -1.83601ZM399.44 -1.83601L395.93 -1.83601L387.155 58.1637L390.665 58.1637L399.44 -1.83601ZM394.468 -1.83601L390.958 -1.83601L382.183 58.1637L385.693 58.1637L394.468 -1.83601ZM389.495 -1.83601L385.985 -1.83601L377.21 58.1637L380.72 58.1637L389.495 -1.83601ZM384.523 -1.83601L381.013 -1.83601L372.238 58.1637L375.748 58.1637L384.523 -1.83601ZM379.55 -1.83601L376.04 -1.83601L367.265 58.1636L370.775 58.1636L379.55 -1.83601ZM374.578 -1.83601L371.068 -1.83601L362.293 58.1636L365.803 58.1636L374.578 -1.83601ZM369.605 -1.83601L366.095 -1.83601L357.321 58.1636L360.831 58.1636L369.605 -1.83601ZM364.633 -1.83601L361.123 -1.83601L352.348 58.1636L355.858 58.1636L364.633 -1.83601ZM359.661 -1.83601L356.151 -1.83601L347.376 58.1636L350.886 58.1636L359.661 -1.83601ZM354.688 -1.83601L351.178 -1.83601L342.403 58.1636L345.913 58.1636L354.688 -1.83601ZM349.716 -1.83601L346.206 -1.83601L337.431 58.1637L340.941 58.1636L349.716 -1.83601ZM344.743 -1.83601L341.233 -1.83601L332.458 58.1637L335.968 58.1637L344.743 -1.83601ZM339.771 -1.83601L336.261 -1.83601L327.486 58.1637L330.996 58.1637L339.771 -1.83601ZM334.798 -1.83601L331.288 -1.83601L322.513 58.1637L326.023 58.1637L334.798 -1.83601ZM329.826 -1.83601L326.316 -1.83601L317.541 58.1637L321.051 58.1637L329.826 -1.83601ZM306.457 -2.16504L302.947 -2.16504L294.172 57.8346L297.682 57.8346L306.457 -2.16504ZM301.484 -2.16504L297.974 -2.16504L289.199 57.8346L292.709 57.8346L301.484 -2.16504ZM296.512 -2.16504L293.002 -2.16504L284.227 57.8346L287.737 57.8346L296.512 -2.16504ZM291.539 -2.16504L288.029 -2.16504L279.254 57.8346L282.764 57.8346L291.539 -2.16504ZM286.567 -2.16504L283.057 -2.16504L274.282 57.8346L277.792 57.8346L286.567 -2.16504ZM281.594 -2.16504L278.084 -2.16504L269.31 57.8346L272.819 57.8346L281.594 -2.16504ZM276.622 -2.16504L273.112 -2.16504L264.337 57.8346L267.847 57.8346L276.622 -2.16504ZM271.649 -2.16504L268.14 -2.16504L259.365 57.8346L262.875 57.8346L271.649 -2.16504ZM266.677 -2.16504L263.167 -2.16504L254.392 57.8346L257.902 57.8346L266.677 -2.16504ZM261.705 -2.16504L258.195 -2.16504L249.42 57.8346L252.93 57.8346L261.705 -2.16504ZM256.732 -2.16504L253.222 -2.16504L244.447 57.8346L247.957 57.8346L256.732 -2.16504ZM251.76 -2.16504L248.25 -2.16504L239.475 57.8346L242.985 57.8346L251.76 -2.16504ZM246.787 -2.16504L243.277 -2.16504L234.502 57.8346L238.012 57.8346L246.787 -2.16504ZM241.815 -2.16504L238.305 -2.16504L229.53 57.8346L233.04 57.8346L241.815 -2.16504ZM236.842 -2.16504L233.332 -2.16504L224.557 57.8346L228.067 57.8346L236.842 -2.16504ZM231.87 -2.16504L228.36 -2.16504L219.585 57.8346L223.095 57.8346L231.87 -2.16504ZM226.897 -2.16504L223.387 -2.16504L214.612 57.8346L218.122 57.8346L226.897 -2.16504ZM221.925 -2.16504L218.415 -2.16504L209.64 57.8346L213.15 57.8346L221.925 -2.16504ZM216.952 -2.16504L213.442 -2.16504L204.667 57.8346L208.177 57.8346L216.952 -2.16504ZM211.98 -2.16504L208.47 -2.16504L199.695 57.8346L203.205 57.8346L211.98 -2.16504ZM207.007 -2.16504L203.497 -2.16504L194.722 57.8346L198.232 57.8346L207.007 -2.16504ZM202.035 -2.16504L198.525 -2.16504L189.75 57.8346L193.26 57.8346L202.035 -2.16504ZM197.062 -2.16504L193.552 -2.16504L184.777 57.8346L188.287 57.8346L197.062 -2.16504ZM192.09 -2.16504L188.58 -2.16504L179.805 57.8346L183.315 57.8346L192.09 -2.16504ZM187.117 -2.16504L183.607 -2.16504L174.832 57.8346L178.342 57.8346L187.117 -2.16504ZM182.145 -2.16504L178.635 -2.16504L169.86 57.8346L173.37 57.8346L182.145 -2.16504ZM177.172 -2.16504L173.662 -2.16504L164.887 57.8346L168.397 57.8346L177.172 -2.16504ZM172.2 -2.16504L168.69 -2.16504L159.915 57.8346L163.425 57.8346L172.2 -2.16504ZM167.227 -2.16504L163.717 -2.16504L154.943 57.8346L158.453 57.8346L167.227 -2.16504ZM162.255 -2.16504L158.745 -2.16504L149.97 57.8346L153.48 57.8346L162.255 -2.16504ZM157.283 -2.16504L153.773 -2.16504L144.998 57.8346L148.508 57.8346L157.283 -2.16504ZM148.404 -2.49416L151.913 -2.49415L143.139 57.5055L139.629 57.5055L148.404 -2.49416ZM143.431 -2.49416L146.941 -2.49416L138.166 57.5055L134.656 57.5055L143.431 -2.49416ZM138.459 -2.49416L141.969 -2.49416L133.194 57.5055L129.684 57.5055L138.459 -2.49416ZM133.486 -2.49416L136.996 -2.49416L128.221 57.5055L124.711 57.5055L133.486 -2.49416ZM128.514 -2.49416L132.024 -2.49416L123.249 57.5055L119.739 57.5055L128.514 -2.49416ZM123.541 -2.49416L127.051 -2.49416L118.276 57.5055L114.766 57.5055L123.541 -2.49416ZM118.569 -2.49416L122.079 -2.49416L113.304 57.5055L109.794 57.5055L118.569 -2.49416ZM113.596 -2.49416L117.106 -2.49416L108.331 57.5055L104.821 57.5055L113.596 -2.49416ZM108.624 -2.49415L112.134 -2.49416L103.359 57.5055L99.8487 57.5055L108.624 -2.49415ZM103.651 -2.49415L107.161 -2.49415L98.3862 57.5055L94.8763 57.5055L103.651 -2.49415ZM98.6787 -2.49415L102.189 -2.49415L93.4138 57.5055L89.9038 57.5055L98.6787 -2.49415ZM93.7063 -2.49415L97.2163 -2.49415L88.4413 57.5055L84.9313 57.5055L93.7063 -2.49415ZM88.7338 -2.49415L92.2438 -2.49415L83.4688 57.5055L79.9588 57.5055L88.7338 -2.49415ZM83.7613 -2.49415L87.2713 -2.49415L78.4963 57.5055L74.9863 57.5055L83.7613 -2.49415ZM78.7888 -2.49415L82.2988 -2.49415L73.5238 57.5055L70.0139 57.5055L78.7888 -2.49415ZM73.8164 -2.49415L77.3263 -2.49415L68.5514 57.5055L65.0414 57.5055L73.8164 -2.49415ZM68.8439 -2.49415L72.3539 -2.49415L63.5789 57.5055L60.0689 57.5055L68.8439 -2.49415ZM63.8714 -2.49415L67.3814 -2.49415L58.6064 57.5055L55.0964 57.5055L63.8714 -2.49415ZM58.8989 -2.49415L62.4089 -2.49415L53.6339 57.5055L50.1239 57.5055L58.8989 -2.49415ZM53.9264 -2.49415L57.4364 -2.49415L48.6615 57.5055L45.1515 57.5055L53.9264 -2.49415ZM48.954 -2.49415L52.4639 -2.49415L43.689 57.5055L40.179 57.5055L48.954 -2.49415ZM43.9815 -2.49415L47.4915 -2.49415L38.7165 57.5055L35.2065 57.5055L43.9815 -2.49415ZM39.009 -2.49415L42.519 -2.49415L33.744 57.5055L30.234 57.5055L39.009 -2.49415ZM34.0365 -2.49415L37.5465 -2.49415L28.7715 57.5055L25.2616 57.5055L34.0365 -2.49415ZM29.064 -2.49415L32.574 -2.49415L23.7991 57.5055L20.2891 57.5055L29.064 -2.49415ZM24.0916 -2.49415L27.6016 -2.49415L18.8266 57.5055L15.3166 57.5055L24.0916 -2.49415ZM19.1191 -2.49415L22.6291 -2.49415L13.8541 57.5055L10.3441 57.5055L19.1191 -2.49415ZM14.1466 -2.49415L17.6566 -2.49415L8.88165 57.5055L5.37167 57.5055L14.1466 -2.49415ZM9.17413 -2.49415L12.6841 -2.49415L3.90917 57.5055L0.399163 57.5055L9.17413 -2.49415ZM4.20166 -2.49415L7.71163 -2.49415L-1.06333 57.5055L-4.57331 57.5055L4.20166 -2.49415ZM-0.770817 -2.49415L2.73916 -2.49415L-6.0358 57.5055L-9.54578 57.5055L-0.770817 -2.49415Z" fill="white" fill-opacity="0.08" style="fill:white;fill-opacity:0.08;"/>
</g>
<defs>
<filter id="filter0_b_793_25512" x="-19.5459" y="-12.4941" width="508.546" height="80.6582" filterUnits="userSpaceOnUse" color-interpolation-filters="sRGB">
<feFlood flood-opacity="0" result="BackgroundImageFix"/>
<feGaussianBlur in="BackgroundImageFix" stdDeviation="5"/>
<feComposite in2="SourceAlpha" operator="in" result="effect1_backgroundBlur_793_25512"/>
<feBlend mode="normal" in="SourceGraphic" in2="effect1_backgroundBlur_793_25512" result="shape"/>
</filter>
</defs>
</svg>
