<svg width="64" height="64" viewBox="0 0 64 64" fill="none" xmlns="http://www.w3.org/2000/svg">
<g clip-path="url(#clip0_230_11947)">
<mask id="mask0_230_11947" style="mask-type:luminance" maskUnits="userSpaceOnUse" x="0" y="0" width="64" height="64">
<path d="M64 0H0V64H64V0Z" fill="white" style="fill:white;fill-opacity:1;"/>
</mask>
<g mask="url(#mask0_230_11947)">
<path d="M32.0001 0C24.6668 0 17.8668 2.46667 12.4668 6.66667H51.5335C46.1335 2.46667 39.3335 0 32.0001 0Z" fill="white" style="fill:white;fill-opacity:1;"/>
<path d="M32.0001 64.0007C39.3335 64.0007 46.1335 61.534 51.5335 57.334H12.4668C17.8668 61.534 24.6668 64.0007 32.0001 64.0007Z" fill="white" style="fill:white;fill-opacity:1;"/>
<path d="M0 32.0007C0 39.0007 2.26667 45.4007 6 50.6673H58C61.8 45.4007 64 39.0007 64 32.0007C64 25.0007 61.7333 18.6007 58 13.334H6C2.26667 18.6007 0 25.0007 0 32.0007Z" fill="white" style="fill:white;fill-opacity:1;"/>
<path d="M51.5333 6.66602H12.4667C10 8.53269 7.8 10.7993 6 13.3327H58C56.2 10.7993 54 8.53269 51.5333 6.66602Z" fill="#231D9A" style="fill:#231D9A;fill:color(display-p3 0.1373 0.1137 0.6039);fill-opacity:1;"/>
<path d="M12.4667 57.3327H51.5333C54 55.466 56.1333 53.1993 58 50.666H6C7.8 53.1993 10 55.466 12.4667 57.3327Z" fill="#231D9A" style="fill:#231D9A;fill:color(display-p3 0.1373 0.1137 0.6039);fill-opacity:1;"/>
<path d="M41.1333 32.0002L45.7333 24.0002H36.5333L31.9999 16.2002L27.4666 24.0002H18.2666L22.8666 32.0002L18.2666 40.0002H27.4666L31.9999 47.8002L36.5333 40.0002H45.7333L41.1333 32.0002ZM43.3999 25.3335L40.3333 30.6669L37.2666 25.3335H43.3999ZM39.5999 32.0002L35.7333 38.6669H28.2666L24.3999 32.0002L28.2666 25.3335H35.7333L39.5999 32.0002ZM31.9999 18.8669L34.9999 24.0002H29.0666L31.9999 18.8669ZM20.5999 25.3335H26.7333L23.6666 30.6669L20.5999 25.3335ZM20.5999 38.6669L23.6666 33.3335L26.7333 38.6669H20.5999ZM31.9999 45.1335L28.9999 40.0002H34.9333L31.9999 45.1335ZM40.3333 33.3335L43.3999 38.6669H37.2666L40.3333 33.3335Z" fill="#231D9A" style="fill:#231D9A;fill:color(display-p3 0.1373 0.1137 0.6039);fill-opacity:1;"/>
</g>
</g>
<defs>
<clipPath id="clip0_230_11947">
<rect width="64" height="64" rx="32" fill="white" style="fill:white;fill-opacity:1;"/>
</clipPath>
</defs>
</svg>
