<svg width="64" height="64" viewBox="0 0 64 64" fill="none" xmlns="http://www.w3.org/2000/svg">
<g clip-path="url(#clip0_230_12265)">
<mask id="mask0_230_12265" style="mask-type:luminance" maskUnits="userSpaceOnUse" x="0" y="0" width="64" height="64">
<path d="M64 0H0V64H64V0Z" fill="white" style="fill:white;fill-opacity:1;"/>
</mask>
<g mask="url(#mask0_230_12265)">
<mask id="mask1_230_12265" style="mask-type:alpha" maskUnits="userSpaceOnUse" x="0" y="0" width="64" height="64">
<path d="M32 64C49.6731 64 64 49.6731 64 32C64 14.3269 49.6731 0 32 0C14.3269 0 0 14.3269 0 32C0 49.6731 14.3269 64 32 64Z" fill="#231D9A" style="fill:#231D9A;fill:color(display-p3 0.1373 0.1137 0.6039);fill-opacity:1;"/>
</mask>
<g mask="url(#mask1_230_12265)">
<path d="M64 0H0V64H64V0Z" fill="#231D9A" style="fill:#231D9A;fill:color(display-p3 0.1373 0.1137 0.6039);fill-opacity:1;"/>
<path d="M37.0975 23.4118L36.8618 23.6475L37.0975 23.8832L39.4112 26.1969L39.6469 26.4326L39.8826 26.1969L42.1963 23.8832L42.432 23.6475L42.1963 23.4118L39.8826 21.098L39.6469 20.8623L39.4112 21.098L37.0975 23.4118Z" fill="#F0263C" stroke="white" style="fill:#F0263C;fill:color(display-p3 0.9412 0.1490 0.2353);fill-opacity:1;stroke:white;stroke-opacity:1;" stroke-width="0.666667"/>
<path d="M45.0975 12.7447L44.8618 12.9804L45.0975 13.2161L47.4112 15.5298L47.6469 15.7655L47.8826 15.5298L50.1963 13.2161L50.432 12.9804L50.1963 12.7447L47.8826 10.431L47.6469 10.1953L47.4112 10.431L45.0975 12.7447Z" fill="#F0263C" stroke="white" style="fill:#F0263C;fill:color(display-p3 0.9412 0.1490 0.2353);fill-opacity:1;stroke:white;stroke-opacity:1;" stroke-width="0.666667"/>
<path d="M44.4647 49.7643L44.229 50L44.4647 50.2357L47.8116 53.5826L48.0473 53.8183L48.283 53.5826L51.63 50.2357L51.8657 50L51.63 49.7643L48.283 46.4173L48.0473 46.1816L47.8116 46.4173L44.4647 49.7643Z" fill="#F0263C" stroke="white" style="fill:#F0263C;fill:color(display-p3 0.9412 0.1490 0.2353);fill-opacity:1;stroke:white;stroke-opacity:1;" stroke-width="0.666667"/>
<path d="M53.0975 22.0788L52.8618 22.3145L53.0975 22.5502L55.4112 24.8639L55.6469 25.0996L55.8826 24.8639L58.1963 22.5502L58.432 22.3145L58.1963 22.0788L55.8826 19.765L55.6469 19.5293L55.4112 19.765L53.0975 22.0788Z" fill="#F0263C" stroke="white" style="fill:#F0263C;fill:color(display-p3 0.9412 0.1490 0.2353);fill-opacity:1;stroke:white;stroke-opacity:1;" stroke-width="0.666667"/>
<mask id="mask2_230_12265" style="mask-type:alpha" maskUnits="userSpaceOnUse" x="0" y="0" width="31" height="28">
<path d="M30.7 0H0V28H30.7V0Z" fill="#D9D9D9" style="fill:#D9D9D9;fill:color(display-p3 0.8510 0.8510 0.8510);fill-opacity:1;"/>
</mask>
<g mask="url(#mask2_230_12265)">
<path d="M11.8199 8.83336V8.51389L-2.23568 -0.75C-2.87747 0.0450637 -3.66156 0.934772 -4.15234 1.80556L6.70877 8.83333L11.8199 8.83336Z" fill="#F0263C" style="fill:#F0263C;fill:color(display-p3 0.9412 0.1490 0.2353);fill-opacity:1;"/>
<path d="M11.5012 7.04432L-0.606162 -0.973801C-0.893662 -0.654357 -1.18116 -0.334913 -1.43672 -0.0154684L11.5331 8.54571V8.83321H7.2845L-2.87422 2.12481C-3.06589 2.50815 -3.25755 2.89148 -3.44922 3.27481L4.9845 8.83321H2.73242H-0.382534C-0.478368 9.24849 -0.574201 9.66376 -0.63809 10.111H12.7789V-3.30566C12.3317 -3.24178 11.9164 -3.14594 11.5011 -3.05011L11.5012 7.04432Z" fill="white" style="fill:white;fill-opacity:1;"/>
<path d="M-0.63825 15.2227C-0.574361 15.6699 -0.478528 16.0852 -0.382694 16.5004H4.98435L-3.57715 22.1865C-3.41743 22.5698 -3.22576 22.9531 -3.00215 23.3365L7.28434 16.5004H11.501V16.756L-1.59659 25.4448C-1.34104 25.7962 -1.05354 26.1156 -0.766035 26.4031L11.501 18.2893V28.0643C11.9163 28.1601 12.3316 28.2559 12.7788 28.3198V17.4268V15.8935V15.2227H-0.63825Z" fill="white" style="fill:white;fill-opacity:1;"/>
<path d="M31.3057 10.1106C31.2418 9.66338 31.146 9.2481 31.0501 8.83283H25.6841L32.9029 4.04116C32.7112 3.65783 32.5515 3.27449 32.3279 2.89116L23.3841 8.83283H19.1674V8.57727L31.8807 0.207814C31.6251 -0.143575 31.3376 -0.46302 31.0501 -0.75052L19.1674 7.04394V-2.98663C18.7521 -3.08247 18.3369 -3.1783 17.8896 -3.24219V7.90644V9.43977V10.1106H31.3057Z" fill="white" style="fill:white;fill-opacity:1;"/>
<path d="M17.8897 15.2227L17.8896 28.6393C18.3369 28.5754 18.7521 28.4795 19.1674 28.3837V18.2893L30.7946 25.7643C31.0821 25.4448 31.3696 25.1254 31.6251 24.8059L19.1674 16.756V16.5004H23.3841L32.0085 22.1226C32.2001 21.7393 32.3918 21.3559 32.5835 20.9726L25.6841 16.5004H31.0501C31.146 16.0852 31.2418 15.6699 31.3057 15.2227H17.8897Z" fill="white" style="fill:white;fill-opacity:1;"/>
<path d="M32.5837 2.76361C32.1684 2.02889 31.6892 1.29417 31.1781 0.655273L19.167 8.57753V8.83308H23.3837L32.5837 2.76361Z" fill="#F0263C" style="fill:#F0263C;fill:color(display-p3 0.9412 0.1490 0.2353);fill-opacity:1;"/>
<path d="M-2.04395 22.6972C-1.62867 23.4319 -1.1495 24.1667 -0.638387 24.8056L11.5005 16.7556V16.5H7.28384L-2.04395 22.6972Z" fill="#F0263C" style="fill:#F0263C;fill:color(display-p3 0.9412 0.1490 0.2353);fill-opacity:1;"/>
<path d="M19.167 16.5V16.7556L30.8587 24.3583C31.4017 23.6875 31.8489 22.9847 32.2642 22.25L23.3837 16.5H19.167Z" fill="#F0263C" style="fill:#F0263C;fill:color(display-p3 0.9412 0.1490 0.2353);fill-opacity:1;"/>
<path d="M30.9862 10.1108H17.889V9.44V7.90666V-2.98635C17.0584 -3.14607 16.1959 -3.20996 15.3334 -3.20996C14.4709 -3.20996 13.6084 -3.14607 12.7779 -2.98635V10.1108H-0.319358C-0.47908 10.9413 -0.542969 11.8038 -0.542969 12.6663C-0.542969 13.5288 -0.47908 14.3913 -0.319358 15.2219H12.7779L12.7778 28.3191C13.6084 28.4469 14.4709 28.5427 15.3334 28.5427C16.1959 28.5427 17.0584 28.4789 17.889 28.3191V15.2219H30.9862C31.114 14.3913 31.2098 13.5288 31.2098 12.6663C31.2098 11.8038 31.1459 10.9413 30.9862 10.1108Z" fill="#F0263C" style="fill:#F0263C;fill:color(display-p3 0.9412 0.1490 0.2353);fill-opacity:1;"/>
</g>
</g>
</g>
</g>
<defs>
<clipPath id="clip0_230_12265">
<rect width="64" height="64" rx="32" fill="white" style="fill:white;fill-opacity:1;"/>
</clipPath>
</defs>
</svg>
