<svg width="64" height="64" viewBox="0 0 64 64" fill="none" xmlns="http://www.w3.org/2000/svg">
<g clip-path="url(#clip0_230_12788)">
<mask id="mask0_230_12788" style="mask-type:luminance" maskUnits="userSpaceOnUse" x="0" y="0" width="64" height="64">
<path d="M64 0H0V64H64V0Z" fill="white" style="fill:white;fill-opacity:1;"/>
</mask>
<g mask="url(#mask0_230_12788)">
<path d="M0 31.9996C0 35.733 0.666667 39.333 1.8 42.6663H62.1333C63.3333 39.333 64 35.733 64 31.9996C64 28.2663 63.3333 24.6663 62.2 21.333H1.8C0.666667 24.6663 0 28.2663 0 31.9996Z" fill="#231D9A" style="fill:#231D9A;fill:color(display-p3 0.1373 0.1137 0.6039);fill-opacity:1;"/>
<path d="M1.80078 21.3333H62.1341C57.8008 8.93333 45.9341 0 32.0008 0C18.0674 0 6.20078 8.93333 1.80078 21.3333Z" fill="white" style="fill:white;fill-opacity:1;"/>
<path d="M62.2008 42.667H1.80078C6.20078 55.067 18.0674 64.0004 32.0008 64.0004C45.9341 64.0004 57.8008 55.067 62.2008 42.667Z" fill="#F0263C" style="fill:#F0263C;fill:color(display-p3 0.9412 0.1490 0.2353);fill-opacity:1;"/>
<path d="M6.66634 20H25.333L26.6663 33.3334L23.133 40.1334L15.9997 43.7334L8.86634 40.1334L5.33301 33.3334L6.66634 20Z" fill="#F0263C" style="fill:#F0263C;fill:color(display-p3 0.9412 0.1490 0.2353);fill-opacity:1;"/>
<path d="M25.3333 20.0004L26.6667 33.3337L23.1333 40.1337L16 43.7337L8.86667 40.2004L5.33333 33.3337L6.66667 20.0004H25.3333ZM26.5333 18.667H5.46667L4 33.6004L7.93333 41.1337L16 45.3337L24.0667 41.1337L28 33.6004L26.5333 18.667Z" fill="white" style="fill:white;fill-opacity:1;"/>
<path d="M24.6004 37.3334L23.1337 40.1334L16.0004 43.7334L8.86706 40.1334L7.40039 37.3334L10.6671 36H21.3337L24.6004 37.3334Z" fill="#231D9A" style="fill:#231D9A;fill:color(display-p3 0.1373 0.1137 0.6039);fill-opacity:1;"/>
<path d="M22.6663 29.333H17.333V26.6663H21.333V23.9996H17.333V21.333H14.6663V23.9996H10.6663V26.6663H14.6663V29.333H9.33301V31.9996H14.6663V35.9996H17.333V31.9996H22.6663V29.333Z" fill="white" style="fill:white;fill-opacity:1;"/>
</g>
</g>
<defs>
<clipPath id="clip0_230_12788">
<rect width="64" height="64" rx="32" fill="white" style="fill:white;fill-opacity:1;"/>
</clipPath>
</defs>
</svg>
