<svg width="64" height="64" viewBox="0 0 64 64" fill="none" xmlns="http://www.w3.org/2000/svg">
<g clip-path="url(#clip0_230_12633)">
<mask id="mask0_230_12633" style="mask-type:luminance" maskUnits="userSpaceOnUse" x="0" y="0" width="64" height="64">
<path d="M64 0H0V64H64V0Z" fill="white" style="fill:white;fill-opacity:1;"/>
</mask>
<g mask="url(#mask0_230_12633)">
<path d="M63.9994 32C63.9994 14.3333 49.6661 0 31.9994 0C23.1327 0 15.1994 3.6 9.39941 9.4L31.9994 32H63.9994Z" fill="#231D9A" style="fill:#231D9A;fill:color(display-p3 0.1373 0.1137 0.6039);fill-opacity:1;"/>
<path d="M31.9994 32L9.39941 54.6C15.1994 60.4 23.1327 64 31.9994 64C49.6661 64 63.9994 49.6667 63.9994 32H31.9994Z" fill="#F0263C" style="fill:#F0263C;fill:color(display-p3 0.9412 0.1490 0.2353);fill-opacity:1;"/>
<path d="M32 31.9995L9.4 9.39941C3.6 15.1328 0 23.1328 0 31.9995C0 40.8661 3.6 48.8661 9.4 54.5995L32 31.9995Z" fill="white" style="fill:white;fill-opacity:1;"/>
<path d="M26.7143 29.3135L24.0273 32.0004L26.7143 34.6874L29.4013 32.0004L26.7143 29.3135Z" fill="#FFD400" style="fill:#FFD400;fill:color(display-p3 1.0000 0.8314 0.0000);fill-opacity:1;"/>
<path d="M8.04831 13.3135L5.36133 16.0004L8.04831 18.6874L10.7353 16.0004L8.04831 13.3135Z" fill="#FFD400" style="fill:#FFD400;fill:color(display-p3 1.0000 0.8314 0.0000);fill-opacity:1;"/>
<path d="M8.04831 45.3135L5.36133 48.0005L8.04831 50.6875L10.7353 48.0005L8.04831 45.3135Z" fill="#FFD400" style="fill:#FFD400;fill:color(display-p3 1.0000 0.8314 0.0000);fill-opacity:1;"/>
<path d="M16.5346 29.3337L19.5346 26.3337L17.668 24.467L14.668 27.467C14.268 27.2004 13.8013 27.067 13.3346 26.9337V22.667H10.668V26.867C10.2013 27.0004 9.73464 27.2004 9.33464 27.4004L6.33464 24.4004L4.46797 26.267L7.4013 29.2004C7.13464 29.6004 6.93464 30.067 6.8013 30.5337H2.66797V31.867V33.2004H6.86797C7.0013 33.667 7.2013 34.1337 7.46797 34.6004L4.53464 37.5337L6.4013 39.4004L9.33464 36.467C9.73464 36.7337 10.2013 36.9337 10.7346 37.067V41.3337H13.4013V37.1337C13.868 37.0004 14.3346 36.8004 14.7346 36.5337L17.668 39.467L19.5346 37.6004L16.6013 34.667C16.868 34.267 17.0013 33.8004 17.1346 33.3337H21.3346V32.0004V30.667H17.1346C17.0013 30.2004 16.8013 29.7337 16.5346 29.3337Z" fill="#FFD400" style="fill:#FFD400;fill:color(display-p3 1.0000 0.8314 0.0000);fill-opacity:1;"/>
</g>
</g>
<defs>
<clipPath id="clip0_230_12633">
<rect width="64" height="64" rx="32" fill="white" style="fill:white;fill-opacity:1;"/>
</clipPath>
</defs>
</svg>
