<svg width="64" height="64" viewBox="0 0 64 64" fill="none" xmlns="http://www.w3.org/2000/svg">
<g clip-path="url(#clip0_230_13011)">
<mask id="mask0_230_13011" style="mask-type:luminance" maskUnits="userSpaceOnUse" x="0" y="0" width="64" height="64">
<path d="M64 0H0V64H64V0Z" fill="white" style="fill:white;fill-opacity:1;"/>
</mask>
<g mask="url(#mask0_230_13011)">
<path d="M1.8 42.6663C0.666667 39.333 0 35.733 0 31.9996C0 28.2663 0.666667 24.6663 1.8 21.333" fill="white" style="fill:white;fill-opacity:1;"/>
<path d="M1.80078 21.3333C6.20078 8.93333 18.0674 0 32.0008 0L1.80078 21.3333Z" fill="#F0263C" style="fill:#F0263C;fill:color(display-p3 0.9412 0.1490 0.2353);fill-opacity:1;"/>
<path d="M32.0008 64.0004C18.0674 64.0004 6.20078 55.067 1.80078 42.667L32.0008 64.0004Z" fill="#005B13" style="fill:#005B13;fill:color(display-p3 0.0000 0.3569 0.0745);fill-opacity:1;"/>
<path d="M0 31.9996C0 35.733 0.666667 39.333 1.8 42.6663H62.1333C63.3333 39.333 64 35.733 64 31.9996C64 28.2663 63.3333 24.6663 62.2 21.333H1.8C0.666667 24.6663 0 28.2663 0 31.9996Z" fill="white" style="fill:white;fill-opacity:1;"/>
<path d="M1.80078 21.3333H62.1341C57.8008 8.93333 45.9341 0 32.0008 0C18.0674 0 6.20078 8.93333 1.80078 21.3333Z" fill="#F0263C" style="fill:#F0263C;fill:color(display-p3 0.9412 0.1490 0.2353);fill-opacity:1;"/>
<path d="M62.2008 42.667H1.80078C6.20078 55.067 18.0674 64.0004 32.0008 64.0004C45.9341 64.0004 57.8008 55.067 62.2008 42.667Z" fill="#231D9A" style="fill:#231D9A;fill:color(display-p3 0.1373 0.1137 0.6039);fill-opacity:1;"/>
</g>
</g>
<defs>
<clipPath id="clip0_230_13011">
<rect width="64" height="64" rx="32" fill="white" style="fill:white;fill-opacity:1;"/>
</clipPath>
</defs>
</svg>
