<svg width="64" height="64" viewBox="0 0 64 64" fill="none" xmlns="http://www.w3.org/2000/svg">
<g clip-path="url(#clip0_230_12425)">
<mask id="mask0_230_12425" style="mask-type:luminance" maskUnits="userSpaceOnUse" x="0" y="0" width="64" height="64">
<path d="M64 0H0V64H64V0Z" fill="white" style="fill:white;fill-opacity:1;"/>
</mask>
<g mask="url(#mask0_230_12425)">
<path d="M63.9997 32C63.9997 14.3333 49.6663 0 31.9997 0C28.2663 0 24.6663 0.666667 21.333 1.8V62.1333C24.6663 63.3333 28.2663 64 31.9997 64C49.6663 64 63.9997 49.6667 63.9997 32Z" fill="#F0263C" style="fill:#F0263C;fill:color(display-p3 0.9412 0.1490 0.2353);fill-opacity:1;"/>
<path d="M0 31.9998C0 45.9332 8.93333 57.7999 21.3333 62.1999V1.7998C8.93333 6.1998 0 18.0665 0 31.9998Z" fill="#005B13" style="fill:#005B13;fill:color(display-p3 0.0000 0.3569 0.0745);fill-opacity:1;"/>
<path d="M17.0664 34.9336C17.1331 35.0002 17.1997 35.1336 17.2664 35.2002C17.1997 35.0669 17.1331 35.0002 17.0664 34.9336Z" fill="#FFD400" style="fill:#FFD400;fill:color(display-p3 1.0000 0.8314 0.0000);fill-opacity:1;"/>
<path d="M25.3994 35.2002C25.4661 35.1336 25.5327 35.0002 25.5994 34.9336C25.5327 35.0002 25.4661 35.0669 25.3994 35.2002Z" fill="#FFD400" style="fill:#FFD400;fill:color(display-p3 1.0000 0.8314 0.0000);fill-opacity:1;"/>
<path d="M21.333 18.667C14.733 18.667 9.33301 24.067 9.33301 30.667C9.33301 37.267 14.733 42.667 21.333 42.667C27.933 42.667 33.333 37.267 33.333 30.667C33.333 24.067 27.933 18.667 21.333 18.667ZM30.533 32.0003L29.2663 32.667C29.1997 33.267 29.0663 33.8003 28.8663 34.4003L31.7997 32.9336C31.533 34.1336 31.0663 35.267 30.4663 36.267L28.7997 34.6003C28.6663 35.067 28.4663 35.467 28.1997 35.867L29.2663 36.9336L27.2663 37.2003C26.733 37.867 26.133 38.4003 25.4663 38.8003L28.8663 38.3336C26.9997 40.0003 24.6663 41.1336 21.9997 41.267V39.9336C21.7997 39.9336 21.533 40.0003 21.333 40.0003C21.133 40.0003 20.8663 40.0003 20.6663 39.9336V41.267C17.9997 41.1336 15.6663 40.0003 13.8663 38.267L17.2663 38.7336C16.5997 38.267 15.9997 37.7336 15.4663 37.1336L13.4663 36.867L14.533 35.8003C14.333 35.4003 14.133 34.9336 13.933 34.5336L12.2663 36.2003C11.6663 35.2003 11.1997 34.067 10.933 32.867L13.8663 34.3336C13.6663 33.8003 13.533 33.2003 13.4663 32.6003L12.1997 31.9336L13.3997 31.3336C13.3997 31.267 13.3997 31.267 13.3997 31.2003V30.667V29.9336L10.733 31.267C10.733 31.067 10.733 30.867 10.733 30.667C10.733 29.667 10.8663 28.667 11.133 27.7336L13.3997 29.267V27.667L12.2663 26.867L13.3997 26.467V25.3336V25.067L12.0663 25.5336C12.4663 24.867 12.8663 24.2003 13.3997 23.667V22.667H14.3997C16.133 21.1336 18.333 20.2003 20.733 20.067V22.667H21.3997H22.0663V20.067C24.4663 20.2003 26.733 21.2003 28.3997 22.667H29.333V23.6003C29.8663 24.2003 30.2663 24.8003 30.6663 25.467L29.333 25.0003V25.3336V26.467L30.4663 26.867L29.333 27.667V29.267L31.5997 27.7336C31.8663 28.667 31.9997 29.667 31.9997 30.667C31.9997 30.867 31.9997 31.067 31.9997 31.267L29.333 29.9336V30.667V31.267C29.333 31.3336 29.333 31.3336 29.333 31.4003L30.533 32.0003Z" fill="#FFD400" style="fill:#FFD400;fill:color(display-p3 1.0000 0.8314 0.0000);fill-opacity:1;"/>
<path d="M26.6 31.9997H24V29.333H26.6667V25.333H22.6667V27.9997H20V25.333H16V29.333H18.6667V31.9997H16.0667C16.0667 32.1997 16.1333 32.4663 16.2 32.6663V32.733C16.4 33.533 16.6667 34.2663 17.1333 34.8663C17.2 34.933 17.2667 35.0663 17.3333 35.133C17.6667 35.5997 18 35.933 18.4667 36.2663C18.7333 36.4663 19 36.5997 19.2667 36.733C19.4667 36.8663 19.7333 36.933 19.9333 36.9997C20.2 37.0663 20.4667 37.133 20.7333 37.1997C20.9333 37.1997 21.1333 37.2663 21.4 37.2663C21.8667 37.2663 22.2667 37.1997 22.6667 37.0663C23.0667 36.933 23.4667 36.7997 23.8 36.5997C24 36.4663 24.1333 36.3997 24.3333 36.2663C24.7333 35.933 25.1333 35.533 25.4667 35.133C25.5333 35.0663 25.6 34.933 25.6667 34.8663C26.0667 34.1997 26.4 33.533 26.6 32.733V32.6663C26.5333 32.4663 26.6 32.1997 26.6 31.9997ZM20 29.333H22.6667V31.9997H20V29.333ZM22.6667 35.9997H20V33.333H22.6667V35.9997Z" fill="white" style="fill:white;fill-opacity:1;"/>
<path d="M17.3333 24.0004L16 25.3337H20H21.3333L20 24.0004L21.3333 22.667H20.6667H16L17.3333 24.0004Z" fill="#F0263C" style="fill:#F0263C;fill:color(display-p3 0.9412 0.1490 0.2353);fill-opacity:1;"/>
<path d="M27.9993 24.0004L26.666 25.3337V29.3337V30.667L27.9993 29.3337L29.3327 30.667V29.9337V29.267V27.667V26.467V25.3337V25.067V23.6004V22.667H28.3327H26.666L27.9993 24.0004Z" fill="#F0263C" style="fill:#F0263C;fill:color(display-p3 0.9412 0.1490 0.2353);fill-opacity:1;"/>
<path d="M22.6663 24.0004L21.333 25.3337H22.6663H26.6663L25.333 24.0004L26.6663 22.667H21.9997H21.333L22.6663 24.0004Z" fill="#F0263C" style="fill:#F0263C;fill:color(display-p3 0.9412 0.1490 0.2353);fill-opacity:1;"/>
<path d="M15.9997 30.667V29.3337V25.3337L14.6663 24.0004L15.9997 22.667H14.333H13.333V23.6004V25.067V25.3337V26.467V27.667V29.267V29.9337V30.667L14.6663 29.3337L15.9997 30.667Z" fill="#F0263C" style="fill:#F0263C;fill:color(display-p3 0.9412 0.1490 0.2353);fill-opacity:1;"/>
<path d="M29.333 30.667L27.9997 32.0004L26.6663 30.667V31.267V32.0004H26.5997C26.5997 32.2004 26.533 32.467 26.4663 32.667V32.7337C26.2663 33.5337 25.9997 34.267 25.533 34.867C25.4663 34.9337 25.3997 35.067 25.333 35.1337C24.9997 35.6004 24.6663 35.9337 24.1997 36.267C23.9997 36.4004 23.8663 36.5337 23.6663 36.6004C23.333 36.8004 22.933 37.0004 22.533 37.067C22.1997 37.267 21.7997 37.3337 21.333 37.3337C21.133 37.3337 20.933 37.3337 20.6663 37.267C20.3997 37.2004 20.133 37.1337 19.8663 37.067C19.6663 37.0004 19.3997 36.867 19.1997 36.8004C18.933 36.667 18.6663 36.467 18.3997 36.3337C17.9997 36.0004 17.5997 35.6004 17.2663 35.2004C17.1997 35.1337 17.133 35.0004 17.0663 34.9337C16.6663 34.267 16.333 33.6004 16.133 32.8004V32.7337C16.0663 32.5337 16.0663 32.267 15.9997 32.067V31.3337V30.667L14.6663 32.0004L13.333 30.667V31.267C13.333 31.3337 13.333 31.3337 13.333 31.4004C13.333 31.8004 13.3997 32.2004 13.3997 32.6004C13.4663 33.2004 13.5997 33.7337 13.7997 34.3337C13.7997 34.4004 13.7997 34.467 13.8663 34.467C13.9997 34.9337 14.1997 35.3337 14.4663 35.7337C14.5997 35.9337 14.733 36.1337 14.8663 36.3337C15.0663 36.6004 15.2663 36.867 15.4663 37.067C15.9997 37.7337 16.5997 38.267 17.2663 38.667C18.2663 39.3337 19.4663 39.7337 20.6663 39.867C20.8663 39.867 21.133 39.9337 21.333 39.9337C21.533 39.9337 21.7997 39.9337 21.9997 39.867C23.1997 39.7337 24.3997 39.3337 25.3997 38.667C26.0663 38.2004 26.6663 37.667 27.1997 37.067C27.3997 36.8004 27.5997 36.6004 27.7997 36.3337C27.933 36.1337 28.0663 35.9337 28.1997 35.7337C28.3997 35.3337 28.5997 34.867 28.7997 34.467C28.7997 34.4004 28.8663 34.3337 28.8663 34.3337C29.0663 33.8004 29.1997 33.2004 29.2663 32.6004C29.333 32.2004 29.333 31.8004 29.333 31.4004C29.333 31.3337 29.333 31.3337 29.333 31.267V30.667ZM17.333 38.0004L18.6663 36.667L19.9997 38.0004L18.6663 39.3337L17.333 38.0004ZM25.333 38.0004L23.9997 39.3337L22.6663 38.0004L23.9997 36.667L25.333 38.0004Z" fill="#F0263C" style="fill:#F0263C;fill:color(display-p3 0.9412 0.1490 0.2353);fill-opacity:1;"/>
<path d="M22.6667 27.9997V25.333H21.3333H20V27.9997H22.6667Z" fill="#231D9A" style="fill:#231D9A;fill:color(display-p3 0.1373 0.1137 0.6039);fill-opacity:1;"/>
<path d="M22.6667 29.333H20V31.9997H22.6667V29.333Z" fill="#231D9A" style="fill:#231D9A;fill:color(display-p3 0.1373 0.1137 0.6039);fill-opacity:1;"/>
<path d="M18.6667 31.9997V29.333H16V30.6663V31.2663V31.9997H16.0667H18.6667Z" fill="#231D9A" style="fill:#231D9A;fill:color(display-p3 0.1373 0.1137 0.6039);fill-opacity:1;"/>
<path d="M26.6667 29.333H24V31.9997H26.6H26.6667V31.2663V30.6663V29.333Z" fill="#231D9A" style="fill:#231D9A;fill:color(display-p3 0.1373 0.1137 0.6039);fill-opacity:1;"/>
<path d="M22.6667 33.333H20V35.9997H22.6667V33.333Z" fill="#231D9A" style="fill:#231D9A;fill:color(display-p3 0.1373 0.1137 0.6039);fill-opacity:1;"/>
<path d="M21.3326 22.6797L20.0127 23.9997L21.3326 25.3196L22.6525 23.9997L21.3326 22.6797Z" fill="#FFD400" style="fill:#FFD400;fill:color(display-p3 1.0000 0.8314 0.0000);fill-opacity:1;"/>
<path d="M15.9996 22.6797L14.6797 23.9996L15.9996 25.3195L17.3195 23.9996L15.9996 22.6797Z" fill="#FFD400" style="fill:#FFD400;fill:color(display-p3 1.0000 0.8314 0.0000);fill-opacity:1;"/>
<path d="M14.6656 29.3467L13.3457 30.6666L14.6656 31.9865L15.9855 30.6666L14.6656 29.3467Z" fill="#FFD400" style="fill:#FFD400;fill:color(display-p3 1.0000 0.8314 0.0000);fill-opacity:1;"/>
<path d="M18.6656 36.6797L17.3457 37.9996L18.6656 39.3195L19.9855 37.9996L18.6656 36.6797Z" fill="#FFD400" style="fill:#FFD400;fill:color(display-p3 1.0000 0.8314 0.0000);fill-opacity:1;"/>
<path d="M23.9996 36.6797L22.6797 37.9996L23.9996 39.3195L25.3195 37.9996L23.9996 36.6797Z" fill="#FFD400" style="fill:#FFD400;fill:color(display-p3 1.0000 0.8314 0.0000);fill-opacity:1;"/>
<path d="M27.9996 29.3467L26.6797 30.6666L27.9996 31.9865L29.3195 30.6666L27.9996 29.3467Z" fill="#FFD400" style="fill:#FFD400;fill:color(display-p3 1.0000 0.8314 0.0000);fill-opacity:1;"/>
<path d="M26.6656 22.6797L25.3457 23.9997L26.6656 25.3196L27.9855 23.9997L26.6656 22.6797Z" fill="#FFD400" style="fill:#FFD400;fill:color(display-p3 1.0000 0.8314 0.0000);fill-opacity:1;"/>
</g>
</g>
<defs>
<clipPath id="clip0_230_12425">
<rect width="64" height="64" rx="32" fill="white" style="fill:white;fill-opacity:1;"/>
</clipPath>
</defs>
</svg>
