<svg width="64" height="64" viewBox="0 0 64 64" fill="none" xmlns="http://www.w3.org/2000/svg">
<g clip-path="url(#clip0_230_12255)">
<mask id="mask0_230_12255" style="mask-type:luminance" maskUnits="userSpaceOnUse" x="0" y="0" width="64" height="64">
<path d="M64 0H0V64H64V0Z" fill="white" style="fill:white;fill-opacity:1;"/>
</mask>
<g mask="url(#mask0_230_12255)">
<path d="M32 64C49.6731 64 64 49.6731 64 32C64 14.3269 49.6731 0 32 0C14.3269 0 0 14.3269 0 32C0 49.6731 14.3269 64 32 64Z" fill="white" style="fill:white;fill-opacity:1;"/>
<path d="M18.6667 31.9996H48L18.8667 2.86621C17.8667 3.33288 16.9333 3.79955 16 4.33288C15.0667 4.86621 14.2 5.46621 13.3333 6.06621C5.26667 11.7996 0 21.2662 0 31.9996C0 42.7329 5.26667 52.1996 13.3333 57.9996C14.2 58.5996 15.0667 59.1996 16 59.7329C17.0667 60.3329 18.1333 60.8662 19.2 61.3329C23.1333 63.0662 27.4667 63.9996 32 63.9996C36.5333 63.9996 40.8667 63.0662 44.8 61.3329C45.5333 60.9996 46.2667 60.6662 46.9333 60.2662L18.6667 31.9996Z" fill="#F0263C" style="fill:#F0263C;fill:color(display-p3 0.9412 0.1490 0.2353);fill-opacity:1;"/>
<path d="M54.467 34.6668L21.5337 1.7334C20.6003 2.06674 19.7337 2.40007 18.867 2.80007L48.0003 32.0001H18.667L46.9337 60.2668C47.7337 59.8668 48.5337 59.4001 49.3337 58.8668L25.1337 34.6668H54.467Z" fill="#231D9A" style="fill:#231D9A;fill:color(display-p3 0.1373 0.1137 0.6039);fill-opacity:1;"/>
<path d="M23.7333 16.6667C23.1333 18.9333 21.6 20.8 19.5333 21.8C19.8667 21.2667 20 20.6667 20 20C20 17.8 18.2 16 16 16C13.8 16 12 17.8 12 20C12 20.6667 12.1333 21.2667 12.4667 21.8C10.4 20.8 8.86667 18.9333 8.26667 16.6667C8.13333 17.3333 8 18 8 18.6667C8 23.0667 11.6 26.6667 16 26.6667C20.4 26.6667 24 23.0667 24 18.6667C24 18 23.9333 17.3333 23.7333 16.6667Z" fill="white" style="fill:white;fill-opacity:1;"/>
<path d="M16.3331 38.667L17.8893 41.3914L20.8326 40.3047L20.2735 43.392L23.2268 44.4515L20.814 46.4571L22.3953 49.167L19.2578 49.1526L18.7272 52.2449L16.3331 50.217L13.939 52.2449L13.4084 49.1526L10.2709 49.167L11.8522 46.4571L9.43945 44.4515L12.3927 43.392L11.8336 40.3047L14.7769 41.3914L16.3331 38.667Z" fill="white" style="fill:white;fill-opacity:1;"/>
</g>
</g>
<defs>
<clipPath id="clip0_230_12255">
<rect width="64" height="64" rx="32" fill="white" style="fill:white;fill-opacity:1;"/>
</clipPath>
</defs>
</svg>
