<svg width="64" height="64" viewBox="0 0 64 64" fill="none" xmlns="http://www.w3.org/2000/svg">
<g clip-path="url(#clip0_230_11980)">
<mask id="mask0_230_11980" style="mask-type:luminance" maskUnits="userSpaceOnUse" x="0" y="0" width="64" height="64">
<path d="M64 0H0V64H64V0Z" fill="white" style="fill:white;fill-opacity:1;"/>
</mask>
<g mask="url(#mask0_230_11980)">
<path d="M64 32C64 49.6667 49.6667 64 32 64C14.3333 64 0 49.6667 0 32H64Z" fill="#F0263C" style="fill:#F0263C;fill:color(display-p3 0.9412 0.1490 0.2353);fill-opacity:1;"/>
<path d="M64 32C64 14.3333 49.6667 0 32 0V32H64Z" fill="white" style="fill:white;fill-opacity:1;"/>
<path d="M32 0C14.3333 0 0 14.3333 0 32H32V0Z" fill="#231D9A" style="fill:#231D9A;fill:color(display-p3 0.1373 0.1137 0.6039);fill-opacity:1;"/>
<path d="M18.8003 20.0007L23.3337 16.6673H17.7337L16.0003 11.334L14.267 16.6673H8.66699L13.2003 20.0007L11.3337 25.334L16.0003 22.0007L20.667 25.334L18.8003 20.0007Z" fill="white" style="fill:white;fill-opacity:1;"/>
</g>
</g>
<defs>
<clipPath id="clip0_230_11980">
<rect width="64" height="64" rx="32" fill="white" style="fill:white;fill-opacity:1;"/>
</clipPath>
</defs>
</svg>
