<svg width="64" height="64" viewBox="0 0 64 64" fill="none" xmlns="http://www.w3.org/2000/svg">
<g clip-path="url(#clip0_230_12348)">
<mask id="mask0_230_12348" style="mask-type:luminance" maskUnits="userSpaceOnUse" x="0" y="0" width="64" height="64">
<path d="M64 0H0V64H64V0Z" fill="white" style="fill:white;fill-opacity:1;"/>
</mask>
<g mask="url(#mask0_230_12348)">
<path d="M32 64C49.6731 64 64 49.6731 64 32C64 14.3269 49.6731 0 32 0C14.3269 0 0 14.3269 0 32C0 49.6731 14.3269 64 32 64Z" fill="#005B13" style="fill:#005B13;fill:color(display-p3 0.0000 0.3569 0.0745);fill-opacity:1;"/>
<path d="M54.6663 17.334V25.334L53.333 24.0007V17.334H51.9997V22.6673L50.6663 21.334V17.334H49.333V20.0007L46.6663 17.334V18.6673V20.0007L47.9997 21.334L49.333 22.6673V26.6673L47.9997 29.334L46.6663 28.0007H45.333V29.334L43.9997 30.6673L42.6663 29.334H41.333L42.6663 32.0007H43.9997H45.333L46.6663 30.6673H49.333L50.6663 28.0007V24.0007L51.9997 25.334V29.334L53.333 26.6673L54.6663 28.0007L51.9997 30.6673V32.0007H53.333L55.9997 29.334V17.334H54.6663Z" fill="white" style="fill:white;fill-opacity:1;"/>
<path d="M10.6667 22.6673L12 24.0007V26.6673H13.3333V24.0007L14.6667 22.6673H16V17.334H14.6667V20.6673V21.334H13.3333V17.334H12V21.334H10.6667V18.6673H9.33333V21.334H8V24.0007H9.33333L10.6667 22.6673Z" fill="white" style="fill:white;fill-opacity:1;"/>
<path d="M17.3337 30.6673L18.667 29.334V26.6673V25.334H22.667V24.0007H18.667V17.334H17.3337V24.0007H14.667V26.6673H15.7337L14.667 28.0007H13.3337V29.334H14.667L16.0003 28.0007L17.1337 26.6673H17.3337V28.0007L14.667 30.6673H13.3337L12.0003 29.334V28.0007H10.667V30.6673L12.0003 32.0007H16.0003L17.3337 30.6673Z" fill="white" style="fill:white;fill-opacity:1;"/>
<path d="M21.3333 26.666H20V27.9993H21.3333V26.666Z" fill="white" style="fill:white;fill-opacity:1;"/>
<path d="M22.6667 18.6673V17.334H21.3333V18.6673L20 20.0007V21.334L21.3333 20.0007L22.6667 18.6673Z" fill="white" style="fill:white;fill-opacity:1;"/>
<path d="M22.6663 21.334H21.333V22.6673H22.6663V21.334Z" fill="white" style="fill:white;fill-opacity:1;"/>
<path d="M9.33333 29.334H8V30.6673L9.33333 32.0007H10.6667L9.33333 30.6673V29.334Z" fill="white" style="fill:white;fill-opacity:1;"/>
<path d="M33.3333 17.334H32V20.0007V21.334L30.6667 20.0007V17.334H29.3333V20.0007L28 21.334V18.6673L26.6667 17.334L25.3333 21.334V18.6673H24V21.334L25.3333 22.6673L26.6667 21.334L28 22.6673H29.3333V21.334H30.6667V22.6673H32L33.3333 21.334V17.334Z" fill="white" style="fill:white;fill-opacity:1;"/>
<path d="M34.6663 31.9993H35.9997V30.666H33.333L34.6663 31.9993Z" fill="white" style="fill:white;fill-opacity:1;"/>
<path d="M41.3337 17.334H40.0003V25.334L38.667 22.6673L37.3337 20.0007V17.334H36.0003V18.6673L34.667 17.334V20.0007L36.0003 21.334V25.334V26.6673H32.0003L33.3337 25.334L34.667 24.0007L33.3337 22.6673H32.0003V24.0007L30.667 25.334L29.3337 26.6673V28.0007H32.0003L30.667 29.334V30.6673L28.0003 28.0007V24.0007H26.667V26.6673V28.0007L24.0003 30.6673H22.667L24.0003 29.334L25.3337 28.0007V25.334V24.0007H24.0003V28.0007H22.667L18.667 30.6673V32.0007H20.0003L21.3337 30.6673L22.667 32.0007H25.3337L28.0003 29.334V30.6673L29.3337 32.0007H30.667H32.0003V29.334L36.0003 28.0007V30.6673L37.3337 29.334V22.6673L40.0003 28.0007L38.667 30.6673H37.3337L38.667 32.0007H40.0003L41.3337 29.334V17.334Z" fill="white" style="fill:white;fill-opacity:1;"/>
<path d="M44.0003 17.334H42.667V28.0007H44.0003V17.334Z" fill="white" style="fill:white;fill-opacity:1;"/>
<path d="M45.333 22.6673H46.6663L47.9997 21.334H45.333V22.6673Z" fill="white" style="fill:white;fill-opacity:1;"/>
<path d="M47.9997 24H45.333V25.3333H46.6663L47.9997 24Z" fill="white" style="fill:white;fill-opacity:1;"/>
<path d="M48 42.666H46.6667V43.9993H12L16 46.666H46.6667V47.9993H48V46.666H49.3333L50.6667 47.9993H52V43.9993H48V42.666Z" fill="white" style="fill:white;fill-opacity:1;"/>
<path d="M9.33333 25.334L8 26.6673V28.0007L10.6667 25.334H9.33333Z" fill="white" style="fill:white;fill-opacity:1;"/>
</g>
</g>
<defs>
<clipPath id="clip0_230_12348">
<rect width="64" height="64" rx="32" fill="white" style="fill:white;fill-opacity:1;"/>
</clipPath>
</defs>
</svg>
