<svg width="64" height="64" viewBox="0 0 64 64" fill="none" xmlns="http://www.w3.org/2000/svg">
<g clip-path="url(#clip0_230_12543)">
<mask id="mask0_230_12543" style="mask-type:luminance" maskUnits="userSpaceOnUse" x="0" y="0" width="64" height="64">
<path d="M64 0H0V64H64V0Z" fill="white" style="fill:white;fill-opacity:1;"/>
</mask>
<g mask="url(#mask0_230_12543)">
<path d="M42.6665 1.7998V62.1331C55.0665 57.7998 63.9998 45.9331 63.9998 31.9998C63.9998 18.0665 55.0665 6.1998 42.6665 1.7998Z" fill="#F0263C" style="fill:#F0263C;fill:color(display-p3 0.9412 0.1490 0.2353);fill-opacity:1;"/>
<path d="M21.3333 62.1998V1.7998C8.93333 6.1998 0 18.0665 0 31.9998C0 45.9331 8.93333 57.7998 21.3333 62.1998Z" fill="#F0263C" style="fill:#F0263C;fill:color(display-p3 0.9412 0.1490 0.2353);fill-opacity:1;"/>
<path d="M42.6668 1.8C39.3335 0.666667 35.7335 0 32.0002 0C28.2668 0 24.6668 0.666667 21.3335 1.8V62.1333C24.6668 63.3333 28.2668 64 32.0002 64C35.7335 64 39.3335 63.3333 42.6668 62.2V1.8Z" fill="white" style="fill:white;fill-opacity:1;"/>
<path d="M37.0011 32.0207V30.7707V27.0205L35.7511 25.833L34.5011 27.0205H32.001V32.0207H37.0011ZM33.251 28.2706H35.7511V30.7707H33.251V28.2706Z" fill="#FFD400" style="fill:#FFD400;fill:color(display-p3 1.0000 0.8314 0.0000);fill-opacity:1;"/>
<path d="M26.9995 32.0207H31.9997V27.0205H29.4996L28.2495 25.7705L26.9995 27.0205V30.7707V32.0207ZM28.2495 28.2706H30.7496V30.7707H28.2495V28.2706Z" fill="#78C9FF" style="fill:#78C9FF;fill:color(display-p3 0.4706 0.7882 1.0000);fill-opacity:1;"/>
<path d="M35.7506 28.2715H33.2505V30.7716H35.7506V28.2715Z" fill="white" style="fill:white;fill-opacity:1;"/>
<path d="M30.7511 28.2715H28.251V30.7716H30.7511V28.2715Z" fill="white" style="fill:white;fill-opacity:1;"/>
<path d="M31.9997 32.0215H26.9995V35.1466C26.9995 36.3966 28.062 37.0216 29.1871 37.0216C29.3121 37.0216 30.7496 37.0216 30.7496 37.0216L31.9997 38.2717L33.2497 37.0216C33.2497 37.0216 34.6872 37.0216 34.8122 37.0216C35.9373 37.0216 36.9998 36.3966 36.9998 35.1466V32.0215H31.9997ZM33.2497 35.7716H28.2495V33.2715H35.7498L33.2497 35.7716Z" fill="#F0263C" style="fill:#F0263C;fill:color(display-p3 0.9412 0.1490 0.2353);fill-opacity:1;"/>
<path d="M28.251 35.7716H33.2511L35.7512 33.2715H28.251V35.7716Z" fill="#FFD400" style="fill:#FFD400;fill:color(display-p3 1.0000 0.8314 0.0000);fill-opacity:1;"/>
<path d="M29.5005 39.5215V40.7715V42.0216H30.688L32.0006 40.7715L33.2506 42.0216H34.5006V40.7715V39.5215H29.5005Z" fill="#F0263C" style="fill:#F0263C;fill:color(display-p3 0.9412 0.1490 0.2353);fill-opacity:1;"/>
<path d="M25.7501 38.271L24.5001 37.0209L25.7501 34.5208H24.5001L25.7501 30.7707H24.5001L25.7501 28.2707H24.5001V27.0206L25.7501 23.2705L23.25 24.5205V28.2707L22 27.0206V29.5207L23.25 33.2708H22L23.25 35.7709H22L23.25 38.271L25.7501 40.771H29.5002L27.0002 39.521L25.7501 38.271Z" fill="#005B13" style="fill:#005B13;fill:color(display-p3 0.0000 0.3569 0.0745);fill-opacity:1;"/>
<path d="M41.9997 27.0206L40.7497 28.2707V24.5205L38.2496 23.2705L39.4997 27.0206V28.2707H38.2496L39.4997 30.7707H38.2496L39.4997 34.5208H38.2496L39.4997 37.0209L38.2496 38.271L36.9996 39.521L34.4995 40.771H38.2496L40.7497 38.271L41.9997 35.7709H40.7497L41.9997 33.2708H40.7497L41.9997 29.5207V27.0206Z" fill="#005B13" style="fill:#005B13;fill:color(display-p3 0.0000 0.3569 0.0745);fill-opacity:1;"/>
<path d="M32.001 27.0206C30.8135 27.0206 29.8135 26.0206 29.8135 24.8331C29.8135 23.6455 30.8135 22.6455 32.001 22.6455C33.1886 22.6455 34.1886 23.6455 34.1886 24.8331C34.1886 26.0206 33.1886 27.0206 32.001 27.0206ZM32.001 23.8955C31.501 23.8955 31.0635 24.3331 31.0635 24.8331C31.0635 25.3331 31.501 25.7706 32.001 25.7706C32.5011 25.7706 32.9386 25.3331 32.9386 24.8331C32.9386 24.3331 32.5011 23.8955 32.001 23.8955Z" fill="#FFD400" style="fill:#FFD400;fill:color(display-p3 1.0000 0.8314 0.0000);fill-opacity:1;"/>
</g>
</g>
<defs>
<clipPath id="clip0_230_12543">
<rect width="64" height="64" rx="32" fill="white" style="fill:white;fill-opacity:1;"/>
</clipPath>
</defs>
</svg>
