<svg width="64" height="64" viewBox="0 0 64 64" fill="none" xmlns="http://www.w3.org/2000/svg">
<g clip-path="url(#clip0_230_12157)">
<mask id="mask0_230_12157" style="mask-type:luminance" maskUnits="userSpaceOnUse" x="0" y="0" width="64" height="64">
<path d="M64 0H0V64H64V0Z" fill="white" style="fill:white;fill-opacity:1;"/>
</mask>
<g mask="url(#mask0_230_12157)">
<path d="M49.6667 5.33333C44.6 1.93333 38.5333 0 32 0V5.33333H49.6667Z" fill="#F0263C" style="fill:#F0263C;fill:color(display-p3 0.9412 0.1490 0.2353);fill-opacity:1;"/>
<path d="M49.6667 5.33301H32V10.6664H55.8667C54 8.66635 51.9333 6.86635 49.6667 5.33301Z" fill="white" style="fill:white;fill-opacity:1;"/>
<path d="M32 16.0004H59.7333C58.6 14.067 57.3333 12.3337 55.8667 10.667H32V16.0004Z" fill="#F0263C" style="fill:#F0263C;fill:color(display-p3 0.9412 0.1490 0.2353);fill-opacity:1;"/>
<path d="M32 21.3333H62.2C61.5333 19.4667 60.7333 17.6667 59.7333 16H32V21.3333Z" fill="white" style="fill:white;fill-opacity:1;"/>
<path d="M32 26.6663H63.5333C63.2 24.7996 62.7333 23.0663 62.1333 21.333H32V26.6663Z" fill="#F0263C" style="fill:#F0263C;fill:color(display-p3 0.9412 0.1490 0.2353);fill-opacity:1;"/>
<path d="M32 32.0004H64C64 30.2004 63.8667 28.4004 63.5333 26.667H32V32.0004Z" fill="white" style="fill:white;fill-opacity:1;"/>
<path d="M0 32C0 33.8 0.133333 35.6 0.466667 37.3333H63.5333C63.8 35.6 64 33.8 64 32H32H0Z" fill="#F0263C" style="fill:#F0263C;fill:color(display-p3 0.9412 0.1490 0.2353);fill-opacity:1;"/>
<path d="M1.80013 42.6663H62.1335C62.7335 40.933 63.2001 39.1996 63.5335 37.333H0.466797C0.733464 39.1996 1.20013 40.933 1.80013 42.6663Z" fill="white" style="fill:white;fill-opacity:1;"/>
<path d="M4.26745 48.0004H59.6674C60.6674 46.3337 61.4674 44.5337 62.1341 42.667H1.80078C2.46745 44.5337 3.33411 46.3337 4.26745 48.0004Z" fill="#F0263C" style="fill:#F0263C;fill:color(display-p3 0.9412 0.1490 0.2353);fill-opacity:1;"/>
<path d="M8.13327 53.3333H55.7999C57.2666 51.6667 58.5333 49.9333 59.6666 48H4.2666C5.39993 49.9333 6.6666 51.6667 8.13327 53.3333Z" fill="white" style="fill:white;fill-opacity:1;"/>
<path d="M14.3338 58.6663H49.7338C52.0005 57.133 54.0671 55.333 55.8671 53.333H8.13379C10.0005 55.333 12.0671 57.133 14.3338 58.6663Z" fill="#F0263C" style="fill:#F0263C;fill:color(display-p3 0.9412 0.1490 0.2353);fill-opacity:1;"/>
<path d="M14.333 58.667C19.3997 62.067 25.4663 64.0004 31.9997 64.0004C38.533 64.0004 44.5997 62.067 49.6663 58.667H14.333Z" fill="white" style="fill:white;fill-opacity:1;"/>
<path d="M14.3333 5.33333C12.0667 6.86667 10 8.66667 8.2 10.6667C6.73333 12.3333 5.46667 14.0667 4.33333 16C3.33333 17.6667 2.53333 19.4667 1.86667 21.3333C1.26667 23.0667 0.8 24.8 0.466667 26.6667C0.133333 28.4 0 30.2 0 32H32V26.6667V21.3333V16V10.6667V5.33333V0C25.4667 0 19.4 1.93333 14.3333 5.33333Z" fill="#231D9A" style="fill:#231D9A;fill:color(display-p3 0.1373 0.1137 0.6039);fill-opacity:1;"/>
<path d="M24.0003 23.9996C26.9458 23.9996 29.3337 21.6118 29.3337 18.6663C29.3337 15.7208 26.9458 13.333 24.0003 13.333C21.0548 13.333 18.667 15.7208 18.667 18.6663C18.667 21.6118 21.0548 23.9996 24.0003 23.9996Z" fill="#FFD400" style="fill:#FFD400;fill:color(display-p3 1.0000 0.8314 0.0000);fill-opacity:1;"/>
<path d="M10.667 18.6664C10.667 14.2664 14.267 10.6664 18.667 10.6664C19.7337 10.6664 20.7337 10.8664 21.667 11.2664C20.067 10.0664 18.1337 9.33301 16.0003 9.33301C10.867 9.33301 6.66699 13.5331 6.66699 18.6664C6.66699 23.7997 10.867 27.9997 16.0003 27.9997C18.1337 27.9997 20.067 27.2664 21.667 26.0664C20.7337 26.4664 19.7337 26.6664 18.667 26.6664C14.267 26.6664 10.667 23.0664 10.667 18.6664Z" fill="#FFD400" style="fill:#FFD400;fill:color(display-p3 1.0000 0.8314 0.0000);fill-opacity:1;"/>
</g>
</g>
<defs>
<clipPath id="clip0_230_12157">
<rect width="64" height="64" rx="32" fill="white" style="fill:white;fill-opacity:1;"/>
</clipPath>
</defs>
</svg>
