<svg width="64" height="64" viewBox="0 0 64 64" fill="none" xmlns="http://www.w3.org/2000/svg">
<g clip-path="url(#clip0_230_12065)">
<mask id="mask0_230_12065" style="mask-type:luminance" maskUnits="userSpaceOnUse" x="0" y="0" width="64" height="64">
<path d="M64 32C64 14.3269 49.6731 0 32 0C14.3269 0 0 14.3269 0 32C0 49.6731 14.3269 64 32 64C49.6731 64 64 49.6731 64 32Z" fill="white" style="fill:white;fill-opacity:1;"/>
</mask>
<g mask="url(#mask0_230_12065)">
<path d="M64 32C64 14.3269 49.6731 0 32 0C14.3269 0 0 14.3269 0 32C0 49.6731 14.3269 64 32 64C49.6731 64 64 49.6731 64 32Z" fill="#F0F0F0" style="fill:#F0F0F0;fill:color(display-p3 0.9412 0.9412 0.9412);fill-opacity:1;"/>
<mask id="mask1_230_12065" style="mask-type:alpha" maskUnits="userSpaceOnUse" x="0" y="0" width="64" height="64">
<path d="M32 64C49.6731 64 64 49.6731 64 32C64 14.3269 49.6731 0 32 0C14.3269 0 0 14.3269 0 32C0 49.6731 14.3269 64 32 64Z" fill="white" style="fill:white;fill-opacity:1;"/>
</mask>
<g mask="url(#mask1_230_12065)">
<path d="M-21.334 0H85.3327V64H-21.334V0Z" fill="#005B13" style="fill:#005B13;fill:color(display-p3 0.0000 0.3569 0.0745);fill-opacity:1;"/>
<mask id="mask2_230_12065" style="mask-type:alpha" maskUnits="userSpaceOnUse" x="-22" y="5" width="108" height="54">
<path d="M-21.334 5.33398H85.3327V58.6673H-21.334V5.33398Z" fill="white" style="fill:white;fill-opacity:1;"/>
</mask>
<g mask="url(#mask2_230_12065)">
<path d="M-39.1113 -3.55469V67.5565L103.111 -3.55469V67.5565L-39.1113 -3.55469Z" fill="black" stroke="#FFD400" style="fill:black;fill-opacity:1;stroke:#FFD400;stroke:color(display-p3 1.0000 0.8314 0.0000);stroke-opacity:1;" stroke-width="10.6667"/>
</g>
</g>
</g>
</g>
<defs>
<clipPath id="clip0_230_12065">
<rect width="64" height="64" rx="32" fill="white" style="fill:white;fill-opacity:1;"/>
</clipPath>
</defs>
</svg>
