<svg width="64" height="64" viewBox="0 0 64 64" fill="none" xmlns="http://www.w3.org/2000/svg">
<g clip-path="url(#clip0_230_12645)">
<mask id="mask0_230_12645" style="mask-type:luminance" maskUnits="userSpaceOnUse" x="0" y="0" width="64" height="64">
<path d="M64 0H0V64H64V0Z" fill="white" style="fill:white;fill-opacity:1;"/>
</mask>
<g mask="url(#mask0_230_12645)">
<path d="M0 32.0007C0 35.734 0.666667 39.334 1.8 42.6673H62.1333C63.3333 39.334 64 35.734 64 32.0007C64 28.2673 63.3333 24.6673 62.2 21.334H1.8C0.666667 24.6673 0 28.2673 0 32.0007Z" fill="#231D9A" style="fill:#231D9A;fill:color(display-p3 0.1373 0.1137 0.6039);fill-opacity:1;"/>
<path d="M1.80078 21.3327H62.1341C60.7341 17.3327 58.5341 13.7327 55.8008 10.666H8.13411C5.40078 13.7327 3.26745 17.3327 1.80078 21.3327Z" fill="white" style="fill:white;fill-opacity:1;"/>
<path d="M8.13411 53.3327H55.8008C58.5341 50.266 60.7341 46.666 62.1341 42.666H1.80078C3.26745 46.666 5.40078 50.266 8.13411 53.3327Z" fill="white" style="fill:white;fill-opacity:1;"/>
<path d="M8.13379 10.6667H55.8005C50.0005 4.13333 41.4671 0 32.0005 0C22.5338 0 14.0005 4.13333 8.13379 10.6667Z" fill="#960A3C" style="fill:#960A3C;fill:color(display-p3 0.5882 0.0392 0.2353);fill-opacity:1;"/>
<path d="M55.8671 53.334H8.13379C14.0005 59.8673 22.5338 64.0007 32.0005 64.0007C41.4671 64.0007 50.0005 59.8673 55.8671 53.334Z" fill="#960A3C" style="fill:#960A3C;fill:color(display-p3 0.5882 0.0392 0.2353);fill-opacity:1;"/>
</g>
</g>
<defs>
<clipPath id="clip0_230_12645">
<rect width="64" height="64" rx="32" fill="white" style="fill:white;fill-opacity:1;"/>
</clipPath>
</defs>
</svg>
