<svg width="64" height="64" viewBox="0 0 64 64" fill="none" xmlns="http://www.w3.org/2000/svg">
<g clip-path="url(#clip0_230_12852)">
<mask id="mask0_230_12852" style="mask-type:luminance" maskUnits="userSpaceOnUse" x="0" y="0" width="64" height="64">
<path d="M0 0L0 64H64V0L0 0Z" fill="white" style="fill:white;fill-opacity:1;"/>
</mask>
<g mask="url(#mask0_230_12852)">
<path d="M32 64V0C14.3333 7.7223e-07 -7.7224e-07 14.3333 0 32C7.7223e-07 49.6667 14.3333 64 32 64Z" fill="#FFD400" style="fill:#FFD400;fill:color(display-p3 1.0000 0.8314 0.0000);fill-opacity:1;"/>
<path d="M32 0V64C49.6667 64 64 49.6667 64 32C64 14.3333 49.6667 -7.7223e-07 32 0Z" fill="white" style="fill:white;fill-opacity:1;"/>
<path d="M40 39.5C41.933 39.5 43.5 37.933 43.5 36C43.5 34.067 41.933 32.5 40 32.5C38.067 32.5 36.5 34.067 36.5 36C36.5 37.933 38.067 39.5 40 39.5Z" stroke="#FFD400" style="stroke:#FFD400;stroke:color(display-p3 1.0000 0.8314 0.0000);stroke-opacity:1;"/>
<path d="M53.4447 20.8687L41.6123 32.7012L43.0265 34.1154L54.859 22.2829L53.4447 20.8687Z" fill="#FFD400" style="fill:#FFD400;fill:color(display-p3 1.0000 0.8314 0.0000);fill-opacity:1;"/>
<path d="M53.4091 20.9053L54.1162 20.1982L55.5304 21.6125L54.8233 22.3196L53.4091 20.9053Z" fill="#F0F0F0" style="fill:#F0F0F0;fill:color(display-p3 0.9412 0.9412 0.9412);fill-opacity:1;"/>
<path d="M54.1162 20.198L55.3324 20L55.8324 20.5L55.5304 21.6122L54.1162 20.198Z" fill="#FFD400" style="fill:#FFD400;fill:color(display-p3 1.0000 0.8314 0.0000);fill-opacity:1;"/>
<path d="M54.0252 22.1594L50 26.1846L53.281 29.4655L57.3062 25.4403L54.0252 22.1594Z" fill="#FFD400" style="fill:#FFD400;fill:color(display-p3 1.0000 0.8314 0.0000);fill-opacity:1;"/>
<path d="M39.8609 20.8687L51.6934 32.7012L50.2791 34.1154L38.4467 22.2829L39.8609 20.8687Z" fill="#F0F0F0" style="fill:#F0F0F0;fill:color(display-p3 0.9412 0.9412 0.9412);fill-opacity:1;"/>
<path d="M39.8975 20.9053L39.1904 20.1982L37.7762 21.6125L38.4833 22.3196L39.8975 20.9053Z" fill="#FFD400" style="fill:#FFD400;fill:color(display-p3 1.0000 0.8314 0.0000);fill-opacity:1;"/>
<path d="M39.1903 20.198L37.9741 20L37.4741 20.5L37.7761 21.6122L39.1903 20.198Z" fill="#F0F0F0" style="fill:#F0F0F0;fill:color(display-p3 0.9412 0.9412 0.9412);fill-opacity:1;"/>
<path d="M39.2804 22.1593L43.3057 26.1846L40.0247 29.4655L35.9995 25.4403L39.2804 22.1593Z" fill="#F0F0F0" style="fill:#F0F0F0;fill:color(display-p3 0.9412 0.9412 0.9412);fill-opacity:1;"/>
<path d="M53 39.5C54.933 39.5 56.5 37.933 56.5 36C56.5 34.067 54.933 32.5 53 32.5C51.067 32.5 49.5 34.067 49.5 36C49.5 37.933 51.067 39.5 53 39.5Z" stroke="#F0F0F0" style="stroke:#F0F0F0;stroke:color(display-p3 0.9412 0.9412 0.9412);stroke-opacity:1;"/>
<path d="M46 26.9746L47 28.0002V47.0002H46V26.9746Z" fill="#F0263C" style="fill:#F0263C;fill:color(display-p3 0.9412 0.1490 0.2353);fill-opacity:1;"/>
<path d="M53 42V41H40V42H53Z" fill="#F0263C" style="fill:#F0263C;fill:color(display-p3 0.9412 0.1490 0.2353);fill-opacity:1;"/>
<path d="M41 42V38H40V42H41Z" fill="#F0263C" style="fill:#F0263C;fill:color(display-p3 0.9412 0.1490 0.2353);fill-opacity:1;"/>
<path d="M52 42L52 38L53 38L53 42L52 42Z" fill="#F0263C" style="fill:#F0263C;fill:color(display-p3 0.9412 0.1490 0.2353);fill-opacity:1;"/>
<path d="M44 22H50L49.5 24H44.5L44 22Z" fill="#FFD400" style="fill:#FFD400;fill:color(display-p3 1.0000 0.8314 0.0000);fill-opacity:1;"/>
<path d="M43.5 19H50.5L50 21H44L43.5 19Z" fill="#FFD400" style="fill:#FFD400;fill:color(display-p3 1.0000 0.8314 0.0000);fill-opacity:1;"/>
<path d="M43 16H51L50.5 18H43.5L43 16Z" fill="#FFD400" style="fill:#FFD400;fill:color(display-p3 1.0000 0.8314 0.0000);fill-opacity:1;"/>
<path d="M47.0002 14.9998L45.5859 16.4141L47.0002 17.8283L48.4144 16.4141L47.0002 14.9998Z" fill="#FFD400" style="fill:#FFD400;fill:color(display-p3 1.0000 0.8314 0.0000);fill-opacity:1;"/>
</g>
</g>
<defs>
<clipPath id="clip0_230_12852">
<rect width="64" height="64" rx="32" fill="white" style="fill:white;fill-opacity:1;"/>
</clipPath>
</defs>
</svg>
