<svg width="64" height="64" viewBox="0 0 64 64" fill="none" xmlns="http://www.w3.org/2000/svg">
<g clip-path="url(#clip0_230_11848)">
<mask id="mask0_230_11848" style="mask-type:luminance" maskUnits="userSpaceOnUse" x="0" y="0" width="64" height="64">
<path d="M64 0H0V64H64V0Z" fill="white" style="fill:white;fill-opacity:1;"/>
</mask>
<g mask="url(#mask0_230_11848)">
<path d="M32 64C49.6731 64 64 49.6731 64 32C64 14.3269 49.6731 0 32 0C14.3269 0 0 14.3269 0 32C0 49.6731 14.3269 64 32 64Z" fill="white" style="fill:white;fill-opacity:1;"/>
<path d="M31.9997 25.333C35.6663 25.333 38.6663 28.333 38.6663 31.9996C38.6663 35.6663 35.6663 38.6663 31.9997 38.6663C28.333 38.6663 25.333 35.6663 25.333 31.9996C25.333 28.333 28.333 25.333 31.9997 25.333Z" fill="white" style="fill:white;fill-opacity:1;"/>
<path d="M32 25.3333C35.6667 25.3333 38.6667 28.3333 38.6667 32C38.6667 35.6667 35.6667 38.6667 32 38.6667C28.3333 38.6667 25.3333 35.6667 25.3333 32C25.3333 28.3333 28.3333 25.3333 32 25.3333ZM32 24C27.6 24 24 27.6 24 32C24 36.4 27.6 40 32 40C36.4 40 40 36.4 40 32C40 27.6 36.4 24 32 24Z" fill="#231D9A" style="fill:#231D9A;fill:color(display-p3 0.1373 0.1137 0.6039);fill-opacity:1;"/>
<path d="M1.7998 21.3333H62.1331C57.7998 8.93333 45.9331 0 31.9998 0C18.0665 0 6.1998 8.93333 1.7998 21.3333Z" fill="#FF7700" style="fill:#FF7700;fill:color(display-p3 1.0000 0.4667 0.0000);fill-opacity:1;"/>
<path d="M62.1998 42.667H1.7998C6.1998 55.067 18.0665 64.0004 31.9998 64.0004C45.9331 64.0004 57.7998 55.067 62.1998 42.667Z" fill="#005B13" style="fill:#005B13;fill:color(display-p3 0.0000 0.3569 0.0745);fill-opacity:1;"/>
<path d="M35.9865 32.1167C36.0451 29.9084 34.3025 28.0708 32.0942 28.0122C29.886 27.9536 28.0483 29.6962 27.9897 31.9045C27.9311 34.1127 29.6737 35.9504 31.882 36.009C34.0902 36.0676 35.9279 34.325 35.9865 32.1167Z" fill="#231D9A" style="fill:#231D9A;fill:color(display-p3 0.1373 0.1137 0.6039);fill-opacity:1;"/>
</g>
</g>
<defs>
<clipPath id="clip0_230_11848">
<rect width="64" height="64" rx="32" fill="white" style="fill:white;fill-opacity:1;"/>
</clipPath>
</defs>
</svg>
