<svg width="64" height="64" viewBox="0 0 64 64" fill="none" xmlns="http://www.w3.org/2000/svg">
<g clip-path="url(#clip0_230_12406)">
<mask id="mask0_230_12406" style="mask-type:luminance" maskUnits="userSpaceOnUse" x="0" y="0" width="64" height="64">
<path d="M64 0H0V64H64V0Z" fill="white" style="fill:white;fill-opacity:1;"/>
</mask>
<g mask="url(#mask0_230_12406)">
<path d="M32.0005 63.9996C40.4671 63.9996 48.1338 60.733 53.8671 55.333H10.1338C15.8671 60.733 23.5338 63.9996 32.0005 63.9996Z" fill="#231D9A" style="fill:#231D9A;fill:color(display-p3 0.1373 0.1137 0.6039);fill-opacity:1;"/>
<path d="M4.66725 48.6667H59.3339C60.6006 46.6 61.6673 44.3334 62.4006 42H1.60059C2.40059 44.3334 3.40059 46.6 4.66725 48.6667Z" fill="#231D9A" style="fill:#231D9A;fill:color(display-p3 0.1373 0.1137 0.6039);fill-opacity:1;"/>
<path d="M32.001 21.9996H62.401C61.601 19.6663 60.601 17.3996 59.3343 15.333H32.001V21.9996Z" fill="#231D9A" style="fill:#231D9A;fill:color(display-p3 0.1373 0.1137 0.6039);fill-opacity:1;"/>
<path d="M53.8676 8.66699H32.001V15.3337H59.3343C57.801 12.867 56.001 10.6004 53.8676 8.66699Z" fill="white" style="fill:white;fill-opacity:1;"/>
<path d="M32.001 28.6667H63.801C63.5343 26.3334 63.0676 24.1334 62.401 22H32.001V28.6667Z" fill="white" style="fill:white;fill-opacity:1;"/>
<path d="M10.1337 55.3337H53.9337C56.0003 53.4004 57.867 51.1337 59.3337 48.667H4.66699C6.20033 51.1337 8.00033 53.4004 10.1337 55.3337Z" fill="white" style="fill:white;fill-opacity:1;"/>
<path d="M1.6 22C0.866667 24.1333 0.4 26.3333 0.2 28.6667C0.0666667 29.7333 0 30.8667 0 32C0 33.1333 0.0666667 34.2667 0.2 35.3333H13.3333V22H1.6Z" fill="#231D9A" style="fill:#231D9A;fill:color(display-p3 0.1373 0.1137 0.6039);fill-opacity:1;"/>
<path d="M63.8 28.6667H32V22H20V35.3333H63.8C63.9333 34.2667 64 33.1333 64 32C64 30.8667 63.9333 29.7333 63.8 28.6667Z" fill="#231D9A" style="fill:#231D9A;fill:color(display-p3 0.1373 0.1137 0.6039);fill-opacity:1;"/>
<path d="M13.3337 6C12.2003 6.8 11.1337 7.66667 10.1337 8.66667C8.00033 10.6 6.20033 12.8667 4.66699 15.3333H13.3337V6Z" fill="#231D9A" style="fill:#231D9A;fill:color(display-p3 0.1373 0.1137 0.6039);fill-opacity:1;"/>
<path d="M16.7334 3.86687C17.2001 3.6002 17.6001 3.4002 18.0667 3.2002C17.6001 3.4002 17.2001 3.66687 16.7334 3.86687Z" fill="#231D9A" style="fill:#231D9A;fill:color(display-p3 0.1373 0.1137 0.6039);fill-opacity:1;"/>
<path d="M13.4004 6C13.8671 5.66667 14.4004 5.33333 14.8671 5C14.4004 5.26667 13.8671 5.6 13.4004 6Z" fill="#231D9A" style="fill:#231D9A;fill:color(display-p3 0.1373 0.1137 0.6039);fill-opacity:1;"/>
<path d="M31.9997 0C27.133 0 22.4663 1.13333 18.333 3.06667C18.8663 2.8 19.4663 2.53333 19.9997 2.33333V15.3333H31.9997V8.66667H53.8663C48.133 3.26667 40.4663 0 31.9997 0Z" fill="#231D9A" style="fill:#231D9A;fill:color(display-p3 0.1373 0.1137 0.6039);fill-opacity:1;"/>
<path d="M20.0002 35.333V21.9997H32.0002V15.333H20.0002V2.33301C19.4669 2.53301 18.8669 2.79967 18.3335 3.06634C18.2669 3.13301 18.1335 3.13301 18.0669 3.19968C17.6002 3.39968 17.2002 3.66634 16.7335 3.86634C16.6002 3.93301 16.5335 3.99967 16.4002 4.06634C15.9335 4.33301 15.4669 4.59968 15.0002 4.86634C14.9335 4.86634 14.9335 4.93301 14.8669 4.93301C14.3335 5.26634 13.8669 5.59967 13.4002 5.93301C13.4002 5.99967 13.3335 5.99968 13.3335 5.99968V15.333H4.66686C3.4002 17.3997 2.33353 19.6664 1.6002 21.9997H13.3335V35.333H0.200195C0.466862 37.6664 0.933529 39.8664 1.6002 41.9997H62.4002C63.1335 39.8664 63.6002 37.6664 63.8002 35.333H20.0002Z" fill="white" style="fill:white;fill-opacity:1;"/>
</g>
</g>
<defs>
<clipPath id="clip0_230_12406">
<rect width="64" height="64" rx="32" fill="white" style="fill:white;fill-opacity:1;"/>
</clipPath>
</defs>
</svg>
