<svg width="64" height="64" viewBox="0 0 64 64" fill="none" xmlns="http://www.w3.org/2000/svg">
<g clip-path="url(#clip0_230_12177)">
<mask id="mask0_230_12177" style="mask-type:luminance" maskUnits="userSpaceOnUse" x="0" y="0" width="64" height="64">
<path d="M64 0H0V64H64V0Z" fill="white" style="fill:white;fill-opacity:1;"/>
</mask>
<g mask="url(#mask0_230_12177)">
<path d="M32 64C49.6731 64 64 49.6731 64 32C64 14.3269 49.6731 0 32 0C14.3269 0 0 14.3269 0 32C0 49.6731 14.3269 64 32 64Z" fill="white" style="fill:white;fill-opacity:1;"/>
<path d="M0 32.0004C0 35.267 0.466667 38.4004 1.4 41.3337H62.6C63.4667 38.4004 64 35.267 64 32.0004C64 28.7337 63.5333 25.6004 62.6 22.667H1.4C0.466667 25.6004 0 28.7337 0 32.0004Z" fill="#F0263C" style="fill:#F0263C;fill:color(display-p3 0.9412 0.1490 0.2353);fill-opacity:1;"/>
<path d="M31.9997 0C18.5997 0 7.06634 8.26667 2.33301 20H61.6663C56.933 8.26667 45.3997 0 31.9997 0Z" fill="black" style="fill:black;fill-opacity:1;"/>
<path d="M31.9997 64C45.3997 64 56.933 55.7333 61.6663 44H2.33301C7.06634 55.7333 18.5997 64 31.9997 64Z" fill="#005B13" style="fill:#005B13;fill:color(display-p3 0.0000 0.3569 0.0745);fill-opacity:1;"/>
<path d="M27.2671 17.6004C27.2671 17.6004 28.0003 16.0004 27.3337 14.667C26.6671 13.3337 24.0004 10.667 24.0004 10.667C24.0004 10.667 23.3337 14.667 24.0004 16.0004C24.6671 17.3337 26.0671 18.2004 26.0671 18.2004L27.3337 21.667L28.2671 20.267L27.2671 17.6004Z" fill="white" style="fill:white;fill-opacity:1;"/>
<path d="M36.7036 17.6004C36.7036 17.6004 35.9704 16.0004 36.637 14.667C37.3036 13.3337 39.9703 10.667 39.9703 10.667C39.9703 10.667 40.637 14.667 39.9703 16.0004C39.3036 17.3337 37.9036 18.2004 37.9036 18.2004L36.637 21.667L35.7036 20.267L36.7036 17.6004Z" fill="white" style="fill:white;fill-opacity:1;"/>
<path d="M38.5329 52.0006H39.9329L36.4663 42.6006L35.5996 44.0006L38.5329 52.0006Z" fill="white" style="fill:white;fill-opacity:1;"/>
<path d="M24.0664 52.0006H25.4664L28.3997 44.0006L27.5331 42.6006L24.0664 52.0006Z" fill="white" style="fill:white;fill-opacity:1;"/>
<path d="M32.0003 14.667C29.7627 14.667 27.894 20.8266 26.667 22.667V41.3337C26.667 41.3337 29.467 49.3337 32.067 49.3337C34.667 49.3337 37.3337 41.3337 37.3337 41.3337V22.667C36.1067 20.8266 34.238 14.667 32.0003 14.667ZM29.3337 20.0004H30.667V28.0004H29.3337V20.0004ZM29.3337 44.0004V36.0004H30.667V44.0004H29.3337ZM29.3337 32.0004C29.3337 30.5337 30.5337 29.3337 32.0003 29.3337C33.467 29.3337 34.667 30.5337 34.667 32.0004C34.667 33.467 33.467 34.667 32.0003 34.667C30.5337 34.667 29.3337 33.467 29.3337 32.0004ZM34.667 44.0004H33.3337V36.0004H34.667V44.0004ZM34.667 28.0004H33.3337V20.0004H34.667V28.0004Z" fill="#F0263C" style="fill:#F0263C;fill:color(display-p3 0.9412 0.1490 0.2353);fill-opacity:1;"/>
<path d="M24 32.0004C24 36.0004 26.6667 41.3337 26.6667 41.3337C26.6667 41.3337 27.3333 35.3337 27.3333 32.0004C27.3333 28.667 26.6667 22.667 26.6667 22.667C26.6667 22.667 24 28.0004 24 32.0004Z" fill="black" style="fill:black;fill-opacity:1;"/>
<path d="M39.9998 32.0004C39.9998 28.0004 37.3331 22.667 37.3331 22.667C37.3331 22.667 36.6665 28.0004 36.6665 32.0004C36.6665 36.0004 37.3331 41.3337 37.3331 41.3337C37.3331 41.3337 39.9998 36.0004 39.9998 32.0004Z" fill="black" style="fill:black;fill-opacity:1;"/>
<path d="M31.9997 34.6673C33.4724 34.6673 34.6663 33.4734 34.6663 32.0007C34.6663 30.5279 33.4724 29.334 31.9997 29.334C30.5269 29.334 29.333 30.5279 29.333 32.0007C29.333 33.4734 30.5269 34.6673 31.9997 34.6673Z" fill="white" style="fill:white;fill-opacity:1;"/>
<path d="M34.6673 20H33.334V28H34.6673V20Z" fill="white" style="fill:white;fill-opacity:1;"/>
<path d="M30.6663 20H29.333V28H30.6663V20Z" fill="white" style="fill:white;fill-opacity:1;"/>
<path d="M34.6673 36H33.334V44H34.6673V36Z" fill="white" style="fill:white;fill-opacity:1;"/>
<path d="M30.6663 36H29.333V44H30.6663V36Z" fill="white" style="fill:white;fill-opacity:1;"/>
</g>
</g>
<defs>
<clipPath id="clip0_230_12177">
<rect width="64" height="64" rx="32" fill="white" style="fill:white;fill-opacity:1;"/>
</clipPath>
</defs>
</svg>
