<svg width="64" height="64" viewBox="0 0 64 64" fill="none" xmlns="http://www.w3.org/2000/svg">
<g clip-path="url(#clip0_230_11876)">
<mask id="mask0_230_11876" style="mask-type:luminance" maskUnits="userSpaceOnUse" x="0" y="0" width="64" height="64">
<path d="M64 0H0V64H64V0Z" fill="white" style="fill:white;fill-opacity:1;"/>
</mask>
<g mask="url(#mask0_230_11876)">
<mask id="mask1_230_11876" style="mask-type:alpha" maskUnits="userSpaceOnUse" x="0" y="0" width="64" height="64">
<path d="M32 64C49.6731 64 64 49.6731 64 32C64 14.3269 49.6731 0 32 0C14.3269 0 0 14.3269 0 32C0 49.6731 14.3269 64 32 64Z" fill="#231D9A" style="fill:#231D9A;fill:color(display-p3 0.1373 0.1137 0.6039);fill-opacity:1;"/>
</mask>
<g mask="url(#mask1_230_11876)">
<path d="M64 0H0V64H64V0Z" fill="#231D9A" style="fill:#231D9A;fill:color(display-p3 0.1373 0.1137 0.6039);fill-opacity:1;"/>
<path d="M15.9528 42.6729L10.626 47.9997L15.9528 53.3265L21.2796 47.9997L15.9528 42.6729Z" fill="white" style="fill:white;fill-opacity:1;"/>
<path d="M38.7141 19.9873L35.3672 23.3343L38.7141 26.6812L42.0611 23.3343L38.7141 19.9873Z" fill="white" style="fill:white;fill-opacity:1;"/>
<path d="M48.0471 9.32031L44.7002 12.6673L48.0471 16.0142L51.3941 12.6673L48.0471 9.32031Z" fill="white" style="fill:white;fill-opacity:1;"/>
<path d="M48.0471 46.6533L44.7002 50.0002L48.0471 53.3471L51.3941 50.0002L48.0471 46.6533Z" fill="white" style="fill:white;fill-opacity:1;"/>
<path d="M56.0471 18.6533L52.7002 22.0003L56.0471 25.3472L59.3941 22.0003L56.0471 18.6533Z" fill="white" style="fill:white;fill-opacity:1;"/>
<path d="M50.6674 28.0215L48.6875 30.0014L50.6674 31.9813L52.6473 30.0014L50.6674 28.0215Z" fill="white" style="fill:white;fill-opacity:1;"/>
<mask id="mask2_230_11876" style="mask-type:alpha" maskUnits="userSpaceOnUse" x="0" y="0" width="31" height="28">
<path d="M30.7 0H0V28H30.7V0Z" fill="#D9D9D9" style="fill:#D9D9D9;fill:color(display-p3 0.8510 0.8510 0.8510);fill-opacity:1;"/>
</mask>
<g mask="url(#mask2_230_11876)">
<path d="M11.8199 8.83336V8.51389L-2.23568 -0.75C-2.87747 0.0450639 -3.66156 0.934772 -4.15234 1.80555L6.70877 8.83333L11.8199 8.83336Z" fill="#F0263C" style="fill:#F0263C;fill:color(display-p3 0.9412 0.1490 0.2353);fill-opacity:1;"/>
<path d="M11.5012 7.04433L-0.606162 -0.973793C-0.893662 -0.654348 -1.18116 -0.334904 -1.43672 -0.0154598L11.5331 8.54572V8.83322H7.2845L-2.87422 2.12482C-3.06589 2.50815 -3.25755 2.89149 -3.44922 3.27482L4.9845 8.83322H2.73242H-0.382534C-0.478368 9.24849 -0.574201 9.66376 -0.63809 10.111H12.7789V-3.30566C12.3317 -3.24177 11.9164 -3.14593 11.5011 -3.0501L11.5012 7.04433Z" fill="white" style="fill:white;fill-opacity:1;"/>
<path d="M-0.63825 15.2227C-0.574361 15.6699 -0.478528 16.0852 -0.382694 16.5004H4.98435L-3.57715 22.1865C-3.41743 22.5698 -3.22576 22.9531 -3.00215 23.3365L7.28434 16.5004H11.501V16.756L-1.59659 25.4448C-1.34104 25.7962 -1.05354 26.1156 -0.766035 26.4031L11.501 18.2893V28.0642C11.9163 28.1601 12.3316 28.2559 12.7788 28.3198V17.4268V15.8935V15.2227H-0.63825Z" fill="white" style="fill:white;fill-opacity:1;"/>
<path d="M31.3057 10.1116C31.2418 9.66436 31.146 9.24908 31.0501 8.8338H25.6841L32.9029 4.04214C32.7112 3.65881 32.5515 3.27547 32.3279 2.89214L23.3841 8.8338H19.1674V8.57825L31.8807 0.208788C31.6251 -0.1426 31.3376 -0.462045 31.0501 -0.749545L19.1674 7.04492V-2.98566C18.7521 -3.08149 18.3369 -3.17732 17.8896 -3.24121V7.90742V9.44075V10.1116H31.3057Z" fill="white" style="fill:white;fill-opacity:1;"/>
<path d="M17.8897 15.2227L17.8896 28.6392C18.3369 28.5754 18.7521 28.4795 19.1674 28.3837V18.2893L30.7946 25.7642C31.0821 25.4448 31.3696 25.1254 31.6251 24.8059L19.1674 16.756V16.5004H23.3841L32.0085 22.1226C32.2001 21.7392 32.3918 21.3559 32.5835 20.9726L25.6841 16.5004H31.0501C31.146 16.0852 31.2418 15.6699 31.3057 15.2227H17.8897Z" fill="white" style="fill:white;fill-opacity:1;"/>
<path d="M32.5837 2.76361C32.1684 2.02889 31.6892 1.29416 31.1781 0.655273L19.167 8.57753V8.83308H23.3837L32.5837 2.76361Z" fill="#F0263C" style="fill:#F0263C;fill:color(display-p3 0.9412 0.1490 0.2353);fill-opacity:1;"/>
<path d="M-2.04395 22.6972C-1.62867 23.4319 -1.1495 24.1667 -0.638387 24.8055L11.5005 16.7555V16.5H7.28384L-2.04395 22.6972Z" fill="#F0263C" style="fill:#F0263C;fill:color(display-p3 0.9412 0.1490 0.2353);fill-opacity:1;"/>
<path d="M19.167 16.5V16.7555L30.8587 24.3583C31.4017 23.6875 31.8489 22.9847 32.2642 22.25L23.3837 16.5H19.167Z" fill="#F0263C" style="fill:#F0263C;fill:color(display-p3 0.9412 0.1490 0.2353);fill-opacity:1;"/>
<path d="M30.9862 10.1108H17.889V9.44V7.90666V-2.98635C17.0584 -3.14607 16.1959 -3.20996 15.3334 -3.20996C14.4709 -3.20996 13.6084 -3.14607 12.7779 -2.98635V10.1108H-0.319358C-0.47908 10.9413 -0.542969 11.8038 -0.542969 12.6663C-0.542969 13.5288 -0.47908 14.3913 -0.319358 15.2219H12.7779L12.7778 28.3191C13.6084 28.4469 14.4709 28.5427 15.3334 28.5427C16.1959 28.5427 17.0584 28.4788 17.889 28.3191V15.2219H30.9862C31.114 14.3913 31.2098 13.5288 31.2098 12.6663C31.2098 11.8038 31.1459 10.9413 30.9862 10.1108Z" fill="#F0263C" style="fill:#F0263C;fill:color(display-p3 0.9412 0.1490 0.2353);fill-opacity:1;"/>
</g>
</g>
</g>
</g>
<defs>
<clipPath id="clip0_230_11876">
<rect width="64" height="64" rx="32" fill="white" style="fill:white;fill-opacity:1;"/>
</clipPath>
</defs>
</svg>
