<svg width="64" height="64" viewBox="0 0 64 64" fill="none" xmlns="http://www.w3.org/2000/svg">
<g clip-path="url(#clip0_230_12453)">
<mask id="mask0_230_12453" style="mask-type:luminance" maskUnits="userSpaceOnUse" x="0" y="0" width="64" height="64">
<path d="M64 0H0V64H64V0Z" fill="white" style="fill:white;fill-opacity:1;"/>
</mask>
<g mask="url(#mask0_230_12453)">
<path d="M0 31.9997C0 35.733 0.666667 39.333 1.8 42.6663H62.1333C63.3333 39.333 64 35.733 64 31.9997C64 28.2663 63.3333 24.6663 62.2 21.333H1.8C0.666667 24.6663 0 28.2663 0 31.9997Z" fill="#231D9A" style="fill:#231D9A;fill:color(display-p3 0.1373 0.1137 0.6039);fill-opacity:1;"/>
<path d="M1.80078 21.3333H62.1341C57.8008 8.93333 45.9341 0 32.0008 0C18.0674 0 6.20078 8.93333 1.80078 21.3333Z" fill="white" style="fill:white;fill-opacity:1;"/>
<path d="M62.2008 42.667H1.80078C6.20078 55.067 18.0674 64.0003 32.0008 64.0003C45.9341 64.0003 57.8008 55.067 62.2008 42.667Z" fill="#F0263C" style="fill:#F0263C;fill:color(display-p3 0.9412 0.1490 0.2353);fill-opacity:1;"/>
<path d="M17.3351 22.6666L16.0018 20L14.6684 22.6666L13.3351 21.3333L10.8018 23.8666C11.3351 26.2666 13.4684 28 16.0018 28C18.5351 28 20.6684 26.2 21.2018 23.8666L18.6684 21.3333L17.3351 22.6666Z" fill="white" style="fill:white;fill-opacity:1;"/>
<path d="M16.0013 13.333C12.668 13.333 10.668 14.6663 10.668 14.6663V22.6663C10.668 23.0663 10.7346 23.4663 10.8013 23.8663L13.3346 21.333L14.668 22.6663L16.0013 19.9996L17.3346 22.6663L18.668 21.333L21.2013 23.8663C21.268 23.4663 21.3346 23.0663 21.3346 22.6663V14.6663C21.3346 14.6663 19.3346 13.333 16.0013 13.333Z" fill="#231D9A" style="fill:#231D9A;fill:color(display-p3 0.1373 0.1137 0.6039);fill-opacity:1;"/>
<path d="M14.3251 15.6198L13.3352 14.6299L12.3452 15.6198L13.3352 16.6098L14.3251 15.6198Z" fill="#FFD400" style="fill:#FFD400;fill:color(display-p3 1.0000 0.8314 0.0000);fill-opacity:1;"/>
<path d="M16.9911 17.6198L16.0012 16.6299L15.0112 17.6198L16.0012 18.6098L16.9911 17.6198Z" fill="#FFD400" style="fill:#FFD400;fill:color(display-p3 1.0000 0.8314 0.0000);fill-opacity:1;"/>
<path d="M19.6581 15.6198L18.6682 14.6299L17.6782 15.6198L18.6682 16.6098L19.6581 15.6198Z" fill="#FFD400" style="fill:#FFD400;fill:color(display-p3 1.0000 0.8314 0.0000);fill-opacity:1;"/>
</g>
</g>
<defs>
<clipPath id="clip0_230_12453">
<rect width="64" height="64" rx="32" fill="white" style="fill:white;fill-opacity:1;"/>
</clipPath>
</defs>
</svg>
