<svg width="64" height="64" viewBox="0 0 64 64" fill="none" xmlns="http://www.w3.org/2000/svg">
<g clip-path="url(#clip0_230_11676)">
<mask id="mask0_230_11676" style="mask-type:alpha" maskUnits="userSpaceOnUse" x="0" y="0" width="64" height="64">
<path d="M32 64C49.6731 64 64 49.6731 64 32C64 14.3269 49.6731 0 32 0C14.3269 0 0 14.3269 0 32C0 49.6731 14.3269 64 32 64Z" fill="#231D9A" style="fill:#231D9A;fill:color(display-p3 0.1373 0.1137 0.6039);fill-opacity:1;"/>
</mask>
<g mask="url(#mask0_230_11676)">
<path d="M64 0H0V64H64V0Z" fill="#231D9A" style="fill:#231D9A;fill:color(display-p3 0.1373 0.1137 0.6039);fill-opacity:1;"/>
<path d="M27 27V-1H24V20.5L2.5 6L-4 14.5L10.5 24H-2.5V27H27Z" fill="white" style="fill:white;fill-opacity:1;"/>
<path d="M27 37V65H24V43.5L2.5 58L-4 49.5L10.5 40H-2.5V37H27Z" fill="white" style="fill:white;fill-opacity:1;"/>
<path d="M37 27V-1H40V20.5L61.5 6L68 14.5L53.5 24H66.5V27H37Z" fill="white" style="fill:white;fill-opacity:1;"/>
<path d="M37 37V65H40V43.5L61.5 58L68 49.5L53.5 40H66.5V37H37Z" fill="white" style="fill:white;fill-opacity:1;"/>
<path d="M24 24V23.5L3 9.5L-0.5 13.5L15 24H24Z" fill="#F0263C" style="fill:#F0263C;fill:color(display-p3 0.9412 0.1490 0.2353);fill-opacity:1;"/>
<path d="M24 40V40.5L3 54.5L-0.5 50.5L15 40H24Z" fill="#F0263C" style="fill:#F0263C;fill:color(display-p3 0.9412 0.1490 0.2353);fill-opacity:1;"/>
<path d="M40 24V23.5L61 9.5L64.5 13.5L49 24H40Z" fill="#F0263C" style="fill:#F0263C;fill:color(display-p3 0.9412 0.1490 0.2353);fill-opacity:1;"/>
<path d="M40 40V40.5L61 54.5L64.5 50.5L49 40H40Z" fill="#F0263C" style="fill:#F0263C;fill:color(display-p3 0.9412 0.1490 0.2353);fill-opacity:1;"/>
<path fill-rule="evenodd" clip-rule="evenodd" d="M37 27V-2H27V27H-2V37H27V66H37V37H66V27H37Z" fill="#F0263C" style="fill:#F0263C;fill:color(display-p3 0.9412 0.1490 0.2353);fill-opacity:1;"/>
</g>
</g>
<defs>
<clipPath id="clip0_230_11676">
<rect width="64" height="64" rx="32" fill="white" style="fill:white;fill-opacity:1;"/>
</clipPath>
</defs>
</svg>
