<svg width="64" height="64" viewBox="0 0 64 64" fill="none" xmlns="http://www.w3.org/2000/svg">
<g clip-path="url(#clip0_230_12735)">
<mask id="mask0_230_12735" style="mask-type:luminance" maskUnits="userSpaceOnUse" x="0" y="0" width="64" height="64">
<path d="M64 0H0V64H64V0Z" fill="white" style="fill:white;fill-opacity:1;"/>
</mask>
<g mask="url(#mask0_230_12735)">
<mask id="mask1_230_12735" style="mask-type:alpha" maskUnits="userSpaceOnUse" x="0" y="0" width="64" height="64">
<path d="M32 64C49.6731 64 64 49.6731 64 32C64 14.3269 49.6731 0 32 0C14.3269 0 0 14.3269 0 32C0 49.6731 14.3269 64 32 64Z" fill="#231D9A" style="fill:#231D9A;fill:color(display-p3 0.1373 0.1137 0.6039);fill-opacity:1;"/>
</mask>
<g mask="url(#mask1_230_12735)">
<path d="M64 0H0V64H64V0Z" fill="#78C9FF" style="fill:#78C9FF;fill:color(display-p3 0.4706 0.7882 1.0000);fill-opacity:1;"/>
<path d="M64 0H0V21.75H64V0Z" fill="#005B13" style="fill:#005B13;fill:color(display-p3 0.0000 0.3569 0.0745);fill-opacity:1;"/>
<path d="M64 42.5H0V64H64V42.5Z" fill="#FFD400" style="fill:#FFD400;fill:color(display-p3 1.0000 0.8314 0.0000);fill-opacity:1;"/>
<path d="M68.25 21.5H-4.25V43H68.25V21.5Z" fill="black" stroke="white" style="fill:black;fill-opacity:1;stroke:white;stroke-opacity:1;" stroke-width="2"/>
<path d="M0 0L41.5 32L0 64V0Z" fill="#F0263C" style="fill:#F0263C;fill:color(display-p3 0.9412 0.1490 0.2353);fill-opacity:1;"/>
<path d="M15.9999 18.667L19.2758 26.8248L28.0466 27.4195L21.3004 33.056L23.4452 41.5813L15.9999 36.907L8.55455 41.5813L10.6993 33.056L3.95312 27.4195L12.724 26.8248L15.9999 18.667Z" fill="#FFD400" style="fill:#FFD400;fill:color(display-p3 1.0000 0.8314 0.0000);fill-opacity:1;"/>
<path d="M21.667 36.4444V28.4444C19.3337 27.4444 16.167 28.4444 16.167 28.4444C16.167 28.4444 12.667 27.4444 10.667 28.4444V36.4444C13.3337 35.4444 16.167 36.4444 16.167 36.4444C16.167 36.4444 18.667 35.4444 21.667 36.4444Z" fill="white" style="fill:white;fill-opacity:1;"/>
<path fill-rule="evenodd" clip-rule="evenodd" d="M15.6034 30.087L22.3452 24.2441L23.6551 25.7555L17.111 31.4271L23.6644 37.2524L22.3357 38.7472L15.5867 32.7481L13.7524 34.3378L15.7073 36.2927L14.2931 37.7069L12.2372 35.651L8.65509 38.7555L7.34523 37.2441L14.0792 31.4081L9.54045 27.3737L7.20718 29.7069L5.79297 28.2927L9.4597 24.626L15.6034 30.087Z" fill="black" style="fill:black;fill-opacity:1;"/>
</g>
</g>
</g>
<defs>
<clipPath id="clip0_230_12735">
<rect width="64" height="64" rx="32" fill="white" style="fill:white;fill-opacity:1;"/>
</clipPath>
</defs>
</svg>
