<svg width="64" height="64" viewBox="0 0 64 64" fill="none" xmlns="http://www.w3.org/2000/svg">
<g clip-path="url(#clip0_230_12097)">
<mask id="mask0_230_12097" style="mask-type:luminance" maskUnits="userSpaceOnUse" x="0" y="0" width="64" height="64">
<path d="M64 0H0V64H64V0Z" fill="white" style="fill:white;fill-opacity:1;"/>
</mask>
<g mask="url(#mask0_230_12097)">
<path d="M32 64C49.6731 64 64 49.6731 64 32C64 14.3269 49.6731 0 32 0C14.3269 0 0 14.3269 0 32C0 49.6731 14.3269 64 32 64Z" fill="#F0263C" style="fill:#F0263C;fill:color(display-p3 0.9412 0.1490 0.2353);fill-opacity:1;"/>
<path d="M31.3992 31.4661C30.8659 30.3327 30.5992 29.0661 30.5992 27.8661C30.5992 27.5327 30.5992 27.1994 30.6659 26.7994L30.7326 26.4661H31.1326C31.1992 26.4661 31.2659 26.4661 31.2659 26.4661C33.6659 26.4661 35.6659 24.4661 35.6659 22.0661C35.6659 20.5994 34.9326 19.1994 33.6659 18.3994L33.3992 18.2661L33.5326 17.9994C33.7992 17.3994 34.1992 16.8661 34.5992 16.3994C34.3992 16.3994 34.1992 16.3994 33.9992 16.3994C31.5992 16.3994 29.3992 17.4661 27.9326 19.3327C27.7992 19.4661 27.7326 19.5994 27.5992 19.7327C26.6659 21.0661 26.1992 22.5994 26.1992 24.1994C26.1992 27.4661 28.3326 30.3994 31.3992 31.4661Z" fill="white" style="fill:white;fill-opacity:1;"/>
<path d="M27.5991 32.0667C27.2658 31.9334 26.9991 31.8667 26.5991 31.6667L26.3324 31.5334L26.4658 31.2001C26.4658 31.1334 26.5324 31.0667 26.5324 31.0667C26.8658 29.9334 26.7991 28.7334 26.2658 27.7334C25.7324 26.7334 24.7991 25.9334 23.7324 25.5334C22.3324 25.0667 20.7324 25.3334 19.5991 26.3334L19.3324 26.4001L19.1324 26.2001C18.6658 25.7334 18.2658 25.2667 17.9324 24.7334C17.8658 24.9334 17.7991 25.1334 17.7324 25.2667C16.9991 27.5334 17.3324 29.9334 18.6658 31.9334C18.7324 32.0667 18.8658 32.2001 18.9324 32.3334C19.9324 33.6001 21.1991 34.5334 22.7324 35.0667C25.9324 36.1334 29.3324 35.0001 31.3324 32.3334C30.0658 32.5334 28.7991 32.4667 27.5991 32.0667Z" fill="white" style="fill:white;fill-opacity:1;"/>
<path d="M30.6658 36.2001C30.4658 36.4667 30.2658 36.7334 29.9991 37.0001L29.7991 37.2001L29.4658 36.9334C29.3991 36.8667 29.3991 36.8667 29.3324 36.8001C27.3991 35.4001 24.5991 35.8001 23.1991 37.8001C22.3324 39.0001 22.1324 40.6001 22.6658 42.0001L22.7991 42.2667L22.5324 42.4001C21.9324 42.6667 21.3324 42.9334 20.7324 43.0667C20.8658 43.2001 21.0658 43.3334 21.1991 43.4667C23.1324 44.8667 25.5324 45.2667 27.7991 44.6667C27.9324 44.6001 28.1324 44.6001 28.2658 44.5334C29.7991 44.0001 31.0658 43.0667 31.9991 41.7334C33.9991 39.0001 33.9991 35.4001 32.0658 32.7334C31.9324 34.0001 31.3991 35.2001 30.6658 36.2001Z" fill="white" style="fill:white;fill-opacity:1;"/>
<path d="M32.7988 32.0666C33.9322 32.6666 34.8655 33.5332 35.5988 34.5332C35.7988 34.7999 35.9988 35.0666 36.1988 35.4666L36.3322 35.7332L35.9988 35.9332C35.9322 35.9332 35.9322 35.9999 35.8655 35.9999C34.9322 36.6666 34.2655 37.7332 34.1322 38.8666C33.9322 39.9999 34.1988 41.1999 34.9322 42.1332C35.7988 43.3332 37.2655 43.9999 38.7322 43.9332H38.9988L39.0655 44.1999C39.1988 44.8666 39.1988 45.4666 39.1322 46.1332C39.3322 45.9999 39.4655 45.9332 39.6655 45.7999C41.5988 44.3999 42.7322 42.2666 42.8655 39.8666C42.8655 39.6666 42.8655 39.5332 42.8655 39.3332C42.8655 37.7332 42.3322 36.1999 41.3988 34.8666C39.3322 32.2666 35.9322 31.1332 32.7988 32.0666Z" fill="white" style="fill:white;fill-opacity:1;"/>
<path d="M32.333 31.2662C33.2663 30.3996 34.333 29.7329 35.533 29.3329C35.8663 29.2662 36.1997 29.1329 36.5997 29.0662L36.933 28.9996L37.0663 29.3996C37.0663 29.4662 37.0663 29.5329 37.133 29.5329C37.4663 30.6662 38.2663 31.5329 39.333 32.0662C40.3997 32.5996 41.5997 32.6662 42.6663 32.3329C44.0663 31.8662 45.1997 30.7329 45.533 29.2662L45.5997 28.9996L45.8663 29.0662C46.533 29.1329 47.133 29.3329 47.733 29.5329C47.6663 29.3329 47.6663 29.1329 47.5997 28.9329C46.8663 26.6662 45.1997 24.9329 42.933 24.0662C42.7997 23.9996 42.5997 23.9329 42.4663 23.9329C40.933 23.4662 39.333 23.4662 37.7997 23.9996C34.533 25.0662 32.3997 27.9996 32.333 31.2662Z" fill="white" style="fill:white;fill-opacity:1;"/>
<path d="M31.2866 19.6836L29.6367 21.3335L31.2866 22.9834L32.9365 21.3335L31.2866 19.6836Z" fill="#F0263C" style="fill:#F0263C;fill:color(display-p3 0.9412 0.1490 0.2353);fill-opacity:1;"/>
<path d="M20.0537 28.8591L21.1131 30.9381L23.1921 29.8788L22.1327 27.7998L20.0537 28.8591Z" fill="#F0263C" style="fill:#F0263C;fill:color(display-p3 0.9412 0.1490 0.2353);fill-opacity:1;"/>
<path d="M25.3351 42.3376L27.6397 41.9727L27.2748 39.668L24.9702 40.033L25.3351 42.3376Z" fill="#F0263C" style="fill:#F0263C;fill:color(display-p3 0.9412 0.1490 0.2353);fill-opacity:1;"/>
<path d="M39.7904 41.5328L40.1554 39.2282L37.8507 38.8633L37.4858 41.1679L39.7904 41.5328Z" fill="#F0263C" style="fill:#F0263C;fill:color(display-p3 0.9412 0.1490 0.2353);fill-opacity:1;"/>
<path d="M43.489 27.5105L41.41 26.4512L40.3506 28.5302L42.4296 29.5895L43.489 27.5105Z" fill="#F0263C" style="fill:#F0263C;fill:color(display-p3 0.9412 0.1490 0.2353);fill-opacity:1;"/>
</g>
</g>
<defs>
<clipPath id="clip0_230_12097">
<rect width="64" height="64" rx="32" fill="white" style="fill:white;fill-opacity:1;"/>
</clipPath>
</defs>
</svg>
