<svg width="64" height="64" viewBox="0 0 64 64" fill="none" xmlns="http://www.w3.org/2000/svg">
<g clip-path="url(#clip0_230_12113)">
<mask id="mask0_230_12113" style="mask-type:luminance" maskUnits="userSpaceOnUse" x="0" y="0" width="64" height="64">
<path d="M64 32C64 14.3269 49.6731 0 32 0C14.3269 0 0 14.3269 0 32C0 49.6731 14.3269 64 32 64C49.6731 64 64 49.6731 64 32Z" fill="white" style="fill:white;fill-opacity:1;"/>
</mask>
<g mask="url(#mask0_230_12113)">
<path d="M64 32C64 14.3269 49.6731 0 32 0C14.3269 0 0 14.3269 0 32C0 49.6731 14.3269 64 32 64C49.6731 64 64 49.6731 64 32Z" fill="white" style="fill:white;fill-opacity:1;"/>
<mask id="mask1_230_12113" style="mask-type:alpha" maskUnits="userSpaceOnUse" x="0" y="0" width="64" height="64">
<path d="M32 64C49.6731 64 64 49.6731 64 32C64 14.3269 49.6731 0 32 0C14.3269 0 0 14.3269 0 32C0 49.6731 14.3269 64 32 64Z" fill="white" style="fill:white;fill-opacity:1;"/>
</mask>
<g mask="url(#mask1_230_12113)">
<path d="M6 0H64V64H6V0Z" fill="white" style="fill:white;fill-opacity:1;"/>
<path d="M-7 44.7266H71.0001V65.6634H-7V44.7266Z" fill="#231D9A" style="fill:#231D9A;fill:color(display-p3 0.1373 0.1137 0.6039);fill-opacity:1;"/>
<path d="M-7 44.7266H71.0001V71.0002H-7V44.7266Z" fill="#005B13" style="fill:#005B13;fill:color(display-p3 0.0000 0.3569 0.0745);fill-opacity:1;"/>
<path d="M-7 -7H71.0001V13.9368H-7V-7Z" fill="#231D9A" style="fill:#231D9A;fill:color(display-p3 0.1373 0.1137 0.6039);fill-opacity:1;"/>
<path d="M-7 -7H71.0001V19.2736H-7V-7Z" fill="#231D9A" style="fill:#231D9A;fill:color(display-p3 0.1373 0.1137 0.6039);fill-opacity:1;"/>
<path d="M-7 18.8633H71.0001V39.8001H-7V18.8633Z" fill="white" style="fill:white;fill-opacity:1;"/>
<path d="M-7 18.8633H71.0001V45.1369H-7V18.8633Z" fill="white" style="fill:white;fill-opacity:1;"/>
<path d="M31.5 31L38 40.4545H25L31.5 31Z" fill="black" style="fill:black;fill-opacity:1;"/>
<path d="M37 29.5C37 32.5376 34.5376 35 31.5 35C28.4624 35 26 32.5376 26 29.5C26 26.4624 28.4624 24 31.5 24C34.5376 24 37 26.4624 37 29.5Z" fill="white" style="fill:white;fill-opacity:1;"/>
<path fill-rule="evenodd" clip-rule="evenodd" d="M31.5 33C33.433 33 35 31.433 35 29.5C35 27.567 33.433 26 31.5 26C29.567 26 28 27.567 28 29.5C28 31.433 29.567 33 31.5 33ZM31.5 35C34.5376 35 37 32.5376 37 29.5C37 26.4624 34.5376 24 31.5 24C28.4624 24 26 26.4624 26 29.5C26 32.5376 28.4624 35 31.5 35Z" fill="black" style="fill:black;fill-opacity:1;"/>
</g>
</g>
</g>
<defs>
<clipPath id="clip0_230_12113">
<rect width="64" height="64" rx="32" fill="white" style="fill:white;fill-opacity:1;"/>
</clipPath>
</defs>
</svg>
