<svg width="64" height="64" viewBox="0 0 64 64" fill="none" xmlns="http://www.w3.org/2000/svg">
<g clip-path="url(#clip0_230_12569)">
<mask id="mask0_230_12569" style="mask-type:luminance" maskUnits="userSpaceOnUse" x="0" y="0" width="64" height="64">
<path d="M64 0H0V64H64V0Z" fill="white" style="fill:white;fill-opacity:1;"/>
</mask>
<g mask="url(#mask0_230_12569)">
<path d="M21.3333 62.1998V1.7998C8.93333 6.1998 0 18.0664 0 31.9998C0 45.9331 8.93333 57.7998 21.3333 62.1998Z" fill="black" style="fill:black;fill-opacity:1;"/>
<path d="M42.6663 1.8C39.333 0.666667 35.733 0 31.9997 0C28.2663 0 24.6663 0.666667 21.333 1.8V62.1333C24.6663 63.3333 28.2663 64 31.9997 64C35.733 64 39.333 63.3333 42.6663 62.2V1.8Z" fill="#FFD400" style="fill:#FFD400;fill:color(display-p3 1.0000 0.8314 0.0000);fill-opacity:1;"/>
<path d="M42.667 1.7998V62.1331C55.067 57.7998 64.0003 45.9331 64.0003 31.9998C64.0003 18.0664 55.067 6.1998 42.667 1.7998Z" fill="#F0263C" style="fill:#F0263C;fill:color(display-p3 0.9412 0.1490 0.2353);fill-opacity:1;"/>
</g>
</g>
<defs>
<clipPath id="clip0_230_12569">
<rect width="64" height="64" rx="32" fill="white" style="fill:white;fill-opacity:1;"/>
</clipPath>
</defs>
</svg>
