<svg width="64" height="64" viewBox="0 0 64 64" fill="none" xmlns="http://www.w3.org/2000/svg">
<g clip-path="url(#clip0_230_12717)">
<mask id="mask0_230_12717" style="mask-type:luminance" maskUnits="userSpaceOnUse" x="0" y="0" width="64" height="64">
<path d="M64 0H0V64H64V0Z" fill="white" style="fill:white;fill-opacity:1;"/>
</mask>
<g mask="url(#mask0_230_12717)">
<path d="M32 64C49.6731 64 64 49.6731 64 32C64 14.3269 49.6731 0 32 0C14.3269 0 0 14.3269 0 32C0 49.6731 14.3269 64 32 64Z" fill="#005B13" style="fill:#005B13;fill:color(display-p3 0.0000 0.3569 0.0745);fill-opacity:1;"/>
<path d="M42.6667 24H32V64C35.7333 64 39.3333 63.3333 42.6667 62.2V24Z" fill="#F0263C" style="fill:#F0263C;fill:color(display-p3 0.9412 0.1490 0.2353);fill-opacity:1;"/>
<path d="M42.667 62.2C46.667 60.8 50.267 58.6 53.3337 55.8667V24H42.667V62.2Z" fill="black" style="fill:black;fill-opacity:1;"/>
<path d="M53.333 24V55.8667C59.8663 50 63.9997 41.4667 63.9997 32C63.9997 29.2667 63.6663 26.5333 62.9997 24H53.333Z" fill="#CC9500" style="fill:#CC9500;fill:color(display-p3 0.8000 0.5843 0.0000);fill-opacity:1;"/>
<path d="M51.9997 11.9997L50.6663 13.3331L49.333 11.9997L50.6663 10.6664H46.6663V11.9997L45.333 13.3331L43.9997 11.9997H41.333L38.6663 10.6664H37.333L35.9997 9.33301H33.333V10.6664L34.6663 11.9997V13.3331H35.9997V14.6664H37.333L39.9997 15.9997H41.333L43.9997 17.3331L45.333 18.6664V19.9997L43.9997 21.3331H46.5997L47.9997 19.9997L49.2663 21.3331H51.9997L50.6663 19.9997V18.6664L51.9997 17.3331L54.6663 15.9997H55.9997L58.6663 14.6664H58.8663C58.0663 13.4664 57.1997 12.2664 56.2663 11.1997L54.6663 11.9997H51.9997Z" fill="#CC9500" style="fill:#CC9500;fill:color(display-p3 0.8000 0.5843 0.0000);fill-opacity:1;"/>
</g>
</g>
<defs>
<clipPath id="clip0_230_12717">
<rect width="64" height="64" rx="32" fill="white" style="fill:white;fill-opacity:1;"/>
</clipPath>
</defs>
</svg>
