<svg width="64" height="64" viewBox="0 0 64 64" fill="none" xmlns="http://www.w3.org/2000/svg">
<g clip-path="url(#clip0_230_12384)">
<mask id="mask0_230_12384" style="mask-type:alpha" maskUnits="userSpaceOnUse" x="0" y="0" width="64" height="64">
<path d="M32 64C49.6731 64 64 49.6731 64 32C64 14.3269 49.6731 0 32 0C14.3269 0 0 14.3269 0 32C0 49.6731 14.3269 64 32 64Z" fill="#D9D9D9" style="fill:#D9D9D9;fill:color(display-p3 0.8510 0.8510 0.8510);fill-opacity:1;"/>
</mask>
<g mask="url(#mask0_230_12384)">
<path d="M44 0H20V64H44V0Z" fill="#FFD400" style="fill:#FFD400;fill:color(display-p3 1.0000 0.8314 0.0000);fill-opacity:1;"/>
<path d="M20 0H0V64H20V0Z" fill="#231D9A" style="fill:#231D9A;fill:color(display-p3 0.1373 0.1137 0.6039);fill-opacity:1;"/>
<path d="M64 0H44V64H64V0Z" fill="#F0263C" style="fill:#F0263C;fill:color(display-p3 0.9412 0.1490 0.2353);fill-opacity:1;"/>
</g>
<path fill-rule="evenodd" clip-rule="evenodd" d="M24.0003 24.1462L25.5559 26.6664H23.3337L22.667 30.007L24.8892 32.8202L23.3337 37.4356V39.3843L29.7781 41.6554L29.3337 42.8275L30.667 43.7653L31.3337 43.5308L32.0003 43.9997V43.9484L32.667 43.4796L33.3337 43.714L34.667 42.7763L34.2225 41.6041L40.667 39.333V37.3843L39.1114 32.8202L41.3337 30.007L40.667 26.9594H38.4448L40.0003 24.1462L38.8892 22.7396H36.0003V23.9118H34.2225L34.667 21.8019L33.7781 21.333L32.0003 21.8019L30.2225 21.333L29.3337 21.8019L29.7781 23.9118H28.0003V22.7396H25.1114L24.0003 24.1462Z" fill="#CC9500" style="fill:#CC9500;fill:color(display-p3 0.8000 0.5843 0.0000);fill-opacity:1;"/>
<path d="M30.667 26.667H26.667V32.0003H30.667V26.667Z" fill="#F0263C" style="fill:#F0263C;fill:color(display-p3 0.9412 0.1490 0.2353);fill-opacity:1;"/>
<path d="M26.667 33.333H30.667V38.6663L26.667 37.333V33.333Z" fill="#FFD400" style="fill:#FFD400;fill:color(display-p3 1.0000 0.8314 0.0000);fill-opacity:1;"/>
<path d="M37.333 33.333H33.333V38.6663L37.333 37.333V33.333Z" fill="#FFD400" style="fill:#FFD400;fill:color(display-p3 1.0000 0.8314 0.0000);fill-opacity:1;"/>
<path d="M37.333 26.667H33.333V32.0003H37.333V26.667Z" fill="#FFD400" style="fill:#FFD400;fill:color(display-p3 1.0000 0.8314 0.0000);fill-opacity:1;"/>
<path d="M34.6663 26.667H33.333V32.0003H34.6663V26.667Z" fill="#F0263C" style="fill:#F0263C;fill:color(display-p3 0.9412 0.1490 0.2353);fill-opacity:1;"/>
<path d="M29.333 33.333H30.6663V38.6663L29.333 38.2376V33.333Z" fill="#F0263C" style="fill:#F0263C;fill:color(display-p3 0.9412 0.1490 0.2353);fill-opacity:1;"/>
<path d="M26.667 33.333H28.0003V37.7617L26.667 37.333V33.333Z" fill="#F0263C" style="fill:#F0263C;fill:color(display-p3 0.9412 0.1490 0.2353);fill-opacity:1;"/>
<path d="M37.3333 26.667H36V32.0003H37.3333V26.667Z" fill="#F0263C" style="fill:#F0263C;fill:color(display-p3 0.9412 0.1490 0.2353);fill-opacity:1;"/>
<path d="M27.333 29.3333L27.9997 30.6667H29.333L29.9997 29.3333L28.6663 28L27.333 29.3333Z" fill="#FFD400" style="fill:#FFD400;fill:color(display-p3 1.0000 0.8314 0.0000);fill-opacity:1;"/>
<path d="M33.333 33.333H34.6663L33.333 34.6663V33.333Z" fill="#F0263C" style="fill:#F0263C;fill:color(display-p3 0.9412 0.1490 0.2353);fill-opacity:1;"/>
<path d="M33.333 36H34.6663L33.333 37.3333V36Z" fill="#F0263C" style="fill:#F0263C;fill:color(display-p3 0.9412 0.1490 0.2353);fill-opacity:1;"/>
<path d="M37.3337 33.333H34.667V34.6663H37.3337V33.333Z" fill="#F0263C" style="fill:#F0263C;fill:color(display-p3 0.9412 0.1490 0.2353);fill-opacity:1;"/>
<path d="M37.3337 36H34.667V37.3333H37.3337V36Z" fill="#F0263C" style="fill:#F0263C;fill:color(display-p3 0.9412 0.1490 0.2353);fill-opacity:1;"/>
</g>
<defs>
<clipPath id="clip0_230_12384">
<rect width="64" height="64" rx="32" fill="white" style="fill:white;fill-opacity:1;"/>
</clipPath>
</defs>
</svg>
