<svg width="64" height="64" viewBox="0 0 64 64" fill="none" xmlns="http://www.w3.org/2000/svg">
<g clip-path="url(#clip0_230_12133)">
<mask id="mask0_230_12133" style="mask-type:luminance" maskUnits="userSpaceOnUse" x="0" y="0" width="64" height="64">
<path d="M64 32C64 14.3269 49.6731 0 32 0C14.3269 0 0 14.3269 0 32C0 49.6731 14.3269 64 32 64C49.6731 64 64 49.6731 64 32Z" fill="white" style="fill:white;fill-opacity:1;"/>
</mask>
<g mask="url(#mask0_230_12133)">
<path d="M64 32C64 14.3269 49.6731 0 32 0C14.3269 0 0 14.3269 0 32C0 49.6731 14.3269 64 32 64C49.6731 64 64 49.6731 64 32Z" fill="white" style="fill:white;fill-opacity:1;"/>
<mask id="mask1_230_12133" style="mask-type:alpha" maskUnits="userSpaceOnUse" x="0" y="0" width="64" height="64">
<path d="M32 64C49.6731 64 64 49.6731 64 32C64 14.3269 49.6731 0 32 0C14.3269 0 0 14.3269 0 32C0 49.6731 14.3269 64 32 64Z" fill="#C4C4C4" style="fill:#C4C4C4;fill:color(display-p3 0.7686 0.7686 0.7686);fill-opacity:1;"/>
</mask>
<g mask="url(#mask1_230_12133)">
<path d="M0 0H64V64H0V0Z" fill="#F0263C" style="fill:#F0263C;fill:color(display-p3 0.9412 0.1490 0.2353);fill-opacity:1;"/>
<path d="M36 43V64H64V43H36Z" fill="#005B13" style="fill:#005B13;fill:color(display-p3 0.0000 0.3569 0.0745);fill-opacity:1;"/>
<path d="M36 1.13523e-06V21H64V0L36 1.13523e-06Z" fill="white" style="fill:white;fill-opacity:1;"/>
<path fill-rule="evenodd" clip-rule="evenodd" d="M27.6163 8.4268L26.3835 7.57227L21.8291 14.1428L13.5718 19.8837L14.428 21.1153L22.9076 15.2199L27.6163 8.4268Z" fill="white" style="fill:white;fill-opacity:1;"/>
<path fill-rule="evenodd" clip-rule="evenodd" d="M15.3838 8.4268L16.6166 7.57227L21.171 14.1428L29.4283 19.8837L28.5721 21.1153L20.0925 15.2199L15.3838 8.4268Z" fill="white" style="fill:white;fill-opacity:1;"/>
<path fill-rule="evenodd" clip-rule="evenodd" d="M21 10.917L20 11.5004V15.5004L16.3333 16.0004L15 16.6004V17.2004L21.2222 18.5004L23 17.4004V16.5004V15.0004V14.0003V11.5004L22 10.917H21Z" fill="white" style="fill:white;fill-opacity:1;"/>
<mask id="mask2_230_12133" style="mask-type:luminance" maskUnits="userSpaceOnUse" x="14" y="9" width="10" height="11">
<path d="M24 9.91699H14V19.917H24V9.91699Z" fill="white" style="fill:white;fill-opacity:1;"/>
<path fill-rule="evenodd" clip-rule="evenodd" d="M21 10.917L20 11.5004V15.5004L16.3333 16.0004L15 16.6004V17.2004L21.2222 18.5004L23 17.4004V16.5004V15.0004V14.0003V11.5004L22 10.917H21Z" fill="#F0263C" style="fill:#F0263C;fill:color(display-p3 0.9412 0.1490 0.2353);fill-opacity:1;"/>
</mask>
<g mask="url(#mask2_230_12133)">
<path d="M20 11.5004L19.7481 11.0685L19.5 11.2132V11.5004H20ZM21 10.917V10.417H20.8648L20.7481 10.4851L21 10.917ZM20 15.5004L20.0676 15.9958L20.5 15.9368V15.5004H20ZM16.3333 16.0004L16.2658 15.5049L16.1941 15.5147L16.1282 15.5444L16.3333 16.0004ZM15 16.6004L14.7948 16.1444L14.5 16.2771V16.6004H15ZM15 17.2004H14.5V17.6067L14.8977 17.6898L15 17.2004ZM21.2222 18.5004L21.12 18.9898L21.3155 19.0306L21.4853 18.9255L21.2222 18.5004ZM23 17.4004L23.2631 17.8255L23.5 17.679V17.4004H23ZM23 11.5004H23.5V11.2132L23.2519 11.0685L23 11.5004ZM22 10.917L22.2519 10.4851L22.1352 10.417H22V10.917ZM20.2519 11.9322L21.2519 11.3489L20.7481 10.4851L19.7481 11.0685L20.2519 11.9322ZM20.5 15.5004V11.5004H19.5V15.5004H20.5ZM16.4009 16.4958L20.0676 15.9958L19.9324 15.0049L16.2658 15.5049L16.4009 16.4958ZM15.2052 17.0563L16.5385 16.4563L16.1282 15.5444L14.7948 16.1444L15.2052 17.0563ZM15.5 17.2004V16.6004H14.5V17.2004H15.5ZM21.3245 18.0109L15.1023 16.7109L14.8977 17.6898L21.12 18.9898L21.3245 18.0109ZM22.7369 16.9752L20.9591 18.0752L21.4853 18.9255L23.2631 17.8255L22.7369 16.9752ZM22.5 16.5004V17.4004H23.5V16.5004H22.5ZM22.5 15.0004V16.5004H23.5V15.0004H22.5ZM22.5 14.0003V15.0004H23.5V14.0003H22.5ZM22.5 11.5004V14.0003H23.5V11.5004H22.5ZM21.7481 11.3489L22.7481 11.9322L23.2519 11.0685L22.2519 10.4851L21.7481 11.3489ZM21 11.417H22V10.417H21V11.417Z" fill="#F0263C" style="fill:#F0263C;fill:color(display-p3 0.9412 0.1490 0.2353);fill-opacity:1;"/>
</g>
<path fill-rule="evenodd" clip-rule="evenodd" d="M20.75 12V8.5H22.25V12H20.75Z" fill="white" style="fill:white;fill-opacity:1;"/>
<path d="M21.4528 7.61914L22.906 8.45279L21.4528 9.47803L19.9995 8.45279L21.4528 7.61914Z" fill="white" style="fill:white;fill-opacity:1;"/>
</g>
<path d="M14.0002 12.8252H13.8252V13.0002V15.0002V15.1752H14.0002H15.8752H15.8981L15.9203 15.1693L17.7731 14.6752H21.5002H25.2273L27.0801 15.1693L27.1023 15.1752H27.1252H29.0002H29.1752V15.0002V13.0002V12.8252H29.0002H27.1252H27.1023L27.0801 12.8311L25.2273 13.3252H21.5002H17.7731L15.9203 12.8311L15.8981 12.8252H15.8752H14.0002Z" fill="white" stroke="#F0263C" style="fill:white;fill-opacity:1;stroke:#F0263C;stroke:color(display-p3 0.9412 0.1490 0.2353);stroke-opacity:1;" stroke-width="0.35"/>
</g>
</g>
<defs>
<clipPath id="clip0_230_12133">
<rect width="64" height="64" rx="32" fill="white" style="fill:white;fill-opacity:1;"/>
</clipPath>
</defs>
</svg>
