<svg width="64" height="64" viewBox="0 0 64 64" fill="none" xmlns="http://www.w3.org/2000/svg">
<g clip-path="url(#clip0_230_12238)">
<mask id="mask0_230_12238" style="mask-type:luminance" maskUnits="userSpaceOnUse" x="0" y="0" width="64" height="64">
<path d="M64 0H0V64H64V0Z" fill="white" style="fill:white;fill-opacity:1;"/>
</mask>
<g mask="url(#mask0_230_12238)">
<path d="M21.3333 62.1998V1.7998C8.93333 6.1998 0 18.0665 0 31.9998C0 45.9331 8.93333 57.7998 21.3333 62.1998Z" fill="#005B13" style="fill:#005B13;fill:color(display-p3 0.0000 0.3569 0.0745);fill-opacity:1;"/>
<path d="M42.6663 1.8C39.333 0.666667 35.733 0 31.9997 0C28.2663 0 24.6663 0.666667 21.333 1.8V62.1333C24.6663 63.3333 28.2663 64 31.9997 64C35.733 64 39.333 63.3333 42.6663 62.2V1.8Z" fill="white" style="fill:white;fill-opacity:1;"/>
<path d="M42.667 1.7998V62.1331C55.067 57.7998 64.0003 45.9331 64.0003 31.9998C64.0003 18.0665 55.067 6.1998 42.667 1.7998Z" fill="#F0263C" style="fill:#F0263C;fill:color(display-p3 0.9412 0.1490 0.2353);fill-opacity:1;"/>
<path d="M29.3333 28V29.3333L30.6667 30.6667L29.3333 33.3333H32H33.3333V34.6667H36L34.6667 32H36L37.3333 34.6667C38.1333 33.5333 38.6667 32.2 38.6667 30.6667C38.6667 27 35.6667 24 32 24V26.6667L30.6 25.3333H29.3333L28 26.6667H29.3333V28Z" fill="#CC9500" style="fill:#CC9500;fill:color(display-p3 0.8000 0.5843 0.0000);fill-opacity:1;"/>
<path d="M28 36L29.3333 38.6667H30.6667V37.3333L28 36Z" fill="#78C9FF" style="fill:#78C9FF;fill:color(display-p3 0.4706 0.7882 1.0000);fill-opacity:1;"/>
<path d="M33.333 38.6667H34.6663L35.9997 36L33.333 37.3333V38.6667Z" fill="#78C9FF" style="fill:#78C9FF;fill:color(display-p3 0.4706 0.7882 1.0000);fill-opacity:1;"/>
<path d="M31.9997 34.666H25.333L26.6663 35.9993H27.9997H35.9997H37.333L38.6663 34.666H35.9997H33.333H31.9997Z" fill="#005B13" style="fill:#005B13;fill:color(display-p3 0.0000 0.3569 0.0745);fill-opacity:1;"/>
<path d="M33.3337 37.334H30.667V38.6673H33.3337V37.334Z" fill="#FFD400" style="fill:#FFD400;fill:color(display-p3 1.0000 0.8314 0.0000);fill-opacity:1;"/>
<path d="M33.3333 33.334H32V34.6673H33.3333V33.334Z" fill="#FFD400" style="fill:#FFD400;fill:color(display-p3 1.0000 0.8314 0.0000);fill-opacity:1;"/>
<path d="M28 33.3333H29.3333V32L28 33.3333Z" fill="#FFD400" style="fill:#FFD400;fill:color(display-p3 1.0000 0.8314 0.0000);fill-opacity:1;"/>
<path d="M26.6667 33.334H28L29.3333 32.0007L29.0667 30.734L28 30.6673V29.334H29.3333V28.0007L28 26.6673L26.6667 25.334V26.6673L28 28.0007L26.6667 29.334V30.6673L28 32.0007H26.6667H25.3333V29.334H24V30.6673L25.3333 33.334H26.6667Z" fill="#005B13" style="fill:#005B13;fill:color(display-p3 0.0000 0.3569 0.0745);fill-opacity:1;"/>
<path d="M39.8665 33.334C39.1998 37.134 35.9331 40.0007 31.9998 40.0007C28.0665 40.0007 24.7331 37.134 24.1331 33.334H22.7998C23.4665 37.8673 27.3331 41.334 31.9998 41.334C36.6665 41.334 40.5998 37.8673 41.1998 33.334H39.8665Z" fill="#005B13" style="fill:#005B13;fill:color(display-p3 0.0000 0.3569 0.0745);fill-opacity:1;"/>
</g>
</g>
<defs>
<clipPath id="clip0_230_12238">
<rect width="64" height="64" rx="32" fill="white" style="fill:white;fill-opacity:1;"/>
</clipPath>
</defs>
</svg>
