<svg width="64" height="64" viewBox="0 0 64 64" fill="none" xmlns="http://www.w3.org/2000/svg">
<g clip-path="url(#clip0_230_11775)">
<mask id="mask0_230_11775" style="mask-type:luminance" maskUnits="userSpaceOnUse" x="0" y="0" width="64" height="64">
<path d="M64 32C64 14.3269 49.6731 0 32 0C14.3269 0 0 14.3269 0 32C0 49.6731 14.3269 64 32 64C49.6731 64 64 49.6731 64 32Z" fill="white" style="fill:white;fill-opacity:1;"/>
</mask>
<g mask="url(#mask0_230_11775)">
<mask id="mask1_230_11775" style="mask-type:alpha" maskUnits="userSpaceOnUse" x="0" y="0" width="64" height="64">
<path d="M32 64C49.6731 64 64 49.6731 64 32C64 14.3269 49.6731 0 32 0C14.3269 0 0 14.3269 0 32C0 49.6731 14.3269 64 32 64Z" fill="#C4C4C4" style="fill:#C4C4C4;fill:color(display-p3 0.7686 0.7686 0.7686);fill-opacity:1;"/>
</mask>
<g mask="url(#mask1_230_11775)">
<path d="M0 0H64V64H0V0Z" fill="#FFD400" style="fill:#FFD400;fill:color(display-p3 1.0000 0.8314 0.0000);fill-opacity:1;"/>
<path d="M-3 2V17.5001L68 48.0001V32.5002L-3 2Z" fill="white" style="fill:white;fill-opacity:1;"/>
<path d="M-3 17V32.5002L68 63.0002V47.5002L-3 17Z" fill="black" style="fill:black;fill-opacity:1;"/>
<path d="M20 39H18L17.5 41H20.5L20 39Z" fill="#F0263C" style="fill:#F0263C;fill:color(display-p3 0.9412 0.1490 0.2353);fill-opacity:1;"/>
<path d="M33 17H31V22H33V17Z" fill="#F0263C" style="fill:#F0263C;fill:color(display-p3 0.9412 0.1490 0.2353);fill-opacity:1;"/>
<path d="M33 27H31V40H33V27Z" fill="#F0263C" style="fill:#F0263C;fill:color(display-p3 0.9412 0.1490 0.2353);fill-opacity:1;"/>
<path d="M39.9999 43.4995C39.4293 42.6783 39.4295 42.6781 39.4296 42.678C39.4295 42.678 39.4297 42.678 39.4296 42.678C39.4287 42.6786 39.4267 42.6801 39.4239 42.682C39.4183 42.6858 39.409 42.6922 39.396 42.7009C39.3701 42.7183 39.3299 42.745 39.2761 42.7799C39.1686 42.8496 39.0076 42.9514 38.8007 43.0746C38.3863 43.3213 37.7922 43.6517 37.0796 43.9817C35.636 44.6504 33.7899 45.2787 31.9999 45.2787V47.2787C34.2099 47.2787 36.3638 46.5174 37.9202 45.7965C38.7076 45.4317 39.3635 45.0672 39.8241 44.7929C40.0547 44.6556 40.2375 44.5402 40.3643 44.4579C40.4278 44.4168 40.4773 44.3839 40.512 44.3606C40.5293 44.3489 40.5429 44.3396 40.5527 44.333C40.5576 44.3296 40.5616 44.3269 40.5645 44.3249C40.566 44.3238 40.5673 44.323 40.5682 44.3223C40.5687 44.3219 40.5692 44.3216 40.5696 44.3214C40.5695 44.3215 40.5697 44.3213 40.5696 44.3214C40.5698 44.3213 40.5705 44.3207 39.9999 43.4995ZM31.9999 45.2787C30.2099 45.2787 28.3638 44.6504 26.9202 43.9817C26.2076 43.6517 25.6135 43.3213 25.1991 43.0746C24.9922 42.9514 24.8312 42.8496 24.7237 42.7799C24.6699 42.745 24.6297 42.7183 24.6038 42.7009C24.5908 42.6922 24.5815 42.6858 24.5759 42.682C24.5731 42.6801 24.5713 42.6788 24.5704 42.6782C24.5703 42.6782 24.5705 42.6782 24.5704 42.6782C24.5705 42.6783 24.5705 42.6783 23.9999 43.4995C23.4293 44.3207 23.4295 44.3209 23.4297 44.321C23.4296 44.3209 23.4298 44.3211 23.4297 44.321C23.4301 44.3212 23.4311 44.3219 23.4316 44.3223C23.4325 44.323 23.4338 44.3238 23.4353 44.3249C23.4382 44.3269 23.4422 44.3296 23.4471 44.333C23.4569 44.3396 23.4705 44.3489 23.4878 44.3606C23.5225 44.3839 23.572 44.4168 23.6355 44.4579C23.7623 44.5402 23.9451 44.6556 24.1757 44.7929C24.6363 45.0672 25.2922 45.4317 26.0796 45.7965C27.636 46.5174 29.7899 47.2787 31.9999 47.2787V45.2787Z" fill="#F0263C" style="fill:#F0263C;fill:color(display-p3 0.9412 0.1490 0.2353);fill-opacity:1;"/>
<path d="M27 47C25.5714 45.6667 23.7857 45 22 45" stroke="#F0263C" style="stroke:#F0263C;stroke:color(display-p3 0.9412 0.1490 0.2353);stroke-opacity:1;" stroke-width="2"/>
<path d="M37 47C38.4286 45.6667 40.2143 45 42 45" stroke="#F0263C" style="stroke:#F0263C;stroke:color(display-p3 0.9412 0.1490 0.2353);stroke-opacity:1;" stroke-width="2"/>
<path d="M28 23H29.5L32 23.5L34.5 23H36L40 24L38 25.5L35 26L33.5 25L32.75 26H32H31.25L30.5 25L29 26L26 25.5L24 24L28 23Z" fill="#F0263C" style="fill:#F0263C;fill:color(display-p3 0.9412 0.1490 0.2353);fill-opacity:1;"/>
<path fill-rule="evenodd" clip-rule="evenodd" d="M25.0455 37.9538C25.7393 39.1742 26.7421 40.1905 27.9531 40.9007C29.1641 41.6108 30.5406 41.9898 31.9445 41.9996C33.3483 42.0093 34.73 41.6495 35.9507 40.9562C37.1714 40.2629 38.1882 39.2606 38.899 38.0499C39.6097 36.8393 39.9894 35.4629 39.9998 34.0591C40.0102 32.6553 39.651 31.2734 38.9583 30.0524L40.6979 29.0655C41.5638 30.5919 42.0127 32.3192 41.9997 34.0739C41.9867 35.8287 41.5122 37.5492 40.6237 39.0625C39.7353 40.5758 38.4643 41.8287 36.9384 42.6953C35.4125 43.5619 33.6854 44.0117 31.9306 43.9995C30.1758 43.9873 28.4551 43.5136 26.9414 42.6259C25.4276 41.7382 24.1742 40.4678 23.3068 38.9423C22.4395 37.4168 21.9889 35.6899 22.0002 33.9351C22.0116 32.1803 22.4845 30.4594 23.3714 28.9453L25.0972 29.9562C24.3876 31.1675 24.0092 32.5442 24.0002 33.948C23.9911 35.3519 24.3516 36.7334 25.0455 37.9538Z" fill="#F0263C" style="fill:#F0263C;fill:color(display-p3 0.9412 0.1490 0.2353);fill-opacity:1;"/>
<path d="M16.6154 30.7692L16 28L18 28.6923L18.4615 30H18.9999L19.3846 31.4615L20 32.1538V38H18V32.8462L16.6154 30.7692Z" fill="#F0263C" style="fill:#F0263C;fill:color(display-p3 0.9412 0.1490 0.2353);fill-opacity:1;"/>
</g>
</g>
</g>
<defs>
<clipPath id="clip0_230_11775">
<rect width="64" height="64" rx="32" fill="white" style="fill:white;fill-opacity:1;"/>
</clipPath>
</defs>
</svg>
