<svg width="64" height="64" viewBox="0 0 64 64" fill="none" xmlns="http://www.w3.org/2000/svg">
<g clip-path="url(#clip0_230_12530)">
<mask id="mask0_230_12530" style="mask-type:luminance" maskUnits="userSpaceOnUse" x="0" y="0" width="64" height="64">
<path d="M64 0H0V64H64V0Z" fill="white" style="fill:white;fill-opacity:1;"/>
</mask>
<g mask="url(#mask0_230_12530)">
<path d="M32 0C14.3333 0 0 14.3333 0 32H64C64 14.3333 49.6667 0 32 0Z" fill="#F0263C" style="fill:#F0263C;fill:color(display-p3 0.9412 0.1490 0.2353);fill-opacity:1;"/>
<path d="M32 64C49.6667 64 64 49.6667 64 32H0C0 49.6667 14.3333 64 32 64Z" fill="white" style="fill:white;fill-opacity:1;"/>
<path d="M25.3649 10.6455L23.3379 12.6725L25.3649 14.6995L27.3919 12.6725L25.3649 10.6455Z" fill="white" style="fill:white;fill-opacity:1;"/>
<path d="M21.1948 13.9805L18.6406 15.282L19.9421 17.8362L22.4963 16.5347L21.1948 13.9805Z" fill="white" style="fill:white;fill-opacity:1;"/>
<path d="M23.6888 19.3896L20.8574 19.838L21.3058 22.6694L24.1372 22.2211L23.6888 19.3896Z" fill="white" style="fill:white;fill-opacity:1;"/>
<path d="M26.9483 19.3623L26.5 22.1937L29.3314 22.642L29.7798 19.8106L26.9483 19.3623Z" fill="white" style="fill:white;fill-opacity:1;"/>
<path d="M29.4636 13.9521L28.1621 16.5063L30.7163 17.8078L32.0178 15.2536L29.4636 13.9521Z" fill="white" style="fill:white;fill-opacity:1;"/>
<path d="M14.6654 18C14.6654 13.4 17.7987 9.53333 21.9987 8.4C21.132 8.13333 20.2654 8 19.332 8C13.7987 8 9.33203 12.4667 9.33203 18C9.33203 23.5333 13.7987 28 19.332 28C20.2654 28 21.132 27.8667 21.9987 27.6C17.7987 26.4667 14.6654 22.6 14.6654 18Z" fill="white" style="fill:white;fill-opacity:1;"/>
</g>
</g>
<defs>
<clipPath id="clip0_230_12530">
<rect width="64" height="64" rx="32" fill="white" style="fill:white;fill-opacity:1;"/>
</clipPath>
</defs>
</svg>
