<svg width="64" height="64" viewBox="0 0 64 64" fill="none" xmlns="http://www.w3.org/2000/svg">
<g clip-path="url(#clip0_230_11796)">
<mask id="mask0_230_11796" style="mask-type:luminance" maskUnits="userSpaceOnUse" x="0" y="0" width="64" height="64">
<path d="M64 0H0V64H64V0Z" fill="white" style="fill:white;fill-opacity:1;"/>
</mask>
<g mask="url(#mask0_230_11796)">
<path d="M63.9994 32C63.9994 14.3333 49.6661 0 31.9994 0C23.1327 0 15.1994 3.6 9.39941 9.4L31.9994 32H63.9994Z" fill="white" style="fill:white;fill-opacity:1;"/>
<path d="M31.9994 32L9.39941 54.6C15.1994 60.4 23.1327 64 31.9994 64C49.6661 64 63.9994 49.6667 63.9994 32H31.9994Z" fill="#F0263C" style="fill:#F0263C;fill:color(display-p3 0.9412 0.1490 0.2353);fill-opacity:1;"/>
<path d="M32 31.9994L9.4 9.39941C3.6 15.1327 0 23.1327 0 31.9994C0 40.8661 3.6 48.8661 9.4 54.5994L32 31.9994Z" fill="#231D9A" style="fill:#231D9A;fill:color(display-p3 0.1373 0.1137 0.6039);fill-opacity:1;"/>
</g>
</g>
<defs>
<clipPath id="clip0_230_11796">
<rect width="64" height="64" rx="32" fill="white" style="fill:white;fill-opacity:1;"/>
</clipPath>
</defs>
</svg>
