<svg width="64" height="64" viewBox="0 0 64 64" fill="none" xmlns="http://www.w3.org/2000/svg">
<g clip-path="url(#clip0_230_13003)">
<mask id="mask0_230_13003" style="mask-type:luminance" maskUnits="userSpaceOnUse" x="0" y="0" width="64" height="64">
<path d="M64 0H0V64H64V0Z" fill="white" style="fill:white;fill-opacity:1;"/>
</mask>
<g mask="url(#mask0_230_13003)">
<path d="M0 32.0007C0 35.734 0.666667 39.334 1.8 42.6673H62.1333C63.3333 39.334 64 35.734 64 32.0007C64 28.2673 63.3333 24.6673 62.2 21.334H1.8C0.666667 24.6673 0 28.2673 0 32.0007Z" fill="#F0263C" style="fill:#F0263C;fill:color(display-p3 0.9412 0.1490 0.2353);fill-opacity:1;"/>
<path d="M1.80078 21.3333H62.1341C57.8008 8.93333 45.9341 0 32.0008 0C18.0674 0 6.20078 8.93333 1.80078 21.3333Z" fill="black" style="fill:black;fill-opacity:1;"/>
<path d="M62.2008 42.666H1.80078C6.20078 55.066 18.0674 63.9993 32.0008 63.9993C45.9341 63.9993 57.8008 55.066 62.2008 42.666Z" fill="#FFD400" style="fill:#FFD400;fill:color(display-p3 1.0000 0.8314 0.0000);fill-opacity:1;"/>
</g>
</g>
<defs>
<clipPath id="clip0_230_13003">
<rect width="64" height="64" rx="32" fill="white" style="fill:white;fill-opacity:1;"/>
</clipPath>
</defs>
</svg>
