<svg width="64" height="64" viewBox="0 0 64 64" fill="none" xmlns="http://www.w3.org/2000/svg">
<g clip-path="url(#clip0_230_12025)">
<mask id="mask0_230_12025" style="mask-type:luminance" maskUnits="userSpaceOnUse" x="0" y="0" width="64" height="64">
<path d="M64 0H0V64H64V0Z" fill="white" style="fill:white;fill-opacity:1;"/>
</mask>
<g mask="url(#mask0_230_12025)">
<mask id="mask1_230_12025" style="mask-type:alpha" maskUnits="userSpaceOnUse" x="0" y="0" width="64" height="64">
<path d="M32 64C49.6731 64 64 49.6731 64 32C64 14.3269 49.6731 0 32 0C14.3269 0 0 14.3269 0 32C0 49.6731 14.3269 64 32 64Z" fill="#231D9A" style="fill:#231D9A;fill:color(display-p3 0.1373 0.1137 0.6039);fill-opacity:1;"/>
</mask>
<g mask="url(#mask1_230_12025)">
<path d="M64 0H0V64H64V0Z" fill="#78C9FF" style="fill:#78C9FF;fill:color(display-p3 0.4706 0.7882 1.0000);fill-opacity:1;"/>
<path d="M35 25.75H57.75C57.75 25.75 57.75 36.125 57.75 41.75C57.75 47.375 46.375 55.25 46.375 55.25C46.375 55.25 35 47.5 35 41.75C35 36 35 25.75 35 25.75Z" fill="white" style="fill:white;fill-opacity:1;"/>
<path d="M58 24H35V30H58V24Z" fill="#F0263C" style="fill:#F0263C;fill:color(display-p3 0.9412 0.1490 0.2353);fill-opacity:1;"/>
<path d="M47.75 30V54.25L46.375 55.25L45 54.25V30H47.75Z" fill="#F0263C" style="fill:#F0263C;fill:color(display-p3 0.9412 0.1490 0.2353);fill-opacity:1;"/>
<path d="M57.75 42H35V39.25H57.75V42Z" fill="#F0263C" style="fill:#F0263C;fill:color(display-p3 0.9412 0.1490 0.2353);fill-opacity:1;"/>
<path d="M52 48C53.1046 48 54 47.1046 54 46C54 44.8954 53.1046 44 52 44C50.8954 44 50 44.8954 50 46C50 47.1046 50.8954 48 52 48Z" fill="#005B13" style="fill:#005B13;fill:color(display-p3 0.0000 0.3569 0.0745);fill-opacity:1;"/>
<path d="M52 38H54V32H52V38Z" fill="#960A3C" style="fill:#960A3C;fill:color(display-p3 0.5882 0.0392 0.2353);fill-opacity:1;"/>
<path d="M43.7257 32.9262L41.9531 32L39.3599 36.9627L41.1325 37.889L43.7257 32.9262Z" fill="#005B13" style="fill:#005B13;fill:color(display-p3 0.0000 0.3569 0.0745);fill-opacity:1;"/>
<path d="M36.2128 32.9262L37.9854 32L40.5786 36.9627L38.806 37.889L36.2128 32.9262Z" fill="#005B13" style="fill:#005B13;fill:color(display-p3 0.0000 0.3569 0.0745);fill-opacity:1;"/>
<path d="M56 33V35L54.5 34H53H51.5L50 35V33L51.5 32H53H54.5L56 33Z" fill="#005B13" style="fill:#005B13;fill:color(display-p3 0.0000 0.3569 0.0745);fill-opacity:1;"/>
<mask id="mask2_230_12025" style="mask-type:alpha" maskUnits="userSpaceOnUse" x="0" y="0" width="30" height="32">
<path d="M30 0H0V32H30V0Z" fill="#D9D9D9" style="fill:#D9D9D9;fill:color(display-p3 0.8510 0.8510 0.8510);fill-opacity:1;"/>
</mask>
<g mask="url(#mask2_230_12025)">
<path d="M30 0H0V32H30V0Z" fill="#231D9A" style="fill:#231D9A;fill:color(display-p3 0.1373 0.1137 0.6039);fill-opacity:1;"/>
<path d="M10.0827 12V11.6667L-4.58398 2C-5.25368 2.82963 -6.07186 3.75802 -6.58398 4.66667L4.74935 12H10.0827Z" fill="#F0263C" style="fill:#F0263C;fill:color(display-p3 0.9412 0.1490 0.2353);fill-opacity:1;"/>
<path d="M9.74884 10.133L-2.8849 1.76626C-3.1849 2.09959 -3.4849 2.43293 -3.75156 2.76626L9.78218 11.6997V11.9997H5.34884L-5.25156 4.99959C-5.45156 5.39959 -5.65156 5.79959 -5.85156 6.19959L2.94884 11.9997H0.598842H-2.65155C-2.75155 12.433 -2.85155 12.8663 -2.91821 13.333H11.0822V-0.666992C10.6155 -0.600326 10.1822 -0.500326 9.74882 -0.400326L9.74884 10.133Z" fill="white" style="fill:white;fill-opacity:1;"/>
<path d="M-2.9177 18.666C-2.85103 19.1327 -2.75103 19.566 -2.65103 19.9993H2.94936L-5.98438 25.9326C-5.81771 26.3326 -5.61771 26.7326 -5.38437 27.1326L5.34937 19.9993H9.74936V20.266L-3.91771 29.3326C-3.65104 29.6993 -3.35104 30.0326 -3.05104 30.3326L9.74936 21.866L9.74934 32.0659C10.1827 32.1659 10.616 32.2659 11.0827 32.3326V20.966V19.366V18.666H-2.9177Z" fill="white" style="fill:white;fill-opacity:1;"/>
<path d="M30.4154 13.3328C30.3487 12.8661 30.2487 12.4328 30.1487 11.9994H24.5493L32.082 6.99943C31.882 6.59943 31.7154 6.19943 31.482 5.79943L22.1493 11.9994H17.7493V11.7328L31.0154 2.99941C30.7487 2.63275 30.4487 2.29941 30.1487 1.99941L17.7493 10.1328V-0.333919C17.316 -0.433919 16.8827 -0.533919 16.416 -0.600586V11.0328V12.6328V13.3328H30.4154Z" fill="white" style="fill:white;fill-opacity:1;"/>
<path d="M16.416 18.666V32.6659C16.8827 32.5993 17.316 32.4993 17.7493 32.3993L17.7494 21.866L29.882 29.6659C30.182 29.3326 30.482 28.9993 30.7487 28.6659L17.7494 20.266V19.9993H22.1494L31.1487 25.8659C31.3487 25.4659 31.5487 25.0659 31.7487 24.6659L24.5494 19.9993H30.1487C30.2487 19.566 30.3487 19.1327 30.4154 18.666H16.416Z" fill="white" style="fill:white;fill-opacity:1;"/>
<path d="M31.749 5.66582C31.3157 4.89915 30.8157 4.13249 30.2823 3.46582L17.749 11.7326V11.9992H22.149L31.749 5.66582Z" fill="#F0263C" style="fill:#F0263C;fill:color(display-p3 0.9412 0.1490 0.2353);fill-opacity:1;"/>
<path d="M-4.38379 26.4657C-3.95046 27.2323 -3.45046 27.999 -2.91712 28.6657L9.74956 20.2657V19.999H5.34955L-4.38379 26.4657Z" fill="#F0263C" style="fill:#F0263C;fill:color(display-p3 0.9412 0.1490 0.2353);fill-opacity:1;"/>
<path d="M17.749 19.999V20.2657L29.949 28.199C30.5157 27.499 30.9824 26.7657 31.4157 25.999L22.149 19.999H17.749Z" fill="#F0263C" style="fill:#F0263C;fill:color(display-p3 0.9412 0.1490 0.2353);fill-opacity:1;"/>
<path d="M30.0826 13.3335H16.416V12.6335V11.0335V-0.333073C15.5493 -0.49974 14.6493 -0.566406 13.7493 -0.566406C12.8493 -0.566406 11.9493 -0.49974 11.0826 -0.333073V13.3335H-2.58405C-2.75072 14.2002 -2.81738 15.1002 -2.81738 16.0002C-2.81738 16.9002 -2.75072 17.8002 -2.58405 18.6669H11.0826V32.3335C11.9493 32.4669 12.8493 32.5669 13.7493 32.5669C14.6493 32.5669 15.5493 32.5002 16.4159 32.3335L16.416 18.6669H30.0826C30.216 17.8002 30.316 16.9002 30.316 16.0002C30.316 15.1002 30.2493 14.2002 30.0826 13.3335Z" fill="#F0263C" style="fill:#F0263C;fill:color(display-p3 0.9412 0.1490 0.2353);fill-opacity:1;"/>
</g>
</g>
</g>
</g>
<defs>
<clipPath id="clip0_230_12025">
<rect width="64" height="64" rx="32" fill="white" style="fill:white;fill-opacity:1;"/>
</clipPath>
</defs>
</svg>
