<svg width="64" height="64" viewBox="0 0 64 64" fill="none" xmlns="http://www.w3.org/2000/svg">
<g clip-path="url(#clip0_230_12752)">
<mask id="mask0_230_12752" style="mask-type:luminance" maskUnits="userSpaceOnUse" x="0" y="0" width="64" height="64">
<path d="M64 0H0V64H64V0Z" fill="white" style="fill:white;fill-opacity:1;"/>
</mask>
<g mask="url(#mask0_230_12752)">
<path d="M61.4 19.3333L60 20L58.6667 21.3333L56 22.6667H53.3333L52 24L50.6667 25.3333L48 26.6667V29.3333L49.3333 32V33.3333H45.3333L44 32H42.6667L41.3333 33.3333V34.6667L38.6667 36H34.6667L33.3333 37.3333H29.3333L28 38.6667H26.6667L25.3333 37.3333H22.6667L21.3333 36H20L18.6667 34.6667L17.3333 33.3333L16 32L14.6667 29.3333V24L16 22.6667L17.3333 25.3333H18.6667L21.3333 22.6667H24V24H28V20L29.3333 18.6667L30.6667 20L33.3333 21.3333L37.3333 22.6667H44H46.6667L48 21.3333H50.6667L54.6667 20L60 17.3333H60.4667C55.1333 7.06667 44.4 0 32 0C14.3333 0 0 14.3333 0 32C0 49.6667 14.3333 64 32 64C49.6667 64 64 49.6667 64 32C64 27.4667 63.0667 23.2 61.4 19.3333Z" fill="white" style="fill:white;fill-opacity:1;"/>
<path d="M54.667 19.9996L50.667 21.333H48.0003L46.667 22.6663H44.0003H37.3337L33.3337 21.333L30.667 19.9996L29.3337 18.6663L28.0003 19.9996V23.9996H24.0003V22.6663H21.3337L18.667 25.333H17.3337L16.0003 22.6663L14.667 23.9996V29.333L16.0003 31.9996L17.3337 33.333L18.667 34.6663L20.0003 35.9996H21.3337L22.667 37.333H25.3337L26.667 38.6663H28.0003L29.3337 37.333H33.3337L34.667 35.9996H38.667L41.3337 34.6663V33.333L42.667 31.9996H44.0003L45.3337 33.333H49.3337V31.9996L48.0003 29.333V26.6663L50.667 25.333L52.0003 23.9996L53.3337 22.6663H56.0003L58.667 21.333L60.0003 19.9996L61.4003 19.333C61.1337 18.6663 60.8003 17.9996 60.467 17.333H60.0003L54.667 19.9996Z" fill="#CC9500" style="fill:#CC9500;fill:color(display-p3 0.8000 0.5843 0.0000);fill-opacity:1;"/>
<path d="M46.6663 37.333L43.9997 38.6663V39.9996L42.6663 41.333V38.6663L41.333 39.9996V42.6663L39.9997 43.9996V41.333L38.6663 42.6663V43.9996L37.333 45.333V42.6663L35.9997 43.9996V45.3996L34.6663 46.6663V43.9996L33.333 45.333V47.9996H37.333V46.6663H39.9997V45.333H42.6663L43.9997 43.9996H42.6663V42.6663H45.333L46.6663 41.333H43.9997L46.6663 39.9996V37.333Z" fill="#005B13" style="fill:#005B13;fill:color(display-p3 0.0000 0.3569 0.0745);fill-opacity:1;"/>
<path d="M30.6663 48L29.333 49.3333V50.6667L30.6663 49.3333H33.333L34.6663 50.6667V49.3333L33.333 48H30.6663Z" fill="#005B13" style="fill:#005B13;fill:color(display-p3 0.0000 0.3569 0.0745);fill-opacity:1;"/>
<path d="M30.6663 45.333L29.333 43.9996V46.6663L27.9997 45.3996V43.9996L26.6663 42.6663V45.333L25.333 43.9996V42.6663L23.9997 41.333V43.9996L22.6663 42.6663V39.9996L21.333 38.6663V41.333L19.9997 39.9996V38.6663L17.333 37.333V39.9996L19.9997 41.333H17.333L18.6663 42.6663H21.333V43.9996H19.9997L21.333 45.333H23.9997V46.6663H26.6663V47.9996H30.6663V45.333Z" fill="#005B13" style="fill:#005B13;fill:color(display-p3 0.0000 0.3569 0.0745);fill-opacity:1;"/>
</g>
</g>
<defs>
<clipPath id="clip0_230_12752">
<rect width="64" height="64" rx="32" fill="white" style="fill:white;fill-opacity:1;"/>
</clipPath>
</defs>
</svg>
