<svg width="64" height="64" viewBox="0 0 64 64" fill="none" xmlns="http://www.w3.org/2000/svg">
<g clip-path="url(#clip0_230_11833)">
<mask id="mask0_230_11833" style="mask-type:luminance" maskUnits="userSpaceOnUse" x="0" y="0" width="64" height="64">
<path d="M64 0H0V64H64V0Z" fill="white" style="fill:white;fill-opacity:1;"/>
</mask>
<g mask="url(#mask0_230_11833)">
<path d="M0 32.0007C0 35.734 0.666667 39.334 1.8 42.6673H62.1333C63.3333 39.334 64 35.734 64 32.0007C64 28.2673 63.3333 24.6673 62.2 21.334H1.8C0.666667 24.6673 0 28.2673 0 32.0007Z" fill="#F0263C" style="fill:#F0263C;fill:color(display-p3 0.9412 0.1490 0.2353);fill-opacity:1;"/>
<path d="M1.80078 21.3327H62.1341C60.7341 17.3327 58.5341 13.7327 55.8008 10.666H8.13411C5.40078 13.7327 3.26745 17.3327 1.80078 21.3327Z" fill="white" style="fill:white;fill-opacity:1;"/>
<path d="M8.13411 53.3327H55.8008C58.5341 50.266 60.7341 46.666 62.1341 42.666H1.80078C3.26745 46.666 5.40078 50.266 8.13411 53.3327Z" fill="white" style="fill:white;fill-opacity:1;"/>
<path d="M8.13379 10.6667H55.8005C50.0005 4.13333 41.4671 0 32.0005 0C22.5338 0 14.0005 4.13333 8.13379 10.6667Z" fill="#231D9A" style="fill:#231D9A;fill:color(display-p3 0.1373 0.1137 0.6039);fill-opacity:1;"/>
<path d="M55.8671 53.334H8.13379C14.0005 59.8673 22.5338 64.0007 32.0005 64.0007C41.4671 64.0007 50.0005 59.8673 55.8671 53.334Z" fill="#231D9A" style="fill:#231D9A;fill:color(display-p3 0.1373 0.1137 0.6039);fill-opacity:1;"/>
<path d="M11.333 40C15.7513 40 19.333 36.4183 19.333 32C19.333 27.5817 15.7513 24 11.333 24C6.91473 24 3.33301 27.5817 3.33301 32C3.33301 36.4183 6.91473 40 11.333 40Z" fill="white" style="fill:white;fill-opacity:1;"/>
<path d="M11.3333 37.3327C14.2789 37.3327 16.6667 34.9449 16.6667 31.9993C16.6667 29.0538 14.2789 26.666 11.3333 26.666C8.38781 26.666 6 29.0538 6 31.9993C6 34.9449 8.38781 37.3327 11.3333 37.3327Z" fill="#CC9500" style="fill:#CC9500;fill:color(display-p3 0.8000 0.5843 0.0000);fill-opacity:1;"/>
<path d="M11.2665 36.0007C12.9999 36.0007 14.5332 34.934 15.0665 33.334H7.5332C8.1332 34.8673 9.5332 36.0007 11.2665 36.0007Z" fill="#231D9A" style="fill:#231D9A;fill:color(display-p3 0.1373 0.1137 0.6039);fill-opacity:1;"/>
<path d="M11.3996 28C9.66628 28 8.13294 29.0667 7.59961 30.6667H15.1329C14.5329 29.1333 13.1329 28 11.3996 28Z" fill="#78C9FF" style="fill:#78C9FF;fill:color(display-p3 0.4706 0.7882 1.0000);fill-opacity:1;"/>
<path d="M15.333 32.066C15.333 31.5993 15.2663 31.1327 15.133 30.666H7.59967C7.46634 31.066 7.39967 31.466 7.33301 31.9327C7.33301 32.3993 7.39967 32.866 7.53301 33.3327H15.0663C15.2663 32.9327 15.333 32.5327 15.333 32.066Z" fill="#005B13" style="fill:#005B13;fill:color(display-p3 0.0000 0.3569 0.0745);fill-opacity:1;"/>
</g>
</g>
<defs>
<clipPath id="clip0_230_11833">
<rect width="64" height="64" rx="32" fill="white" style="fill:white;fill-opacity:1;"/>
</clipPath>
</defs>
</svg>
