<svg width="64" height="64" viewBox="0 0 64 64" fill="none" xmlns="http://www.w3.org/2000/svg">
<g clip-path="url(#clip0_230_11867)">
<mask id="mask0_230_11867" style="mask-type:luminance" maskUnits="userSpaceOnUse" x="0" y="0" width="64" height="64">
<path d="M64 0H0V64H64V0Z" fill="white" style="fill:white;fill-opacity:1;"/>
</mask>
<g mask="url(#mask0_230_11867)">
<path d="M21.333 42.6663H62.1997C63.333 39.333 63.9997 35.733 63.9997 31.9996C63.9997 28.2663 63.333 24.6663 62.1997 21.333H21.333V42.6663Z" fill="white" style="fill:white;fill-opacity:1;"/>
<path d="M21.333 21.3333H62.1997C57.7997 8.93333 45.933 0 31.9997 0C28.2663 0 24.6663 0.666667 21.333 1.8V21.3333Z" fill="#005B13" style="fill:#005B13;fill:color(display-p3 0.0000 0.3569 0.0745);fill-opacity:1;"/>
<path d="M62.1997 42.667H21.333V62.2004C24.6663 63.3337 28.2663 64.0004 31.9997 64.0004C45.933 64.0004 57.7997 55.067 62.1997 42.667Z" fill="black" style="fill:black;fill-opacity:1;"/>
<path d="M21.3333 62.1998V42.6665V21.3331V1.7998C8.93333 6.1998 0 18.0665 0 31.9998C0 45.9331 8.93333 57.7998 21.3333 62.1998Z" fill="#F0263C" style="fill:#F0263C;fill:color(display-p3 0.9412 0.1490 0.2353);fill-opacity:1;"/>
</g>
</g>
<defs>
<clipPath id="clip0_230_11867">
<rect width="64" height="64" rx="32" fill="white" style="fill:white;fill-opacity:1;"/>
</clipPath>
</defs>
</svg>
