<svg width="95" height="93" viewBox="0 0 95 93" fill="none" xmlns="http://www.w3.org/2000/svg">
<path d="M3.2168 66.2566C3.2168 63.6869 3.9908 60.973 5.53573 58.118C7.0868 55.2515 9.32382 52.5867 12.2414 50.0975C15.1659 47.6022 18.6807 45.567 22.8018 43.978C26.9229 42.3891 31.5608 41.6016 36.7009 41.6016C41.8708 41.6016 46.5248 42.3838 50.6589 43.978C54.78 45.567 58.3093 47.6037 61.2201 50.0975C64.1147 52.5775 66.3395 55.2546 67.8967 58.118C69.4477 60.97 70.2156 63.6869 70.2156 66.2566C70.2156 70.5042 67.0254 72.6284 60.6444 72.6284H12.8317C6.42151 72.6284 3.2168 70.5042 3.2168 66.2566Z" stroke="#BCFF00" style="stroke:#BCFF00;stroke:color(display-p3 0.7373 1.0000 0.0000);stroke-opacity:1;" stroke-width="5.20763"/>
<path d="M36.3595 3.22266C43.9649 3.22266 50.1399 10.0952 50.1399 18.5597C50.1399 27.0242 43.9649 33.8968 36.3595 33.8968C28.7541 33.8968 22.5791 27.0242 22.5791 18.5597C22.5791 10.0952 28.7541 3.22266 36.3595 3.22266Z" stroke="#BCFF00" style="stroke:#BCFF00;stroke:color(display-p3 0.7373 1.0000 0.0000);stroke-opacity:1;" stroke-width="5.36797"/>
<path d="M53.2646 51.0601L53.2586 51.0695L53.2527 51.079C52.4264 52.4084 52.1101 53.9317 52.1101 55.475V69.7845C52.1101 72.653 52.7045 75.2694 54.0686 77.4909C55.3564 79.6126 57.3107 81.5 59.7693 83.1978C62.102 84.8188 65.1248 86.6991 68.7891 88.8053L68.826 88.8265L68.8635 88.8465C69.778 89.3331 70.7644 89.5282 71.6507 89.5901L71.6548 89.5904C72.8652 89.6731 74.0026 89.3878 75.0179 88.8285L75.0344 88.8194L75.0508 88.81C78.7529 86.6999 81.7786 84.8177 84.1129 83.1953L84.1197 83.1906C86.5482 81.4911 88.4871 79.6114 89.7969 77.5124L89.8013 77.5053L89.8057 77.4981C91.1729 75.2751 91.7687 72.6561 91.7687 69.7845V55.475C91.7687 53.9317 91.4523 52.4084 90.626 51.079L90.6201 51.0695L90.6141 51.0601C89.7391 49.6789 88.3826 48.7332 86.8459 48.0942C86.1883 47.8079 85.3334 47.47 84.2448 47.0802C83.5579 46.8212 82.8133 46.5549 82.0592 46.2852C81.6415 46.1358 81.2208 45.9853 80.8054 45.8345L80.7918 45.8295L80.7781 45.8248C80.545 45.743 80.3158 45.6628 80.0903 45.5839C79.1197 45.2442 78.2183 44.9287 77.3752 44.6227C76.83 44.4248 76.3817 44.2652 76.0033 44.1305C75.6036 43.9881 75.2818 43.8736 75.0062 43.7711L74.9492 43.7498L74.8912 43.7313C73.8858 43.4099 72.8495 43.2702 71.8322 43.2702C70.7019 43.2702 69.599 43.4937 68.5375 43.9106L68.5092 43.9217L68.4811 43.9335C68.0976 44.0946 67.4208 44.3461 66.4252 44.6735L66.4142 44.6772L66.4032 44.6809C65.337 45.0421 64.1993 45.4481 63.0045 45.8777C62.734 45.975 62.4691 46.0705 62.209 46.1644C61.3026 46.4914 60.4552 46.7972 59.6406 47.0769L59.6192 47.0843L59.598 47.092C58.5923 47.457 57.6879 47.7948 57.0133 48.1088C55.5066 48.7408 54.1398 49.6786 53.2646 51.0601Z" stroke="#1D1D1F" style="stroke:#1D1D1F;stroke:color(display-p3 0.1137 0.1137 0.1216);stroke-opacity:1;" stroke-width="5.20763"/>
<path d="M54.7139 55.475C54.7139 54.2787 54.9589 53.2665 55.4641 52.4536C55.9694 51.6561 56.8422 50.9966 58.0671 50.4905C58.6183 50.2297 59.4298 49.923 60.4863 49.5396C61.5581 49.1715 62.6912 48.7574 63.8855 48.328C65.0798 47.8985 66.1975 47.4998 67.2387 47.147C68.2646 46.8096 69.0149 46.5335 69.4895 46.3341C70.2704 46.0274 71.0513 45.874 71.8322 45.874C72.6131 45.874 73.3787 45.9814 74.0983 46.2114C74.6342 46.4108 75.4304 46.6869 76.4869 47.0703C77.5434 47.4537 78.6918 47.8525 79.9167 48.2819C81.1416 48.7267 82.29 49.1255 83.3465 49.5242C84.4183 49.9077 85.2298 50.2297 85.827 50.4905C87.0519 50.9966 87.9093 51.6561 88.4146 52.4536C88.9199 53.2665 89.1649 54.2787 89.1649 55.475V69.7845C89.1649 72.2998 88.6443 74.4163 87.5878 76.134C86.516 77.8518 84.8623 79.4928 82.6268 81.0572C80.376 82.6216 77.4209 84.462 73.7615 86.5479C73.149 86.8853 72.5059 87.0387 71.8322 86.9927C71.1738 86.9467 70.5766 86.8086 70.0867 86.5479C66.4578 84.462 63.5027 82.6216 61.2519 81.0572C58.9858 79.4928 57.3321 77.8518 56.291 76.134C55.2345 74.4163 54.7139 72.2998 54.7139 69.7845V55.475Z" fill="#BCFF00" style="fill:#BCFF00;fill:color(display-p3 0.7373 1.0000 0.0000);fill-opacity:1;"/>
<path d="M54.7139 55.475C54.7139 54.2787 54.9589 53.2665 55.4641 52.4536C55.9694 51.6561 56.8422 50.9966 58.0671 50.4905C58.6183 50.2297 59.4298 49.923 60.4863 49.5396C61.5581 49.1715 62.6912 48.7574 63.8855 48.328C65.0798 47.8985 66.1975 47.4998 67.2387 47.147C68.2646 46.8096 69.0149 46.5335 69.4895 46.3341C70.2704 46.0274 71.0513 45.874 71.8322 45.874C72.6131 45.874 73.3787 45.9814 74.0983 46.2114C74.6342 46.4108 75.4304 46.6869 76.4869 47.0703C77.5434 47.4537 78.6918 47.8525 79.9167 48.2819C81.1416 48.7267 82.29 49.1255 83.3465 49.5242C84.4183 49.9077 85.2298 50.2297 85.827 50.4905C87.0519 50.9966 87.9093 51.6561 88.4146 52.4536C88.9199 53.2665 89.1649 54.2787 89.1649 55.475V69.7845C89.1649 72.2998 88.6443 74.4163 87.5878 76.134C86.516 77.8518 84.8623 79.4928 82.6268 81.0572C80.376 82.6216 77.4209 84.462 73.7615 86.5479C73.149 86.8853 72.5059 87.0387 71.8322 86.9927C71.1738 86.9467 70.5766 86.8086 70.0867 86.5479C66.4578 84.462 63.5027 82.6216 61.2519 81.0572C58.9858 79.4928 57.3321 77.8518 56.291 76.134C55.2345 74.4163 54.7139 72.2998 54.7139 69.7845V55.475Z" fill="#BCFF00" style="fill:#BCFF00;fill:color(display-p3 0.7373 1.0000 0.0000);fill-opacity:1;"/>
<path d="M62.7109 67.2915L69.6011 74.7683L81.0848 59.0479" stroke="#1D1D1F" style="stroke:#1D1D1F;stroke:color(display-p3 0.1137 0.1137 0.1216);stroke-opacity:1;" stroke-width="5" stroke-linecap="round" stroke-linejoin="round"/>
</svg>
