<svg width="91" height="87" viewBox="0 0 91 87" fill="none" xmlns="http://www.w3.org/2000/svg">
<path d="M56.5486 56.726C63.4085 60.9778 69.1459 70.0088 69.1459 72.8166C69.1459 76.2042 66.0509 76.7324 60.0402 76.7324H15.0021C8.96385 76.7324 5 77.0558 5 73.6682C5 73.6682 5.18934 65.847 15.5705 58.1499C20.168 54.7408 27.7349 51.2381 36.165 51.2198C43.5767 51.2037 50.8485 53.1931 56.5486 56.726Z" stroke="#BCFF00" style="stroke:#BCFF00;stroke:color(display-p3 0.7373 1.0000 0.0000);stroke-opacity:1;" stroke-width="5.73743" stroke-linecap="round" stroke-linejoin="round"/>
<path d="M29.1088 12.5261C34.0554 8.99335 40.7269 9.31528 45.3982 13.7777C51.0474 19.1741 51.6469 28.5958 46.7362 34.8037C41.8255 41.0115 33.2517 41.6704 27.6025 36.274C21.9534 30.8776 21.3538 21.4558 26.2646 15.2479C27.1143 14.1737 28.0739 13.2654 29.1088 12.5261Z" stroke="#BCFF00" style="stroke:#BCFF00;stroke:color(display-p3 0.7373 1.0000 0.0000);stroke-opacity:1;" stroke-width="5.04633" stroke-linecap="round"/>
<path d="M84.9971 46.3982C84.9971 51.3467 82.0566 55.492 76.9647 57.9304L80.8804 61.8462C81.6263 62.6351 81.6263 63.6965 80.9235 64.3563L76.7208 68.559L79.5895 71.4994C80.2493 72.2022 80.3354 73.2206 79.6326 73.9665L73.8951 79.6609C73.2353 80.3207 72.2886 80.292 71.7006 79.7326L68.4159 76.6057C67.9425 76.1611 67.67 75.5443 67.67 74.8701V57.7296C63.2379 55.7788 60.3691 51.4184 60.3691 46.3982C60.3691 39.6567 65.8197 34.1631 72.6903 34.1631C79.4748 34.1631 84.9971 39.6567 84.9971 46.3982Z" stroke="#1D1D1F" style="stroke:#1D1D1F;stroke:color(display-p3 0.1137 0.1137 0.1216);stroke-opacity:1;" stroke-width="10.0405"/>
<path d="M68.9997 43.9712C68.9997 46.0079 70.6937 47.6575 72.6444 47.6575C74.6525 47.6575 76.302 46.0079 76.302 43.9712C76.302 42.0061 74.6525 40.3566 72.6444 40.3566C70.6507 40.3566 68.9997 42.0061 68.9997 43.9712ZM85 46.3952C85 51.3438 82.0581 55.489 76.9661 57.9275L80.8834 61.8432C81.6292 62.6321 81.6292 63.6936 80.9264 64.3534L76.7223 68.556L79.591 71.4965C80.2508 72.1993 80.3369 73.2177 79.634 73.9636L73.8966 79.658C73.2368 80.3178 72.2901 80.2891 71.7021 79.7297L68.4188 76.6028C67.9455 76.1581 67.6715 75.5414 67.6715 74.8672V57.7266C63.2393 55.7759 60.3721 51.4155 60.3721 46.3952C60.3721 39.6537 65.8212 34.1602 72.6918 34.1602C79.4763 34.1602 85 39.6537 85 46.3952Z" fill="#BCFF00" style="fill:#BCFF00;fill:color(display-p3 0.7373 1.0000 0.0000);fill-opacity:1;"/>
</svg>
