<svg width="145" height="79" viewBox="0 0 145 79" fill="none" xmlns="http://www.w3.org/2000/svg">
<path d="M90.3618 64.9705C90.3618 62.905 90.9464 60.7239 92.1142 58.4293C93.2862 56.1254 94.9775 53.9831 97.1823 51.983C99.3929 49.9778 102.049 48.3425 105.164 47.0649C108.279 45.7873 111.784 45.1553 115.669 45.1553C119.576 45.1553 123.094 45.7837 126.218 47.0649C129.333 48.3425 132 49.9785 134.2 51.983C136.388 53.9766 138.069 56.1283 139.246 58.4293C140.418 60.721 140.998 62.905 140.998 64.9705C140.998 68.3847 138.587 70.0918 133.765 70.0918H97.629C92.7842 70.0918 90.3618 68.3847 90.3618 64.9705Z" stroke="#BCFF00" style="stroke:#BCFF00;stroke:color(display-p3 0.7373 1.0000 0.0000);stroke-opacity:1;" stroke-width="5.02724"/>
<path d="M90.3618 64.9705C90.3618 62.905 90.9464 60.7239 92.1142 58.4293C93.2862 56.1254 94.9775 53.9831 97.1823 51.983C99.3929 49.9778 102.049 48.3425 105.164 47.0649C108.279 45.7873 111.784 45.1553 115.669 45.1553C119.576 45.1553 123.094 45.7837 126.218 47.0649C129.333 48.3425 132 49.9785 134.2 51.983C136.388 53.9766 138.069 56.1283 139.246 58.4293C140.418 60.721 140.998 62.905 140.998 64.9705C140.998 68.3847 138.587 70.0918 133.765 70.0918H97.629C92.7842 70.0918 90.3618 68.3847 90.3618 64.9705Z" stroke="#BCFF00" style="stroke:#BCFF00;stroke:color(display-p3 0.7373 1.0000 0.0000);stroke-opacity:1;" stroke-width="5.02724"/>
<path d="M115.326 11.668C121.391 11.668 126.315 17.1388 126.315 23.877C126.315 30.6151 121.391 36.086 115.326 36.086C109.262 36.086 104.338 30.6151 104.338 23.877C104.338 17.1388 109.262 11.668 115.326 11.668Z" stroke="#BCFF00" style="stroke:#BCFF00;stroke:color(display-p3 0.7373 1.0000 0.0000);stroke-opacity:1;" stroke-width="5.02724"/>
<path d="M115.326 11.668C121.391 11.668 126.315 17.1388 126.315 23.877C126.315 30.6151 121.391 36.086 115.326 36.086C109.262 36.086 104.338 30.6151 104.338 23.877C104.338 17.1388 109.262 11.668 115.326 11.668Z" stroke="#BCFF00" style="stroke:#BCFF00;stroke:color(display-p3 0.7373 1.0000 0.0000);stroke-opacity:1;" stroke-width="5.02724"/>
<path d="M4.00001 64.7612C4.00288 62.7279 4.5803 60.5811 5.72722 58.3234C6.87918 56.0565 8.53817 53.9506 10.7013 51.984C12.8695 50.0128 15.4743 48.406 18.5273 47.153C21.5803 45.9001 25.0146 45.2822 28.8202 45.2881C32.6474 45.2941 36.0924 45.9179 39.1512 47.1841C42.1998 48.4463 44.8104 50.061 46.962 52.0381C49.1022 54.0041 50.7461 56.1251 51.8952 58.3927C53.04 60.6511 53.6045 62.8032 53.6016 64.8364C53.5966 68.1979 51.2323 69.8753 46.5082 69.8681L11.1114 69.8146C6.36568 69.8073 3.99498 68.1226 4.00001 64.7612Z" stroke="#BCFF00" style="stroke:#BCFF00;stroke:color(display-p3 0.7373 1.0000 0.0000);stroke-opacity:1;" stroke-width="4.81986"/>
<path d="M4.00001 64.7612C4.00288 62.7279 4.5803 60.5811 5.72722 58.3234C6.87918 56.0565 8.53817 53.9506 10.7013 51.984C12.8695 50.0128 15.4743 48.406 18.5273 47.153C21.5803 45.9001 25.0146 45.2822 28.8202 45.2881C32.6474 45.2941 36.0924 45.9179 39.1512 47.1841C42.1998 48.4463 44.8104 50.061 46.962 52.0381C49.1022 54.0041 50.7461 56.1251 51.8952 58.3927C53.04 60.6511 53.6045 62.8032 53.6016 64.8364C53.5966 68.1979 51.2323 69.8753 46.5082 69.8681L11.1114 69.8146C6.36568 69.8073 3.99498 68.1226 4.00001 64.7612Z" stroke="#BCFF00" style="stroke:#BCFF00;stroke:color(display-p3 0.7373 1.0000 0.0000);stroke-opacity:1;" stroke-width="4.81986"/>
<path d="M29.4896 11.668C35.5539 11.668 40.4777 17.1388 40.4777 23.877C40.4777 30.6151 35.5539 36.086 29.4896 36.086C23.4252 36.086 18.5015 30.6151 18.5015 23.877C18.5015 17.1388 23.4252 11.668 29.4896 11.668Z" stroke="#BCFF00" style="stroke:#BCFF00;stroke:color(display-p3 0.7373 1.0000 0.0000);stroke-opacity:1;" stroke-width="5.02724"/>
<path d="M29.4896 11.668C35.5539 11.668 40.4777 17.1388 40.4777 23.877C40.4777 30.6151 35.5539 36.086 29.4896 36.086C23.4252 36.086 18.5015 30.6151 18.5015 23.877C18.5015 17.1388 23.4252 11.668 29.4896 11.668Z" stroke="#BCFF00" style="stroke:#BCFF00;stroke:color(display-p3 0.7373 1.0000 0.0000);stroke-opacity:1;" stroke-width="5.02724"/>
<path d="M41.252 66.0327C41.252 63.6261 41.978 61.0844 43.4273 58.4107C44.8823 55.7261 46.9808 53.2305 49.7178 50.8993C52.4613 48.5623 55.7584 46.6563 59.6243 45.1682C63.4903 43.6801 67.841 42.9426 72.6628 42.9426C77.5127 42.9426 81.8785 43.6751 85.7566 45.1682C89.6226 46.6563 92.9334 48.5637 95.6639 50.8993C98.3793 53.2218 100.466 55.729 101.927 58.4107C103.382 61.0816 104.102 63.6261 104.102 66.0327C104.102 70.0106 101.11 72 95.1238 72H50.2715C44.2582 72 41.252 70.0106 41.252 66.0327ZM72.3425 7C79.477 7 85.2697 13.4363 85.2697 21.3635C85.2697 29.2908 79.477 35.7271 72.3425 35.7271C65.208 35.7271 59.4154 29.2908 59.4154 21.3635C59.4154 13.4363 65.208 7 72.3425 7Z" fill="#1D1D1F" stroke="#1D1D1F" style="fill:#1D1D1F;fill:color(display-p3 0.1137 0.1137 0.1216);fill-opacity:1;stroke:#1D1D1F;stroke:color(display-p3 0.1137 0.1137 0.1216);stroke-opacity:1;" stroke-width="12.7228"/>
<path d="M41.252 66.0327C41.252 63.6261 41.978 61.0844 43.4273 58.4107C44.8823 55.7261 46.9808 53.2305 49.7178 50.8993C52.4613 48.5623 55.7584 46.6563 59.6243 45.1682C63.4903 43.6801 67.841 42.9426 72.6628 42.9426C77.5127 42.9426 81.8785 43.6751 85.7566 45.1682C89.6226 46.6563 92.9334 48.5637 95.6639 50.8993C98.3793 53.2218 100.466 55.729 101.927 58.4107C103.382 61.0816 104.102 63.6261 104.102 66.0327C104.102 70.0106 101.11 72 95.1238 72H50.2715C44.2582 72 41.252 70.0106 41.252 66.0327ZM72.3425 7C79.477 7 85.2697 13.4363 85.2697 21.3635C85.2697 29.2908 79.477 35.7271 72.3425 35.7271C65.208 35.7271 59.4154 29.2908 59.4154 21.3635C59.4154 13.4363 65.208 7 72.3425 7Z" stroke="#BCFF00" style="stroke:#BCFF00;stroke:color(display-p3 0.7373 1.0000 0.0000);stroke-opacity:1;" stroke-width="4.87707"/>
<path d="M41.252 66.0327C41.252 63.6261 41.978 61.0844 43.4273 58.4107C44.8823 55.7261 46.9808 53.2305 49.7178 50.8993C52.4613 48.5623 55.7584 46.6563 59.6243 45.1682C63.4903 43.6801 67.841 42.9426 72.6628 42.9426C77.5127 42.9426 81.8785 43.6751 85.7566 45.1682C89.6226 46.6563 92.9334 48.5637 95.6639 50.8993C98.3793 53.2218 100.466 55.729 101.927 58.4107C103.382 61.0816 104.102 63.6261 104.102 66.0327C104.102 70.0106 101.11 72 95.1238 72H50.2715C44.2582 72 41.252 70.0106 41.252 66.0327ZM72.3425 7C79.477 7 85.2697 13.4363 85.2697 21.3635C85.2697 29.2908 79.477 35.7271 72.3425 35.7271C65.208 35.7271 59.4154 29.2908 59.4154 21.3635C59.4154 13.4363 65.208 7 72.3425 7Z" stroke="#BCFF00" style="stroke:#BCFF00;stroke:color(display-p3 0.7373 1.0000 0.0000);stroke-opacity:1;" stroke-width="4.87707"/>
</svg>
