<svg width="87" height="87" viewBox="0 0 87 87" fill="none" xmlns="http://www.w3.org/2000/svg">
<path d="M79.7663 35.9043C71.6393 35.9043 67.3796 31.8893 63.261 28.0064C62.3928 27.1867 61.0375 27.1867 60.1649 28.0064C56.0506 31.8893 51.7933 35.9043 43.6618 35.9043C42.4145 35.9043 41.4053 36.9135 41.4053 38.1608V57.186C41.4053 68.7617 47.7893 76.9313 60.9208 81.8564C61.1764 81.9512 61.4452 81.9996 61.714 81.9996C61.9829 81.9996 62.2517 81.9512 62.5073 81.8564C75.6388 76.9313 82.0228 68.7595 82.0228 57.1904V38.1608C82.0228 36.9135 81.0136 35.9043 79.7663 35.9043Z" fill="white" style="fill:white;fill-opacity:1;"/>
<path d="M5 16.1094C5 25.0666 25.206 27.3921 34.6358 27.3921C44.27 27.3921 63.9707 24.9928 63.9707 16.1094C63.9707 1.29468 5 1.29905 5 16.1094Z" fill="white" style="fill:white;fill-opacity:1;"/>
<path d="M34.6358 31.9047C20.0587 31.9047 5 28.0235 5 20.6221V34.1613C5 41.5628 20.0587 45.7448 34.6358 45.7448C35.3882 45.7448 36.1409 45.7279 36.8923 45.7073V38.1609C36.8923 34.9067 39.2018 32.1844 42.2668 31.5392C39.7706 31.7778 37.2022 31.9047 34.6358 31.9047Z" fill="white" style="fill:white;fill-opacity:1;"/>
<path d="M36.8923 57.1866V50.2209C36.1409 50.2415 35.3882 50.2583 34.6358 50.2583C20.0587 50.2583 5 46.0762 5 38.6748V52.5149C5 59.9164 20.0587 63.7975 34.6358 63.7975C35.6377 63.7975 36.6394 63.7752 37.6382 63.7385C37.1962 61.6534 36.8923 59.4972 36.8923 57.1866Z" fill="white" style="fill:white;fill-opacity:1;"/>
<path d="M38.9847 68.1836C37.5419 68.2605 36.0897 68.31 34.6358 68.31C20.0587 68.31 5 64.4288 5 57.0273V70.5665C5 77.9681 20.0587 81.9996 34.6358 81.9996C39.587 81.9996 44.5449 81.5409 48.9526 80.6595C44.2271 77.2999 40.9244 73.0213 38.9847 68.1836Z" fill="white" style="fill:white;fill-opacity:1;"/>
<path d="M70.2838 51.781C70.8116 51.781 71.3177 51.577 71.6909 51.2138C72.0641 50.8506 72.2738 50.358 72.2738 49.8444V48.9574C72.2713 47.1388 71.5279 45.3955 70.2066 44.1096C68.8853 42.8237 67.0939 42.1002 65.2252 42.0978H63.6505V41.4523C63.6505 40.9386 63.4408 40.446 63.0676 40.0829C62.6944 39.7197 62.1883 39.5156 61.6605 39.5156C61.1327 39.5156 60.6265 39.7197 60.2533 40.0829C59.8801 40.446 59.6705 40.9386 59.6705 41.4523V42.0978H58.0957C56.4035 42.0954 54.7669 42.6854 53.4848 43.7603C52.2027 44.8351 51.3608 46.3229 51.1128 47.952C50.8647 49.581 51.2272 51.2425 52.1339 52.6329C53.0406 54.0234 54.4311 55.05 56.0513 55.5252L59.6705 56.4883V64.0464H58.0957C57.2822 64.0454 56.5023 63.7304 55.9271 63.1706C55.3518 62.6108 55.0282 61.8518 55.0271 61.0601V60.1731C55.0271 59.6595 54.8175 59.1669 54.4443 58.8037C54.0711 58.4405 53.5649 58.2365 53.0371 58.2365C52.5094 58.2365 52.0032 58.4405 51.63 58.8037C51.2568 59.1669 51.0471 59.6595 51.0471 60.1731V61.0601C51.0496 62.8786 51.793 64.622 53.1143 65.9079C54.4357 67.1938 56.2271 67.9173 58.0957 67.9197H59.6705V68.5652C59.6705 69.0788 59.8801 69.5714 60.2533 69.9346C60.6265 70.2978 61.1327 70.5019 61.6605 70.5019C62.1883 70.5019 62.6944 70.2978 63.0676 69.9346C63.4408 69.5714 63.6505 69.0788 63.6505 68.5652V67.9197H65.2252C66.9174 67.9221 68.554 67.332 69.8361 66.2572C71.1182 65.1824 71.9601 63.6946 72.2082 62.0655C72.4562 60.4365 72.0938 58.775 71.187 57.3845C70.2803 55.9941 68.8898 54.9675 67.2696 54.4923L63.6505 53.5317V45.9711H65.2252C66.0387 45.9721 66.8186 46.2871 67.3939 46.8469C67.9691 47.4067 68.2927 48.1657 68.2938 48.9574V49.8444C68.2938 50.358 68.5035 50.8506 68.8767 51.2138C69.2499 51.577 69.756 51.781 70.2838 51.781ZM66.1473 58.2094C66.8471 58.424 67.4449 58.8755 67.8321 59.4821C68.2194 60.0887 68.3706 60.8102 68.2583 61.5159C68.146 62.2217 67.7777 62.8649 67.2201 63.3291C66.6624 63.7933 65.9524 64.0478 65.2186 64.0464H63.6505V57.5457L66.1473 58.2094ZM59.6705 52.4717L57.1737 51.8081C56.4744 51.5936 55.877 51.1426 55.4897 50.5367C55.1024 49.9308 54.9507 49.21 55.0621 48.5047C55.1736 47.7994 55.5407 47.1563 56.0971 46.6915C56.6535 46.2268 57.3625 45.9712 58.0957 45.9711H59.6705V52.4717Z" fill="#1D1D1F" style="fill:#1D1D1F;fill:color(display-p3 0.1137 0.1137 0.1216);fill-opacity:1;"/>
</svg>
