<svg width="87" height="87" viewBox="0 0 87 87" fill="none" xmlns="http://www.w3.org/2000/svg">
<path fill-rule="evenodd" clip-rule="evenodd" d="M29 69.7812H10.875C9.37425 69.7812 8.15625 70.9992 8.15625 72.5C8.15625 74.0008 9.37425 75.2188 10.875 75.2188H29C30.5007 75.2188 31.7188 74.0008 31.7188 72.5C31.7188 70.9992 30.5007 69.7812 29 69.7812Z" fill="white" style="fill:white;fill-opacity:1;"/>
<path fill-rule="evenodd" clip-rule="evenodd" d="M27.2963 81.6713L34.5463 74.4213C35.6084 73.3592 35.6084 71.6409 34.5463 70.5788L27.2963 63.3288C26.2378 62.2667 24.5123 62.2667 23.4538 63.3288C22.3917 64.3873 22.3917 66.1128 23.4538 67.1713L28.7789 72.5001L23.4538 77.8288C22.3917 78.8873 22.3917 80.6128 23.4538 81.6713C24.5123 82.7334 26.2378 82.7334 27.2963 81.6713Z" fill="white" style="fill:white;fill-opacity:1;"/>
<path fill-rule="evenodd" clip-rule="evenodd" d="M19.0349 65.3733C19.0022 63.7057 19.6221 62.0346 20.8909 60.7659C23.3667 58.29 27.3833 58.29 29.8591 60.7659L37.1091 68.0159C38.9651 69.8682 39.4291 72.5834 38.512 74.8671C40.1396 75.0991 41.8071 75.2188 43.5 75.2188C63.0061 75.2188 78.8438 59.3811 78.8438 39.875C78.8438 20.3689 63.0061 4.53125 43.5 4.53125C23.9939 4.53125 8.15625 20.3689 8.15625 39.875C8.15625 49.8909 12.3322 58.9389 19.0349 65.3733ZM46.2188 25.5055V24.3383C46.2188 22.8375 45.0008 21.6195 43.5 21.6195C41.9992 21.6195 40.7812 22.8375 40.7812 24.3383V25.6469C39.092 25.9586 37.5224 26.7743 36.2935 28.0068C34.6912 29.609 33.7886 31.784 33.7886 34.0496C33.7886 36.3152 34.6912 38.4902 36.2935 40.0925C37.8958 41.6948 40.0671 42.5938 42.3364 42.5938H44.6636C45.4901 42.5938 46.2804 42.92 46.864 43.5036C47.444 44.0872 47.7739 44.8775 47.7739 45.7004C47.7739 46.5233 47.444 47.3135 46.864 47.8971C46.2804 48.4808 45.4901 48.807 44.6636 48.807H39.875C39.1391 48.807 38.6461 48.0349 38.6461 48.0349C37.7181 46.8531 36.0071 46.6501 34.829 47.5781C33.6472 48.5061 33.4443 50.2171 34.3723 51.3953C34.3723 51.3953 36.7285 54.2445 39.875 54.2445H40.7812V55.4118C40.7812 56.9125 41.9992 58.1305 43.5 58.1305C45.0008 58.1305 46.2188 56.9125 46.2188 55.4118V54.1031C47.908 53.7914 49.4776 52.9757 50.7065 51.7433C52.3088 50.141 53.2114 47.966 53.2114 45.7004C53.2114 43.4347 52.3088 41.2598 50.7065 39.6575C49.1042 38.0552 46.9329 37.1562 44.6636 37.1562H42.3364C41.5099 37.1562 40.7196 36.83 40.136 36.2464C39.556 35.6627 39.2261 34.8725 39.2261 34.0496C39.2261 33.2267 39.556 32.4365 40.136 31.8529C40.7196 31.2692 41.5099 30.943 42.3364 30.943H47.125C47.8609 30.943 48.3539 31.7151 48.3539 31.7151C49.2819 32.8969 50.9929 33.0999 52.171 32.1719C53.3527 31.2439 53.5557 29.5329 52.6278 28.3547C52.6278 28.3547 50.2715 25.5055 47.125 25.5055H46.2188Z" fill="white" style="fill:white;fill-opacity:1;"/>
</svg>
