<svg width="87" height="87" viewBox="0 0 87 87" fill="none" xmlns="http://www.w3.org/2000/svg">
<circle cx="50.5" cy="35.5" r="29.975" stroke="white" style="stroke:white;stroke-opacity:1;" stroke-width="5.05"/>
<circle cx="50.5" cy="35.5" r="29.975" stroke="white" style="stroke:white;stroke-opacity:1;" stroke-width="5.05"/>
<circle cx="35.5" cy="51.5" r="32.5" fill="white" style="fill:white;fill-opacity:1;"/>
<circle cx="35.5" cy="51.5" r="32.5" fill="white" style="fill:white;fill-opacity:1;"/>
<path d="M44.7502 48.25C45.3469 48.25 45.9192 48.0129 46.3412 47.591C46.7631 47.169 47.0002 46.5967 47.0002 46V44.9695C46.9974 42.8567 46.1569 40.8313 44.6629 39.3373C43.1689 37.8433 41.1435 37.0028 39.0307 37H37.2502V36.25C37.2502 35.6533 37.0131 35.081 36.5912 34.659C36.1692 34.2371 35.5969 34 35.0002 34C34.4034 34 33.8311 34.2371 33.4092 34.659C32.9872 35.081 32.7502 35.6533 32.7502 36.25V37H30.9697C29.0564 36.9971 27.2059 37.6827 25.7564 38.9315C24.3068 40.1802 23.3548 41.9088 23.0744 43.8014C22.7939 45.694 23.2037 47.6243 24.2289 49.2398C25.2541 50.8552 26.8263 52.0479 28.6582 52.6L32.7502 53.719V62.5H30.9697C30.0499 62.4988 29.1681 62.1329 28.5177 61.4825C27.8673 60.8321 27.5014 59.9503 27.5002 59.0305V58C27.5002 57.4033 27.2631 56.831 26.8412 56.409C26.4192 55.9871 25.8469 55.75 25.2502 55.75C24.6534 55.75 24.0811 55.9871 23.6592 56.409C23.2372 56.831 23.0002 57.4033 23.0002 58V59.0305C23.003 61.1433 23.8435 63.1687 25.3375 64.6627C26.8314 66.1567 28.8569 66.9972 30.9697 67H32.7502V67.75C32.7502 68.3467 32.9872 68.919 33.4092 69.341C33.8311 69.7629 34.4034 70 35.0002 70C35.5969 70 36.1692 69.7629 36.5912 69.341C37.0131 68.919 37.2502 68.3467 37.2502 67.75V67H39.0307C40.944 67.0028 42.7944 66.3173 44.244 65.0685C45.6936 63.8198 46.6455 62.0912 46.926 60.1986C47.2064 58.306 46.7966 56.3757 45.7714 54.7602C44.7462 53.1448 43.1741 51.9521 41.3422 51.4L37.2502 50.284V41.5H39.0307C39.9505 41.5012 40.8323 41.8671 41.4827 42.5175C42.1331 43.1679 42.499 44.0497 42.5002 44.9695V46C42.5002 46.5967 42.7372 47.169 43.1592 47.591C43.5811 48.0129 44.1534 48.25 44.7502 48.25ZM40.0732 55.7185C40.8645 55.9679 41.5403 56.4925 41.9782 57.1972C42.4161 57.9019 42.587 58.7402 42.46 59.5601C42.3331 60.38 41.9167 61.1273 41.2862 61.6667C40.6557 62.206 39.8529 62.5016 39.0232 62.5H37.2502V54.9475L40.0732 55.7185ZM32.7502 49.0525L29.9272 48.2815C29.1365 48.0323 28.4611 47.5084 28.0232 46.8044C27.5853 46.1005 27.4138 45.263 27.5398 44.4436C27.6657 43.6242 28.0808 42.8769 28.7099 42.337C29.3391 41.7971 30.1406 41.5002 30.9697 41.5H32.7502V49.0525Z" fill="#1D1D1F" style="fill:#1D1D1F;fill:color(display-p3 0.1137 0.1137 0.1216);fill-opacity:1;"/>
</svg>
